<svg width="345" height="124" viewBox="0 0 345 124" fill="none" xmlns="http://www.w3.org/2000/svg">
<mask id="mask0_41580_197806" style="mask-type:alpha" maskUnits="userSpaceOnUse" x="0" y="0" width="345" height="124">
<mask id="path-1-inside-1_41580_197806" fill="white">
<path fill-rule="evenodd" clip-rule="evenodd" d="M17 19.2174H8C3.58172 19.2174 0 22.7991 0 27.2174V124H345V27.2174C345 22.7991 341.418 19.2174 337 19.2174L95 19.2174V48C95 69.5391 77.5391 87 56 87C34.4609 87 17 69.5391 17 48V19.2174ZM46.253 94.5862C47.6799 95.3016 47.7351 97.3179 46.3496 98.1102L31.8048 106.429C30.4925 107.179 28.8541 106.258 28.8127 104.747L28.379 88.9195C28.3376 87.4083 29.9232 86.3993 31.2746 87.0768L46.253 94.5862ZM62.5943 97.8472C61.2087 97.0548 61.264 95.0385 62.6908 94.3232L77.6692 86.8138C79.0206 86.1362 80.6062 87.1453 80.5648 88.6564L80.1312 104.484C80.0898 105.995 78.4513 106.916 77.139 106.165L62.5943 97.8472Z"/>
</mask>
<path fill-rule="evenodd" clip-rule="evenodd" d="M17 19.2174H8C3.58172 19.2174 0 22.7991 0 27.2174V124H345V27.2174C345 22.7991 341.418 19.2174 337 19.2174L95 19.2174V48C95 69.5391 77.5391 87 56 87C34.4609 87 17 69.5391 17 48V19.2174ZM46.253 94.5862C47.6799 95.3016 47.7351 97.3179 46.3496 98.1102L31.8048 106.429C30.4925 107.179 28.8541 106.258 28.8127 104.747L28.379 88.9195C28.3376 87.4083 29.9232 86.3993 31.2746 87.0768L46.253 94.5862ZM62.5943 97.8472C61.2087 97.0548 61.264 95.0385 62.6908 94.3232L77.6692 86.8138C79.0206 86.1362 80.6062 87.1453 80.5648 88.6564L80.1312 104.484C80.0898 105.995 78.4513 106.916 77.139 106.165L62.5943 97.8472Z" fill="#C0BEC6"/>
<path d="M17 19.2174H18V18.2174H17V19.2174ZM0 124H-1V125H0V124ZM345 124V125H346V124H345ZM337 19.2174V18.2174V19.2174ZM95 19.2174V18.2174H94V19.2174H95ZM46.3496 98.1102L45.8531 97.2422L46.3496 98.1102ZM46.253 94.5862L45.8049 95.4802H45.8049L46.253 94.5862ZM31.8048 106.429L31.3084 105.56H31.3084L31.8048 106.429ZM28.8127 104.747L29.8123 104.72L28.8127 104.747ZM28.379 88.9195L29.3786 88.8921L28.379 88.9195ZM31.2746 87.0768L31.7228 86.1829H31.7228L31.2746 87.0768ZM62.6908 94.3232L63.139 95.2171H63.139L62.6908 94.3232ZM62.5943 97.8472L63.0907 96.9791L62.5943 97.8472ZM77.6692 86.8138L77.221 85.9198L77.6692 86.8138ZM80.5648 88.6564L81.5645 88.6838L80.5648 88.6564ZM80.1312 104.484L81.1308 104.512V104.512L80.1312 104.484ZM77.139 106.165L77.6355 105.297L77.139 106.165ZM8 20.2174H17V18.2174H8V20.2174ZM1 27.2174C1 23.3514 4.13401 20.2174 8 20.2174V18.2174C3.02944 18.2174 -1 22.2468 -1 27.2174H1ZM1 124V27.2174H-1V124H1ZM345 123H0V125H345V123ZM344 27.2174V124H346V27.2174H344ZM337 20.2174C340.866 20.2174 344 23.3514 344 27.2174H346C346 22.2468 341.971 18.2174 337 18.2174V20.2174ZM95 20.2174L337 20.2174V18.2174L95 18.2174V20.2174ZM96 48V19.2174H94V48H96ZM56 88C78.0914 88 96 70.0914 96 48H94C94 68.9869 76.9868 86 56 86V88ZM16 48C16 70.0914 33.9086 88 56 88V86C35.0132 86 18 68.9869 18 48H16ZM16 19.2174V48H18V19.2174H16ZM46.846 98.9783C48.9243 97.7897 48.8414 94.7653 46.7012 93.6923L45.8049 95.4802C46.5183 95.8378 46.5459 96.846 45.8531 97.2422L46.846 98.9783ZM32.3013 107.297L46.846 98.9783L45.8531 97.2422L31.3084 105.56L32.3013 107.297ZM27.813 104.775C27.8751 107.041 30.3328 108.422 32.3013 107.297L31.3084 105.56C30.6522 105.936 29.833 105.475 29.8123 104.72L27.813 104.775ZM27.3794 88.9469L27.813 104.775L29.8123 104.72L29.3786 88.8921L27.3794 88.9469ZM31.7228 86.1829C29.6957 85.1666 27.3173 86.6801 27.3794 88.9469L29.3786 88.8921C29.3579 88.1365 30.1507 87.632 30.8265 87.9707L31.7228 86.1829ZM46.7012 93.6923L31.7228 86.1829L30.8265 87.9707L45.8049 95.4802L46.7012 93.6923ZM62.2426 93.4293C60.1024 94.5022 60.0195 97.5267 62.0978 98.7153L63.0907 96.9791C62.398 96.583 62.4256 95.5748 63.139 95.2171L62.2426 93.4293ZM77.221 85.9198L62.2426 93.4293L63.139 95.2171L78.1174 87.7077L77.221 85.9198ZM81.5645 88.6838C81.6265 86.4171 79.2482 84.9035 77.221 85.9198L78.1174 87.7077C78.7931 87.369 79.5859 87.8735 79.5652 88.6291L81.5645 88.6838ZM81.1308 104.512L81.5645 88.6838L79.5652 88.6291L79.1316 104.457L81.1308 104.512ZM76.6426 107.034C78.611 108.159 81.0687 106.778 81.1308 104.512L79.1316 104.457C79.1109 105.212 78.2916 105.673 77.6355 105.297L76.6426 107.034ZM62.0978 98.7153L76.6426 107.034L77.6355 105.297L63.0907 96.9791L62.0978 98.7153Z" fill="#C0BEC6" mask="url(#path-1-inside-1_41580_197806)"/>
<path d="M94.1163 3.54399e-06H14.6952C14.1939 -0.000691177 13.6977 0.10076 13.237 0.29817C12.7762 0.49558 12.3605 0.784806 12.0152 1.14819C11.67 1.51158 11.4024 1.9415 11.2288 2.41173C11.0552 2.88195 10.9793 3.3826 11.0057 3.88313C11.0057 4.36757 11.1012 4.84727 11.2866 5.29484C11.472 5.7424 11.7437 6.14907 12.0863 6.49162C12.4289 6.83418 12.8357 7.10591 13.2833 7.29129C13.7309 7.47668 14.2107 7.5721 14.6952 7.5721H90.2327V52.2281C89.5662 61.273 85.5023 69.731 78.8569 75.904C72.2115 82.077 63.4765 85.5079 54.4058 85.5079C45.335 85.5079 36.6001 82.077 29.9547 75.904C23.3092 69.731 19.2453 61.273 18.5789 52.2281V26.7936H46.7355L34.3078 60.1885C34.1207 60.7652 34.0586 61.3751 34.1256 61.9777C34.1926 62.5803 34.3871 63.1617 34.6961 63.6833C35.0242 64.2133 35.4812 64.6515 36.0245 64.9571C36.5678 65.2626 37.1797 65.4256 37.8031 65.4307H55.8622C56.8922 65.4307 57.88 65.0216 58.6083 64.2933C59.3367 63.5651 59.7458 62.5774 59.7458 61.5476C59.7458 60.5177 59.3367 59.53 58.6083 58.8018C57.88 58.0735 56.8922 57.6644 55.8622 57.6644H43.4344L55.8622 24.2695C56.0662 23.6849 56.1198 23.0584 56.018 22.4476C55.9162 21.8369 55.6622 21.2616 55.2796 20.7747C54.9421 20.2675 54.4778 19.8573 53.9328 19.5849C53.3878 19.3124 52.781 19.1871 52.1727 19.2215H14.6952C14.2033 19.1933 13.711 19.2694 13.2506 19.4448C12.7902 19.6203 12.3721 19.891 12.0238 20.2394C11.6754 20.5877 11.4046 21.0057 11.2291 21.4661C11.0537 21.9264 10.9775 22.4186 11.0057 22.9104V23.2988V52.2281C10.9812 63.1551 15.0713 73.6909 22.4626 81.7398V109.31C22.4876 109.952 22.68 110.576 23.0206 111.121C23.3612 111.666 23.8382 112.113 24.4044 112.417C24.9746 112.81 25.6539 113.013 26.3462 112.999H28.0939L54.5029 100.379L80.9119 112.999H82.4653C83.2188 113.016 83.9609 112.814 84.6013 112.417C85.1446 112.103 85.5935 111.649 85.901 111.103C86.2085 110.556 86.3632 109.937 86.349 109.31V81.7398C93.7945 73.7102 97.9527 63.1776 98 52.2281V3.88313C98 2.85326 97.5908 1.86557 96.8625 1.13734C96.1342 0.409115 95.1463 3.54399e-06 94.1163 3.54399e-06ZM30.2299 88.3411C35.4788 91.7379 41.3553 94.0485 47.5123 95.1366L30.2299 103.291V88.3411ZM61.4935 95.1366C67.6313 93.9815 73.4952 91.6758 78.7758 88.3411V103.291L61.4935 95.1366Z" fill="#C0BEC6"/>
<path d="M70.5 48C74.0899 48 77 45.0899 77 41.5C77 37.9102 74.0899 35 70.5 35C66.9102 35 64 37.9102 64 41.5C64 45.0899 66.9102 48 70.5 48Z" fill="#C0BEC6"/>
</mask>
<g mask="url(#mask0_41580_197806)">
<rect y="-1" width="345" height="124" fill="url(#paint0_linear_41580_197806)"/>
<path d="M116.87 53.3V62.267L110.57 53.3H108.365V68H111.263V59.012L117.563 68H119.768V53.3H116.87ZM125.393 65.228V61.931H130.958V59.201H125.393V56.072H131.483V53.3H122.495V68H131.588V65.228H125.393ZM136.697 68H139.994L142.745 58.298L145.517 68H148.814L152.93 53.3H149.885L147.071 64.199L143.984 53.3H141.506L138.44 64.199L135.626 53.3H132.581L136.697 68ZM162.758 65.228V53.3H159.86V68H168.365V65.228H162.758ZM176.06 68.294C180.302 68.294 183.704 64.934 183.704 60.65C183.704 56.345 180.302 53.006 176.06 53.006C171.818 53.006 168.437 56.345 168.437 60.65C168.437 64.934 171.818 68.294 176.06 68.294ZM176.06 65.459C173.393 65.459 171.314 63.464 171.314 60.65C171.314 57.815 173.393 55.82 176.06 55.82C178.727 55.82 180.806 57.815 180.806 60.65C180.806 63.464 178.727 65.459 176.06 65.459ZM194.623 53.3H183.808V56.072H187.756V68H190.654V56.072H194.623V53.3ZM205.964 53.3H195.149V56.072H199.097V68H201.995V56.072H205.964V53.3ZM210.48 65.228V61.931H216.045V59.201H210.48V56.072H216.57V53.3H207.582V68H216.675V65.228H210.48ZM226.782 68H229.911L226.656 62.456C228.336 61.679 229.491 60.02 229.491 58.172C229.491 55.484 227.307 53.3 224.598 53.3H218.718V68H221.616V62.897H223.821L226.782 68ZM221.616 56.009H224.598C225.69 56.009 226.593 56.954 226.593 58.172C226.593 59.39 225.69 60.356 224.598 60.356H221.616V56.009ZM242.841 53.3H239.565L236.373 59.432L233.181 53.3H229.905L234.924 62.267V68H237.801V62.267L242.841 53.3Z" fill="#252831"/>
<path d="M111.438 91.126C111.009 91.126 110.589 91.0933 110.178 91.028C109.767 90.9627 109.38 90.8647 109.016 90.734C108.652 90.594 108.325 90.426 108.036 90.23C107.896 90.1273 107.798 90.0107 107.742 89.88C107.695 89.7493 107.681 89.6233 107.7 89.502C107.728 89.3713 107.784 89.2593 107.868 89.166C107.952 89.0727 108.055 89.0167 108.176 88.998C108.297 88.97 108.433 89.0073 108.582 89.11C109.002 89.3807 109.445 89.5813 109.912 89.712C110.379 89.8333 110.887 89.894 111.438 89.894C112.231 89.894 112.815 89.754 113.188 89.474C113.571 89.1847 113.762 88.8113 113.762 88.354C113.762 87.9807 113.627 87.6867 113.356 87.472C113.085 87.248 112.633 87.0707 111.998 86.94L110.5 86.632C109.613 86.4453 108.951 86.1373 108.512 85.708C108.083 85.2787 107.868 84.7 107.868 83.972C107.868 83.5333 107.957 83.132 108.134 82.768C108.321 82.404 108.577 82.0913 108.904 81.83C109.231 81.5593 109.623 81.354 110.08 81.214C110.537 81.074 111.037 81.004 111.578 81.004C112.157 81.004 112.698 81.0787 113.202 81.228C113.715 81.3773 114.173 81.606 114.574 81.914C114.695 81.998 114.775 82.1053 114.812 82.236C114.859 82.3573 114.868 82.4787 114.84 82.6C114.821 82.7213 114.77 82.824 114.686 82.908C114.602 82.992 114.495 83.0433 114.364 83.062C114.233 83.0713 114.089 83.0247 113.93 82.922C113.566 82.6793 113.193 82.5067 112.81 82.404C112.437 82.292 112.021 82.236 111.564 82.236C111.107 82.236 110.705 82.306 110.36 82.446C110.024 82.586 109.763 82.782 109.576 83.034C109.399 83.286 109.31 83.5847 109.31 83.93C109.31 84.322 109.436 84.6347 109.688 84.868C109.94 85.1013 110.36 85.2787 110.948 85.4L112.432 85.708C113.365 85.904 114.061 86.2073 114.518 86.618C114.975 87.0287 115.204 87.5747 115.204 88.256C115.204 88.6947 115.115 89.0913 114.938 89.446C114.761 89.7913 114.509 90.09 114.182 90.342C113.855 90.594 113.459 90.79 112.992 90.93C112.535 91.0607 112.017 91.126 111.438 91.126ZM117.403 93.618C117.179 93.618 117.006 93.5573 116.885 93.436C116.764 93.3147 116.703 93.1373 116.703 92.904V84.784C116.703 84.5507 116.764 84.3733 116.885 84.252C117.006 84.1307 117.174 84.07 117.389 84.07C117.613 84.07 117.786 84.1307 117.907 84.252C118.028 84.3733 118.089 84.5507 118.089 84.784V86.002L117.935 85.708C118.084 85.204 118.378 84.8027 118.817 84.504C119.256 84.196 119.774 84.042 120.371 84.042C120.978 84.042 121.505 84.1867 121.953 84.476C122.41 84.7653 122.76 85.1713 123.003 85.694C123.255 86.2167 123.381 86.8467 123.381 87.584C123.381 88.3027 123.255 88.9327 123.003 89.474C122.76 90.006 122.415 90.4167 121.967 90.706C121.519 90.986 120.987 91.126 120.371 91.126C119.783 91.126 119.27 90.9767 118.831 90.678C118.392 90.3793 118.098 89.9827 117.949 89.488H118.117V92.904C118.117 93.1373 118.052 93.3147 117.921 93.436C117.8 93.5573 117.627 93.618 117.403 93.618ZM120.021 90.034C120.413 90.034 120.754 89.9407 121.043 89.754C121.332 89.5673 121.556 89.292 121.715 88.928C121.874 88.564 121.953 88.116 121.953 87.584C121.953 86.7813 121.776 86.1747 121.421 85.764C121.076 85.3533 120.609 85.148 120.021 85.148C119.638 85.148 119.298 85.2413 118.999 85.428C118.71 85.6053 118.486 85.876 118.327 86.24C118.168 86.604 118.089 87.052 118.089 87.584C118.089 88.3773 118.266 88.984 118.621 89.404C118.976 89.824 119.442 90.034 120.021 90.034ZM125.674 91.084C125.45 91.084 125.278 91.0187 125.156 90.888C125.035 90.748 124.974 90.5567 124.974 90.314V84.854C124.974 84.6113 125.035 84.4247 125.156 84.294C125.278 84.1633 125.45 84.098 125.674 84.098C125.898 84.098 126.071 84.1633 126.192 84.294C126.323 84.4247 126.388 84.6113 126.388 84.854V90.314C126.388 90.5567 126.328 90.748 126.206 90.888C126.085 91.0187 125.908 91.084 125.674 91.084ZM125.674 82.642C125.394 82.642 125.175 82.572 125.016 82.432C124.867 82.292 124.792 82.096 124.792 81.844C124.792 81.5827 124.867 81.3867 125.016 81.256C125.175 81.116 125.394 81.046 125.674 81.046C125.954 81.046 126.169 81.116 126.318 81.256C126.477 81.3867 126.556 81.5827 126.556 81.844C126.556 82.096 126.477 82.292 126.318 82.432C126.169 82.572 125.954 82.642 125.674 82.642ZM129.079 91.098C128.855 91.098 128.682 91.0373 128.561 90.916C128.439 90.7853 128.379 90.608 128.379 90.384V84.784C128.379 84.5507 128.439 84.3733 128.561 84.252C128.682 84.1307 128.85 84.07 129.065 84.07C129.289 84.07 129.457 84.1307 129.569 84.252C129.69 84.3733 129.751 84.5507 129.751 84.784V85.876L129.597 85.624C129.802 85.1013 130.124 84.7093 130.563 84.448C131.001 84.1773 131.505 84.042 132.075 84.042C132.616 84.042 133.064 84.1447 133.419 84.35C133.783 84.546 134.053 84.8493 134.231 85.26C134.408 85.6613 134.497 86.17 134.497 86.786V90.384C134.497 90.608 134.436 90.7853 134.315 90.916C134.193 91.0373 134.021 91.098 133.797 91.098C133.563 91.098 133.386 91.0373 133.265 90.916C133.143 90.7853 133.083 90.608 133.083 90.384V86.87C133.083 86.282 132.966 85.8527 132.733 85.582C132.509 85.3113 132.154 85.176 131.669 85.176C131.099 85.176 130.642 85.3533 130.297 85.708C129.961 86.0627 129.793 86.5387 129.793 87.136V90.384C129.793 90.86 129.555 91.098 129.079 91.098ZM143.049 91.126C142.489 91.126 142.017 91.028 141.635 90.832C141.252 90.636 140.967 90.3467 140.781 89.964C140.594 89.5813 140.501 89.1147 140.501 88.564V85.26H139.661C139.474 85.26 139.329 85.2133 139.227 85.12C139.124 85.0173 139.073 84.882 139.073 84.714C139.073 84.5367 139.124 84.4013 139.227 84.308C139.329 84.2147 139.474 84.168 139.661 84.168H140.501V82.726C140.501 82.4927 140.561 82.3153 140.683 82.194C140.813 82.0727 140.991 82.012 141.215 82.012C141.439 82.012 141.611 82.0727 141.733 82.194C141.854 82.3153 141.915 82.4927 141.915 82.726V84.168H143.553C143.739 84.168 143.884 84.2147 143.987 84.308C144.089 84.4013 144.141 84.5367 144.141 84.714C144.141 84.882 144.089 85.0173 143.987 85.12C143.884 85.2133 143.739 85.26 143.553 85.26H141.915V88.452C141.915 88.9467 142.017 89.32 142.223 89.572C142.437 89.824 142.783 89.95 143.259 89.95C143.427 89.95 143.571 89.936 143.693 89.908C143.823 89.8707 143.931 89.8473 144.015 89.838C144.117 89.838 144.201 89.8753 144.267 89.95C144.332 90.0153 144.365 90.146 144.365 90.342C144.365 90.482 144.337 90.6127 144.281 90.734C144.234 90.8553 144.145 90.9347 144.015 90.972C143.903 91.0093 143.749 91.042 143.553 91.07C143.366 91.1073 143.198 91.126 143.049 91.126ZM148.15 91.126C147.459 91.126 146.862 90.9813 146.358 90.692C145.863 90.4027 145.476 89.992 145.196 89.46C144.916 88.928 144.776 88.3027 144.776 87.584C144.776 87.0333 144.855 86.5433 145.014 86.114C145.172 85.6847 145.396 85.316 145.686 85.008C145.984 84.6907 146.339 84.4527 146.75 84.294C147.17 84.126 147.636 84.042 148.15 84.042C148.831 84.042 149.419 84.1867 149.914 84.476C150.418 84.7653 150.81 85.176 151.09 85.708C151.37 86.2307 151.51 86.856 151.51 87.584C151.51 88.1253 151.43 88.6153 151.272 89.054C151.113 89.4927 150.884 89.866 150.586 90.174C150.296 90.482 149.942 90.72 149.522 90.888C149.111 91.0467 148.654 91.126 148.15 91.126ZM148.15 90.034C148.532 90.034 148.868 89.9407 149.158 89.754C149.447 89.5673 149.671 89.292 149.83 88.928C149.998 88.564 150.082 88.116 150.082 87.584C150.082 86.7813 149.904 86.1747 149.55 85.764C149.195 85.3533 148.728 85.148 148.15 85.148C147.758 85.148 147.417 85.2413 147.128 85.428C146.838 85.6053 146.61 85.876 146.442 86.24C146.283 86.604 146.204 87.052 146.204 87.584C146.204 88.3773 146.381 88.984 146.736 89.404C147.09 89.824 147.562 90.034 148.15 90.034ZM159.393 91.126C158.796 91.126 158.268 90.986 157.811 90.706C157.363 90.4167 157.013 90.006 156.761 89.474C156.509 88.9327 156.383 88.3027 156.383 87.584C156.383 86.8467 156.509 86.2167 156.761 85.694C157.013 85.1713 157.363 84.7653 157.811 84.476C158.268 84.1867 158.796 84.042 159.393 84.042C159.99 84.042 160.504 84.1913 160.933 84.49C161.372 84.7793 161.666 85.1713 161.815 85.666H161.661V81.746C161.661 81.5127 161.722 81.3353 161.843 81.214C161.964 81.0927 162.137 81.032 162.361 81.032C162.585 81.032 162.758 81.0927 162.879 81.214C163.01 81.3353 163.075 81.5127 163.075 81.746V90.384C163.075 90.608 163.014 90.7853 162.893 90.916C162.772 91.0373 162.599 91.098 162.375 91.098C162.151 91.098 161.978 91.0373 161.857 90.916C161.736 90.7853 161.675 90.608 161.675 90.384V89.152L161.829 89.46C161.68 89.964 161.386 90.37 160.947 90.678C160.518 90.9767 160 91.126 159.393 91.126ZM159.757 90.034C160.14 90.034 160.476 89.9407 160.765 89.754C161.054 89.5673 161.278 89.292 161.437 88.928C161.605 88.564 161.689 88.116 161.689 87.584C161.689 86.7813 161.512 86.1747 161.157 85.764C160.802 85.3533 160.336 85.148 159.757 85.148C159.365 85.148 159.024 85.2413 158.735 85.428C158.446 85.6053 158.217 85.876 158.049 86.24C157.89 86.604 157.811 87.052 157.811 87.584C157.811 88.3773 157.988 88.984 158.343 89.404C158.698 89.824 159.169 90.034 159.757 90.034ZM165.76 91.084C165.536 91.084 165.364 91.0187 165.242 90.888C165.121 90.748 165.06 90.5567 165.06 90.314V84.854C165.06 84.6113 165.121 84.4247 165.242 84.294C165.364 84.1633 165.536 84.098 165.76 84.098C165.984 84.098 166.157 84.1633 166.278 84.294C166.409 84.4247 166.474 84.6113 166.474 84.854V90.314C166.474 90.5567 166.414 90.748 166.292 90.888C166.171 91.0187 165.994 91.084 165.76 91.084ZM165.76 82.642C165.48 82.642 165.261 82.572 165.102 82.432C164.953 82.292 164.878 82.096 164.878 81.844C164.878 81.5827 164.953 81.3867 165.102 81.256C165.261 81.116 165.48 81.046 165.76 81.046C166.04 81.046 166.255 81.116 166.404 81.256C166.563 81.3867 166.642 81.5827 166.642 81.844C166.642 82.096 166.563 82.292 166.404 82.432C166.255 82.572 166.04 82.642 165.76 82.642ZM170.859 91.126C170.448 91.126 170.023 91.0793 169.585 90.986C169.155 90.8927 168.759 90.734 168.395 90.51C168.273 90.426 168.189 90.3327 168.143 90.23C168.096 90.1273 168.077 90.0247 168.087 89.922C168.105 89.81 168.147 89.7167 168.213 89.642C168.287 89.558 168.376 89.5067 168.479 89.488C168.591 89.4693 168.707 89.4927 168.829 89.558C169.193 89.7633 169.543 89.908 169.879 89.992C170.215 90.0667 170.546 90.104 170.873 90.104C171.367 90.104 171.741 90.0153 171.993 89.838C172.245 89.6607 172.371 89.4227 172.371 89.124C172.371 88.8813 172.287 88.6947 172.119 88.564C171.951 88.424 171.699 88.3167 171.363 88.242L170.033 87.976C169.454 87.8547 169.015 87.64 168.717 87.332C168.418 87.024 168.269 86.632 168.269 86.156C168.269 85.7267 168.385 85.3533 168.619 85.036C168.852 84.7187 169.179 84.476 169.599 84.308C170.019 84.1307 170.504 84.042 171.055 84.042C171.465 84.042 171.853 84.0933 172.217 84.196C172.581 84.2987 172.917 84.4527 173.225 84.658C173.346 84.7233 173.425 84.812 173.463 84.924C173.5 85.0267 173.505 85.1293 173.477 85.232C173.458 85.3347 173.411 85.428 173.337 85.512C173.262 85.5867 173.169 85.6333 173.057 85.652C172.954 85.6613 172.837 85.6333 172.707 85.568C172.427 85.3907 172.147 85.2647 171.867 85.19C171.596 85.1153 171.325 85.078 171.055 85.078C170.56 85.078 170.187 85.1713 169.935 85.358C169.692 85.5353 169.571 85.778 169.571 86.086C169.571 86.3193 169.645 86.5107 169.795 86.66C169.944 86.8093 170.177 86.9167 170.495 86.982L171.825 87.248C172.431 87.3693 172.889 87.5747 173.197 87.864C173.514 88.1533 173.673 88.5453 173.673 89.04C173.673 89.684 173.416 90.1927 172.903 90.566C172.389 90.9393 171.708 91.126 170.859 91.126ZM178.256 91.126C177.556 91.126 176.949 90.9813 176.436 90.692C175.932 90.3933 175.54 89.978 175.26 89.446C174.98 88.9047 174.84 88.27 174.84 87.542C174.84 87.0007 174.919 86.5153 175.078 86.086C175.237 85.6473 175.461 85.2787 175.75 84.98C176.049 84.6813 176.408 84.4527 176.828 84.294C177.257 84.126 177.733 84.042 178.256 84.042C178.583 84.042 178.923 84.0933 179.278 84.196C179.642 84.2893 179.978 84.448 180.286 84.672C180.407 84.7467 180.482 84.84 180.51 84.952C180.547 85.0547 180.552 85.162 180.524 85.274C180.505 85.386 180.454 85.484 180.37 85.568C180.295 85.6427 180.202 85.6893 180.09 85.708C179.978 85.7173 179.857 85.6847 179.726 85.61C179.502 85.4513 179.273 85.3393 179.04 85.274C178.807 85.1993 178.583 85.162 178.368 85.162C178.032 85.162 177.733 85.218 177.472 85.33C177.22 85.4327 177.005 85.5867 176.828 85.792C176.651 85.988 176.515 86.2353 176.422 86.534C176.338 86.8327 176.296 87.1733 176.296 87.556C176.296 88.3213 176.473 88.9233 176.828 89.362C177.192 89.7913 177.705 90.006 178.368 90.006C178.583 90.006 178.807 89.9733 179.04 89.908C179.273 89.8427 179.502 89.7307 179.726 89.572C179.857 89.4973 179.978 89.4693 180.09 89.488C180.202 89.5067 180.291 89.558 180.356 89.642C180.431 89.7167 180.477 89.81 180.496 89.922C180.524 90.0247 180.519 90.132 180.482 90.244C180.445 90.356 180.365 90.4493 180.244 90.524C179.945 90.7387 179.619 90.8927 179.264 90.986C178.919 91.0793 178.583 91.126 178.256 91.126ZM184.612 91.126C183.922 91.126 183.324 90.9813 182.82 90.692C182.326 90.4027 181.938 89.992 181.658 89.46C181.378 88.928 181.238 88.3027 181.238 87.584C181.238 87.0333 181.318 86.5433 181.476 86.114C181.635 85.6847 181.859 85.316 182.148 85.008C182.447 84.6907 182.802 84.4527 183.212 84.294C183.632 84.126 184.099 84.042 184.612 84.042C185.294 84.042 185.882 84.1867 186.376 84.476C186.88 84.7653 187.272 85.176 187.552 85.708C187.832 86.2307 187.972 86.856 187.972 87.584C187.972 88.1253 187.893 88.6153 187.734 89.054C187.576 89.4927 187.347 89.866 187.048 90.174C186.759 90.482 186.404 90.72 185.984 90.888C185.574 91.0467 185.116 91.126 184.612 91.126ZM184.612 90.034C184.995 90.034 185.331 89.9407 185.62 89.754C185.91 89.5673 186.134 89.292 186.292 88.928C186.46 88.564 186.544 88.116 186.544 87.584C186.544 86.7813 186.367 86.1747 186.012 85.764C185.658 85.3533 185.191 85.148 184.612 85.148C184.22 85.148 183.88 85.2413 183.59 85.428C183.301 85.6053 183.072 85.876 182.904 86.24C182.746 86.604 182.666 87.052 182.666 87.584C182.666 88.3773 182.844 88.984 183.198 89.404C183.553 89.824 184.024 90.034 184.612 90.034ZM192.083 91.098C191.887 91.098 191.715 91.0467 191.565 90.944C191.425 90.8413 191.309 90.6827 191.215 90.468L188.877 85.036C188.803 84.868 188.775 84.7093 188.793 84.56C188.812 84.4107 188.882 84.294 189.003 84.21C189.125 84.1167 189.288 84.07 189.493 84.07C189.671 84.07 189.811 84.112 189.913 84.196C190.016 84.28 190.109 84.4247 190.193 84.63L192.307 89.838H191.915L194.071 84.63C194.155 84.4247 194.249 84.28 194.351 84.196C194.463 84.112 194.617 84.07 194.813 84.07C194.981 84.07 195.112 84.1167 195.205 84.21C195.308 84.294 195.369 84.4107 195.387 84.56C195.415 84.7 195.392 84.854 195.317 85.022L192.951 90.468C192.867 90.6827 192.751 90.8413 192.601 90.944C192.452 91.0467 192.279 91.098 192.083 91.098ZM199.794 91.126C199.047 91.126 198.403 90.986 197.862 90.706C197.33 90.4167 196.914 90.0107 196.616 89.488C196.326 88.956 196.182 88.326 196.182 87.598C196.182 86.8887 196.326 86.268 196.616 85.736C196.905 85.204 197.302 84.7887 197.806 84.49C198.31 84.1913 198.884 84.042 199.528 84.042C200.004 84.042 200.428 84.1213 200.802 84.28C201.175 84.4293 201.492 84.6533 201.754 84.952C202.024 85.2413 202.225 85.596 202.356 86.016C202.496 86.436 202.566 86.9073 202.566 87.43C202.566 87.5887 202.519 87.71 202.426 87.794C202.332 87.8687 202.192 87.906 202.006 87.906H197.302V87.038H201.614L201.376 87.234C201.376 86.7673 201.306 86.3707 201.166 86.044C201.035 85.7173 200.834 85.47 200.564 85.302C200.302 85.1247 199.976 85.036 199.584 85.036C199.145 85.036 198.772 85.1387 198.464 85.344C198.165 85.5493 197.936 85.834 197.778 86.198C197.619 86.562 197.54 86.9867 197.54 87.472V87.556C197.54 88.3773 197.731 88.998 198.114 89.418C198.506 89.8287 199.07 90.034 199.808 90.034C200.088 90.034 200.382 89.9967 200.69 89.922C201.007 89.8473 201.306 89.7213 201.586 89.544C201.744 89.4507 201.884 89.4087 202.006 89.418C202.136 89.4273 202.239 89.4693 202.314 89.544C202.398 89.6187 202.449 89.712 202.468 89.824C202.486 89.936 202.468 90.0527 202.412 90.174C202.356 90.286 202.258 90.3887 202.118 90.482C201.8 90.6967 201.432 90.86 201.012 90.972C200.592 91.0747 200.186 91.126 199.794 91.126ZM204.821 91.098C204.588 91.098 204.411 91.0373 204.289 90.916C204.168 90.7853 204.107 90.608 204.107 90.384V84.784C204.107 84.5507 204.168 84.3733 204.289 84.252C204.411 84.1307 204.579 84.07 204.793 84.07C205.017 84.07 205.185 84.1307 205.297 84.252C205.419 84.3733 205.479 84.5507 205.479 84.784V85.806H205.339C205.489 85.246 205.764 84.8213 206.165 84.532C206.567 84.2427 207.08 84.0747 207.705 84.028C207.873 84.0187 208.004 84.0607 208.097 84.154C208.2 84.2473 208.256 84.392 208.265 84.588C208.284 84.784 208.242 84.9427 208.139 85.064C208.037 85.176 207.878 85.2413 207.663 85.26L207.397 85.288C206.791 85.344 206.329 85.5353 206.011 85.862C205.694 86.1887 205.535 86.6367 205.535 87.206V90.384C205.535 90.608 205.475 90.7853 205.353 90.916C205.241 91.0373 205.064 91.098 204.821 91.098ZM215.933 91.126C215.373 91.126 214.902 91.028 214.519 90.832C214.137 90.636 213.852 90.3467 213.665 89.964C213.479 89.5813 213.385 89.1147 213.385 88.564V85.26H212.545C212.359 85.26 212.214 85.2133 212.111 85.12C212.009 85.0173 211.957 84.882 211.957 84.714C211.957 84.5367 212.009 84.4013 212.111 84.308C212.214 84.2147 212.359 84.168 212.545 84.168H213.385V82.726C213.385 82.4927 213.446 82.3153 213.567 82.194C213.698 82.0727 213.875 82.012 214.099 82.012C214.323 82.012 214.496 82.0727 214.617 82.194C214.739 82.3153 214.799 82.4927 214.799 82.726V84.168H216.437C216.624 84.168 216.769 84.2147 216.871 84.308C216.974 84.4013 217.025 84.5367 217.025 84.714C217.025 84.882 216.974 85.0173 216.871 85.12C216.769 85.2133 216.624 85.26 216.437 85.26H214.799V88.452C214.799 88.9467 214.902 89.32 215.107 89.572C215.322 89.824 215.667 89.95 216.143 89.95C216.311 89.95 216.456 89.936 216.577 89.908C216.708 89.8707 216.815 89.8473 216.899 89.838C217.002 89.838 217.086 89.8753 217.151 89.95C217.217 90.0153 217.249 90.146 217.249 90.342C217.249 90.482 217.221 90.6127 217.165 90.734C217.119 90.8553 217.03 90.9347 216.899 90.972C216.787 91.0093 216.633 91.042 216.437 91.07C216.251 91.1073 216.083 91.126 215.933 91.126ZM218.958 91.098C218.734 91.098 218.561 91.0373 218.44 90.916C218.318 90.7853 218.258 90.608 218.258 90.384V81.746C218.258 81.5127 218.318 81.3353 218.44 81.214C218.561 81.0927 218.734 81.032 218.958 81.032C219.182 81.032 219.354 81.0927 219.476 81.214C219.606 81.3353 219.672 81.5127 219.672 81.746V85.624H219.476C219.681 85.1013 220.003 84.7093 220.442 84.448C220.88 84.1773 221.384 84.042 221.954 84.042C222.495 84.042 222.943 84.1447 223.298 84.35C223.662 84.546 223.932 84.8493 224.11 85.26C224.287 85.6613 224.376 86.17 224.376 86.786V90.384C224.376 90.608 224.315 90.7853 224.194 90.916C224.072 91.0373 223.9 91.098 223.676 91.098C223.442 91.098 223.265 91.0373 223.144 90.916C223.022 90.7853 222.962 90.608 222.962 90.384V86.87C222.962 86.282 222.845 85.8527 222.612 85.582C222.388 85.3113 222.033 85.176 221.548 85.176C220.978 85.176 220.521 85.3533 220.176 85.708C219.84 86.0627 219.672 86.5387 219.672 87.136V90.384C219.672 90.86 219.434 91.098 218.958 91.098ZM229.53 91.126C228.783 91.126 228.139 90.986 227.598 90.706C227.066 90.4167 226.651 90.0107 226.352 89.488C226.063 88.956 225.918 88.326 225.918 87.598C225.918 86.8887 226.063 86.268 226.352 85.736C226.641 85.204 227.038 84.7887 227.542 84.49C228.046 84.1913 228.62 84.042 229.264 84.042C229.74 84.042 230.165 84.1213 230.538 84.28C230.911 84.4293 231.229 84.6533 231.49 84.952C231.761 85.2413 231.961 85.596 232.092 86.016C232.232 86.436 232.302 86.9073 232.302 87.43C232.302 87.5887 232.255 87.71 232.162 87.794C232.069 87.8687 231.929 87.906 231.742 87.906H227.038V87.038H231.35L231.112 87.234C231.112 86.7673 231.042 86.3707 230.902 86.044C230.771 85.7173 230.571 85.47 230.3 85.302C230.039 85.1247 229.712 85.036 229.32 85.036C228.881 85.036 228.508 85.1387 228.2 85.344C227.901 85.5493 227.673 85.834 227.514 86.198C227.355 86.562 227.276 86.9867 227.276 87.472V87.556C227.276 88.3773 227.467 88.998 227.85 89.418C228.242 89.8287 228.807 90.034 229.544 90.034C229.824 90.034 230.118 89.9967 230.426 89.922C230.743 89.8473 231.042 89.7213 231.322 89.544C231.481 89.4507 231.621 89.4087 231.742 89.418C231.873 89.4273 231.975 89.4693 232.05 89.544C232.134 89.6187 232.185 89.712 232.204 89.824C232.223 89.936 232.204 90.0527 232.148 90.174C232.092 90.286 231.994 90.3887 231.854 90.482C231.537 90.6967 231.168 90.86 230.748 90.972C230.328 91.0747 229.922 91.126 229.53 91.126ZM240.629 93.646C240.125 93.646 239.635 93.5947 239.159 93.492C238.692 93.3893 238.268 93.2213 237.885 92.988C237.745 92.9133 237.652 92.82 237.605 92.708C237.558 92.6053 237.544 92.498 237.563 92.386C237.591 92.274 237.642 92.176 237.717 92.092C237.792 92.008 237.88 91.952 237.983 91.924C238.095 91.896 238.212 91.9147 238.333 91.98C238.744 92.204 239.131 92.3533 239.495 92.428C239.868 92.512 240.214 92.554 240.531 92.554C241.184 92.554 241.674 92.386 242.001 92.05C242.328 91.7233 242.491 91.238 242.491 90.594V89.166H242.617C242.477 89.6793 242.183 90.0853 241.735 90.384C241.287 90.6827 240.769 90.832 240.181 90.832C239.565 90.832 239.028 90.692 238.571 90.412C238.114 90.1227 237.759 89.726 237.507 89.222C237.255 88.7087 237.129 88.1113 237.129 87.43C237.129 86.9167 237.199 86.4547 237.339 86.044C237.488 85.6333 237.694 85.2787 237.955 84.98C238.226 84.6813 238.548 84.4527 238.921 84.294C239.304 84.126 239.724 84.042 240.181 84.042C240.778 84.042 241.296 84.1913 241.735 84.49C242.183 84.7887 242.472 85.1947 242.603 85.708L242.463 85.946V84.784C242.463 84.5507 242.524 84.3733 242.645 84.252C242.776 84.1307 242.948 84.07 243.163 84.07C243.387 84.07 243.56 84.1307 243.681 84.252C243.802 84.3733 243.863 84.5507 243.863 84.784V90.426C243.863 91.49 243.588 92.2927 243.037 92.834C242.486 93.3753 241.684 93.646 240.629 93.646ZM240.517 89.726C240.928 89.726 241.278 89.6327 241.567 89.446C241.856 89.2593 242.08 88.9933 242.239 88.648C242.398 88.3027 242.477 87.8967 242.477 87.43C242.477 86.73 242.3 86.1747 241.945 85.764C241.6 85.3533 241.124 85.148 240.517 85.148C240.116 85.148 239.77 85.2413 239.481 85.428C239.192 85.6147 238.963 85.8807 238.795 86.226C238.636 86.562 238.557 86.9633 238.557 87.43C238.557 88.1393 238.734 88.6993 239.089 89.11C239.444 89.5207 239.92 89.726 240.517 89.726ZM246.562 91.098C246.328 91.098 246.151 91.0373 246.03 90.916C245.908 90.7853 245.848 90.608 245.848 90.384V84.784C245.848 84.5507 245.908 84.3733 246.03 84.252C246.151 84.1307 246.319 84.07 246.534 84.07C246.758 84.07 246.926 84.1307 247.038 84.252C247.159 84.3733 247.22 84.5507 247.22 84.784V85.806H247.08C247.229 85.246 247.504 84.8213 247.906 84.532C248.307 84.2427 248.82 84.0747 249.446 84.028C249.614 84.0187 249.744 84.0607 249.838 84.154C249.94 84.2473 249.996 84.392 250.006 84.588C250.024 84.784 249.982 84.9427 249.88 85.064C249.777 85.176 249.618 85.2413 249.404 85.26L249.138 85.288C248.531 85.344 248.069 85.5353 247.752 85.862C247.434 86.1887 247.276 86.6367 247.276 87.206V90.384C247.276 90.608 247.215 90.7853 247.094 90.916C246.982 91.0373 246.804 91.098 246.562 91.098ZM254.18 91.126C253.434 91.126 252.79 90.986 252.248 90.706C251.716 90.4167 251.301 90.0107 251.002 89.488C250.713 88.956 250.568 88.326 250.568 87.598C250.568 86.8887 250.713 86.268 251.002 85.736C251.292 85.204 251.688 84.7887 252.192 84.49C252.696 84.1913 253.27 84.042 253.914 84.042C254.39 84.042 254.815 84.1213 255.188 84.28C255.562 84.4293 255.879 84.6533 256.14 84.952C256.411 85.2413 256.612 85.596 256.742 86.016C256.882 86.436 256.952 86.9073 256.952 87.43C256.952 87.5887 256.906 87.71 256.812 87.794C256.719 87.8687 256.579 87.906 256.392 87.906H251.688V87.038H256L255.762 87.234C255.762 86.7673 255.692 86.3707 255.552 86.044C255.422 85.7173 255.221 85.47 254.95 85.302C254.689 85.1247 254.362 85.036 253.97 85.036C253.532 85.036 253.158 85.1387 252.85 85.344C252.552 85.5493 252.323 85.834 252.164 86.198C252.006 86.562 251.926 86.9867 251.926 87.472V87.556C251.926 88.3773 252.118 88.998 252.5 89.418C252.892 89.8287 253.457 90.034 254.194 90.034C254.474 90.034 254.768 89.9967 255.076 89.922C255.394 89.8473 255.692 89.7213 255.972 89.544C256.131 89.4507 256.271 89.4087 256.392 89.418C256.523 89.4273 256.626 89.4693 256.7 89.544C256.784 89.6187 256.836 89.712 256.854 89.824C256.873 89.936 256.854 90.0527 256.798 90.174C256.742 90.286 256.644 90.3887 256.504 90.482C256.187 90.6967 255.818 90.86 255.398 90.972C254.978 91.0747 254.572 91.126 254.18 91.126ZM260.678 91.126C260.202 91.126 259.773 91.0327 259.39 90.846C259.017 90.6593 258.723 90.4073 258.508 90.09C258.293 89.7727 258.186 89.4133 258.186 89.012C258.186 88.508 258.312 88.1113 258.564 87.822C258.825 87.5233 259.25 87.3133 259.838 87.192C260.435 87.0613 261.238 86.996 262.246 86.996H262.904V87.864H262.26C261.588 87.864 261.056 87.8967 260.664 87.962C260.272 88.0273 259.992 88.1393 259.824 88.298C259.665 88.4473 259.586 88.6573 259.586 88.928C259.586 89.2827 259.707 89.572 259.95 89.796C260.193 90.0107 260.529 90.118 260.958 90.118C261.303 90.118 261.607 90.0387 261.868 89.88C262.129 89.712 262.335 89.488 262.484 89.208C262.643 88.928 262.722 88.606 262.722 88.242V86.632C262.722 86.1 262.61 85.7173 262.386 85.484C262.162 85.2507 261.793 85.134 261.28 85.134C260.981 85.134 260.669 85.1713 260.342 85.246C260.025 85.3207 259.693 85.4467 259.348 85.624C259.189 85.6987 259.054 85.722 258.942 85.694C258.83 85.666 258.741 85.6053 258.676 85.512C258.611 85.4093 258.573 85.302 258.564 85.19C258.564 85.0687 258.592 84.952 258.648 84.84C258.713 84.728 258.821 84.644 258.97 84.588C259.381 84.392 259.787 84.252 260.188 84.168C260.589 84.084 260.967 84.042 261.322 84.042C261.947 84.042 262.461 84.14 262.862 84.336C263.273 84.532 263.576 84.8307 263.772 85.232C263.968 85.6333 264.066 86.1513 264.066 86.786V90.384C264.066 90.608 264.01 90.7853 263.898 90.916C263.786 91.0373 263.623 91.098 263.408 91.098C263.203 91.098 263.039 91.0373 262.918 90.916C262.797 90.7853 262.736 90.608 262.736 90.384V89.474H262.862C262.787 89.8193 262.647 90.118 262.442 90.37C262.246 90.6127 261.999 90.7993 261.7 90.93C261.401 91.0607 261.061 91.126 260.678 91.126ZM268.926 91.126C268.366 91.126 267.894 91.028 267.512 90.832C267.129 90.636 266.844 90.3467 266.658 89.964C266.471 89.5813 266.378 89.1147 266.378 88.564V85.26H265.538C265.351 85.26 265.206 85.2133 265.104 85.12C265.001 85.0173 264.95 84.882 264.95 84.714C264.95 84.5367 265.001 84.4013 265.104 84.308C265.206 84.2147 265.351 84.168 265.538 84.168H266.378V82.726C266.378 82.4927 266.438 82.3153 266.56 82.194C266.69 82.0727 266.868 82.012 267.092 82.012C267.316 82.012 267.488 82.0727 267.61 82.194C267.731 82.3153 267.792 82.4927 267.792 82.726V84.168H269.43C269.616 84.168 269.761 84.2147 269.864 84.308C269.966 84.4013 270.018 84.5367 270.018 84.714C270.018 84.882 269.966 85.0173 269.864 85.12C269.761 85.2133 269.616 85.26 269.43 85.26H267.792V88.452C267.792 88.9467 267.894 89.32 268.1 89.572C268.314 89.824 268.66 89.95 269.136 89.95C269.304 89.95 269.448 89.936 269.57 89.908C269.7 89.8707 269.808 89.8473 269.892 89.838C269.994 89.838 270.078 89.8753 270.144 89.95C270.209 90.0153 270.242 90.146 270.242 90.342C270.242 90.482 270.214 90.6127 270.158 90.734C270.111 90.8553 270.022 90.9347 269.892 90.972C269.78 91.0093 269.626 91.042 269.43 91.07C269.243 91.1073 269.075 91.126 268.926 91.126ZM277.31 91.098C277.114 91.098 276.942 91.0513 276.792 90.958C276.652 90.8553 276.54 90.6967 276.456 90.482L274.398 85.036C274.324 84.8493 274.3 84.686 274.328 84.546C274.356 84.3967 274.426 84.28 274.538 84.196C274.66 84.112 274.814 84.07 275 84.07C275.168 84.07 275.304 84.112 275.406 84.196C275.518 84.2707 275.612 84.42 275.686 84.644L277.52 89.81H277.184L279.088 84.588C279.154 84.4107 279.242 84.28 279.354 84.196C279.466 84.112 279.611 84.07 279.788 84.07C279.966 84.07 280.11 84.112 280.222 84.196C280.344 84.28 280.432 84.4107 280.488 84.588L282.35 89.81H282.042L283.904 84.616C283.979 84.4013 284.072 84.2567 284.184 84.182C284.306 84.1073 284.441 84.07 284.59 84.07C284.777 84.07 284.917 84.1167 285.01 84.21C285.113 84.3033 285.169 84.4247 285.178 84.574C285.197 84.714 285.174 84.868 285.108 85.036L283.05 90.482C282.966 90.6873 282.85 90.8413 282.7 90.944C282.56 91.0467 282.397 91.098 282.21 91.098C282.014 91.098 281.842 91.0467 281.692 90.944C281.552 90.8413 281.44 90.6873 281.356 90.482L279.396 85.176H280.096L278.15 90.482C278.076 90.6873 277.964 90.8413 277.814 90.944C277.674 91.0467 277.506 91.098 277.31 91.098ZM287.358 91.084C287.134 91.084 286.961 91.0187 286.84 90.888C286.719 90.748 286.658 90.5567 286.658 90.314V84.854C286.658 84.6113 286.719 84.4247 286.84 84.294C286.961 84.1633 287.134 84.098 287.358 84.098C287.582 84.098 287.755 84.1633 287.876 84.294C288.007 84.4247 288.072 84.6113 288.072 84.854V90.314C288.072 90.5567 288.011 90.748 287.89 90.888C287.769 91.0187 287.591 91.084 287.358 91.084ZM287.358 82.642C287.078 82.642 286.859 82.572 286.7 82.432C286.551 82.292 286.476 82.096 286.476 81.844C286.476 81.5827 286.551 81.3867 286.7 81.256C286.859 81.116 287.078 81.046 287.358 81.046C287.638 81.046 287.853 81.116 288.002 81.256C288.161 81.3867 288.24 81.5827 288.24 81.844C288.24 82.096 288.161 82.292 288.002 82.432C287.853 82.572 287.638 82.642 287.358 82.642ZM290.762 91.098C290.538 91.098 290.366 91.0373 290.244 90.916C290.123 90.7853 290.062 90.608 290.062 90.384V84.784C290.062 84.5507 290.123 84.3733 290.244 84.252C290.366 84.1307 290.534 84.07 290.748 84.07C290.972 84.07 291.14 84.1307 291.252 84.252C291.374 84.3733 291.434 84.5507 291.434 84.784V85.876L291.28 85.624C291.486 85.1013 291.808 84.7093 292.246 84.448C292.685 84.1773 293.189 84.042 293.758 84.042C294.3 84.042 294.748 84.1447 295.102 84.35C295.466 84.546 295.737 84.8493 295.914 85.26C296.092 85.6613 296.18 86.17 296.18 86.786V90.384C296.18 90.608 296.12 90.7853 295.998 90.916C295.877 91.0373 295.704 91.098 295.48 91.098C295.247 91.098 295.07 91.0373 294.948 90.916C294.827 90.7853 294.766 90.608 294.766 90.384V86.87C294.766 86.282 294.65 85.8527 294.416 85.582C294.192 85.3113 293.838 85.176 293.352 85.176C292.783 85.176 292.326 85.3533 291.98 85.708C291.644 86.0627 291.476 86.5387 291.476 87.136V90.384C291.476 90.86 291.238 91.098 290.762 91.098ZM298.829 91.098C298.605 91.098 298.432 91.0373 298.311 90.916C298.189 90.7853 298.129 90.608 298.129 90.384V84.784C298.129 84.5507 298.189 84.3733 298.311 84.252C298.432 84.1307 298.6 84.07 298.815 84.07C299.039 84.07 299.207 84.1307 299.319 84.252C299.44 84.3733 299.501 84.5507 299.501 84.784V85.876L299.347 85.624C299.552 85.1013 299.874 84.7093 300.313 84.448C300.751 84.1773 301.255 84.042 301.825 84.042C302.366 84.042 302.814 84.1447 303.169 84.35C303.533 84.546 303.803 84.8493 303.981 85.26C304.158 85.6613 304.247 86.17 304.247 86.786V90.384C304.247 90.608 304.186 90.7853 304.065 90.916C303.943 91.0373 303.771 91.098 303.547 91.098C303.313 91.098 303.136 91.0373 303.015 90.916C302.893 90.7853 302.833 90.608 302.833 90.384V86.87C302.833 86.282 302.716 85.8527 302.483 85.582C302.259 85.3113 301.904 85.176 301.419 85.176C300.849 85.176 300.392 85.3533 300.047 85.708C299.711 86.0627 299.543 86.5387 299.543 87.136V90.384C299.543 90.86 299.305 91.098 298.829 91.098ZM309.401 91.126C308.655 91.126 308.011 90.986 307.469 90.706C306.937 90.4167 306.522 90.0107 306.223 89.488C305.934 88.956 305.789 88.326 305.789 87.598C305.789 86.8887 305.934 86.268 306.223 85.736C306.513 85.204 306.909 84.7887 307.413 84.49C307.917 84.1913 308.491 84.042 309.135 84.042C309.611 84.042 310.036 84.1213 310.409 84.28C310.783 84.4293 311.1 84.6533 311.361 84.952C311.632 85.2413 311.833 85.596 311.963 86.016C312.103 86.436 312.173 86.9073 312.173 87.43C312.173 87.5887 312.127 87.71 312.033 87.794C311.94 87.8687 311.8 87.906 311.613 87.906H306.909V87.038H311.221L310.983 87.234C310.983 86.7673 310.913 86.3707 310.773 86.044C310.643 85.7173 310.442 85.47 310.171 85.302C309.91 85.1247 309.583 85.036 309.191 85.036C308.753 85.036 308.379 85.1387 308.071 85.344C307.773 85.5493 307.544 85.834 307.385 86.198C307.227 86.562 307.147 86.9867 307.147 87.472V87.556C307.147 88.3773 307.339 88.998 307.721 89.418C308.113 89.8287 308.678 90.034 309.415 90.034C309.695 90.034 309.989 89.9967 310.297 89.922C310.615 89.8473 310.913 89.7213 311.193 89.544C311.352 89.4507 311.492 89.4087 311.613 89.418C311.744 89.4273 311.847 89.4693 311.921 89.544C312.005 89.6187 312.057 89.712 312.075 89.824C312.094 89.936 312.075 90.0527 312.019 90.174C311.963 90.286 311.865 90.3887 311.725 90.482C311.408 90.6967 311.039 90.86 310.619 90.972C310.199 91.0747 309.793 91.126 309.401 91.126ZM314.429 91.098C314.195 91.098 314.018 91.0373 313.897 90.916C313.775 90.7853 313.715 90.608 313.715 90.384V84.784C313.715 84.5507 313.775 84.3733 313.897 84.252C314.018 84.1307 314.186 84.07 314.401 84.07C314.625 84.07 314.793 84.1307 314.905 84.252C315.026 84.3733 315.087 84.5507 315.087 84.784V85.806H314.947C315.096 85.246 315.371 84.8213 315.773 84.532C316.174 84.2427 316.687 84.0747 317.313 84.028C317.481 84.0187 317.611 84.0607 317.705 84.154C317.807 84.2473 317.863 84.392 317.873 84.588C317.891 84.784 317.849 84.9427 317.747 85.064C317.644 85.176 317.485 85.2413 317.271 85.26L317.005 85.288C316.398 85.344 315.936 85.5353 315.619 85.862C315.301 86.1887 315.143 86.6367 315.143 87.206V90.384C315.143 90.608 315.082 90.7853 314.961 90.916C314.849 91.0373 314.671 91.098 314.429 91.098Z" fill="#252831"/>
</g>
<defs>
<linearGradient id="paint0_linear_41580_197806" x1="3.67999" y1="1.8912" x2="284.479" y2="206.185" gradientUnits="userSpaceOnUse">
<stop stop-color="#F8F6F5"/>
<stop offset="0.364583" stop-color="#B9C2C7"/>
<stop offset="0.713542" stop-color="#B7BFC5"/>
<stop offset="1" stop-color="#8C9093"/>
</linearGradient>
</defs>
</svg>
