<svg width="345" height="466" viewBox="0 0 345 466" fill="none" xmlns="http://www.w3.org/2000/svg">
<mask id="mask0_41897_195577" style="mask-type:alpha" maskUnits="userSpaceOnUse" x="0" y="0" width="345" height="124">
<mask id="path-1-inside-1_41897_195577" fill="white">
<path fill-rule="evenodd" clip-rule="evenodd" d="M17 19.2174H8C3.58172 19.2174 0 22.7991 0 27.2174V124H345V27.2174C345 22.7991 341.418 19.2174 337 19.2174L95 19.2174V48C95 69.5391 77.5391 87 56 87C34.4609 87 17 69.5391 17 48V19.2174ZM46.253 94.5862C47.6799 95.3015 47.7351 97.3178 46.3496 98.1102L31.8048 106.428C30.4925 107.179 28.8541 106.258 28.8127 104.747L28.379 88.9194C28.3376 87.4083 29.9232 86.3992 31.2746 87.0768L46.253 94.5862ZM62.5943 97.8472C61.2087 97.0548 61.264 95.0385 62.6908 94.3232L77.6692 86.8137C79.0206 86.1362 80.6062 87.1452 80.5648 88.6564L80.1312 104.484C80.0898 105.995 78.4513 106.916 77.139 106.165L62.5943 97.8472Z"/>
</mask>
<path fill-rule="evenodd" clip-rule="evenodd" d="M17 19.2174H8C3.58172 19.2174 0 22.7991 0 27.2174V124H345V27.2174C345 22.7991 341.418 19.2174 337 19.2174L95 19.2174V48C95 69.5391 77.5391 87 56 87C34.4609 87 17 69.5391 17 48V19.2174ZM46.253 94.5862C47.6799 95.3015 47.7351 97.3178 46.3496 98.1102L31.8048 106.428C30.4925 107.179 28.8541 106.258 28.8127 104.747L28.379 88.9194C28.3376 87.4083 29.9232 86.3992 31.2746 87.0768L46.253 94.5862ZM62.5943 97.8472C61.2087 97.0548 61.264 95.0385 62.6908 94.3232L77.6692 86.8137C79.0206 86.1362 80.6062 87.1452 80.5648 88.6564L80.1312 104.484C80.0898 105.995 78.4513 106.916 77.139 106.165L62.5943 97.8472Z" fill="#C0BEC6"/>
<path d="M17 19.2174H18V18.2174H17V19.2174ZM0 124H-1V125H0V124ZM345 124V125H346V124H345ZM337 19.2174V18.2174V19.2174ZM95 19.2174V18.2174H94V19.2174H95ZM46.3496 98.1102L45.8531 97.2421L46.3496 98.1102ZM46.253 94.5862L45.8049 95.4801H45.8049L46.253 94.5862ZM31.8048 106.428L31.3084 105.56H31.3084L31.8048 106.428ZM28.8127 104.747L29.8123 104.72L28.8127 104.747ZM28.379 88.9194L29.3786 88.8921L28.379 88.9194ZM31.2746 87.0768L31.7228 86.1828H31.7228L31.2746 87.0768ZM62.6908 94.3232L63.139 95.2171H63.139L62.6908 94.3232ZM62.5943 97.8472L63.0907 96.9791L62.5943 97.8472ZM77.6692 86.8137L77.221 85.9198L77.6692 86.8137ZM80.5648 88.6564L81.5645 88.6838L80.5648 88.6564ZM80.1312 104.484L81.1308 104.512V104.511L80.1312 104.484ZM77.139 106.165L77.6355 105.297L77.139 106.165ZM8 20.2174H17V18.2174H8V20.2174ZM1 27.2174C1 23.3514 4.13401 20.2174 8 20.2174V18.2174C3.02944 18.2174 -1 22.2468 -1 27.2174H1ZM1 124V27.2174H-1V124H1ZM345 123H0V125H345V123ZM344 27.2174V124H346V27.2174H344ZM337 20.2174C340.866 20.2174 344 23.3514 344 27.2174H346C346 22.2468 341.971 18.2174 337 18.2174V20.2174ZM95 20.2174L337 20.2174V18.2174L95 18.2174V20.2174ZM96 48V19.2174H94V48H96ZM56 88C78.0914 88 96 70.0914 96 48H94C94 68.9868 76.9868 86 56 86V88ZM16 48C16 70.0914 33.9086 88 56 88V86C35.0132 86 18 68.9868 18 48H16ZM16 19.2174V48H18V19.2174H16ZM46.846 98.9783C48.9243 97.7897 48.8414 94.7652 46.7012 93.6923L45.8049 95.4801C46.5183 95.8378 46.5459 96.846 45.8531 97.2421L46.846 98.9783ZM32.3013 107.297L46.846 98.9783L45.8531 97.2421L31.3084 105.56L32.3013 107.297ZM27.813 104.775C27.8751 107.041 30.3328 108.422 32.3013 107.297L31.3084 105.56C30.6522 105.936 29.833 105.475 29.8123 104.72L27.813 104.775ZM27.3794 88.9468L27.813 104.775L29.8123 104.72L29.3786 88.8921L27.3794 88.9468ZM31.7228 86.1828C29.6957 85.1665 27.3173 86.6801 27.3794 88.9468L29.3786 88.8921C29.3579 88.1365 30.1507 87.632 30.8265 87.9707L31.7228 86.1828ZM46.7012 93.6923L31.7228 86.1828L30.8265 87.9707L45.8049 95.4801L46.7012 93.6923ZM62.2426 93.4292C60.1024 94.5022 60.0195 97.5267 62.0978 98.7152L63.0907 96.9791C62.398 96.5829 62.4256 95.5748 63.139 95.2171L62.2426 93.4292ZM77.221 85.9198L62.2426 93.4292L63.139 95.2171L78.1174 87.7077L77.221 85.9198ZM81.5645 88.6838C81.6265 86.417 79.2482 84.9035 77.221 85.9198L78.1174 87.7077C78.7931 87.3689 79.5859 87.8734 79.5652 88.629L81.5645 88.6838ZM81.1308 104.511L81.5645 88.6838L79.5652 88.629L79.1316 104.457L81.1308 104.511ZM76.6426 107.034C78.611 108.159 81.0687 106.778 81.1308 104.512L79.1316 104.457C79.1109 105.212 78.2916 105.673 77.6355 105.297L76.6426 107.034ZM62.0978 98.7152L76.6426 107.034L77.6355 105.297L63.0907 96.9791L62.0978 98.7152Z" fill="#C0BEC6" mask="url(#path-1-inside-1_41897_195577)"/>
<path d="M94.1163 3.54399e-06H14.6952C14.1939 -0.000691177 13.6977 0.10076 13.237 0.29817C12.7762 0.49558 12.3605 0.784806 12.0152 1.14819C11.67 1.51158 11.4024 1.9415 11.2288 2.41173C11.0552 2.88195 10.9793 3.3826 11.0057 3.88313C11.0057 4.36757 11.1012 4.84727 11.2866 5.29484C11.472 5.7424 11.7437 6.14907 12.0863 6.49162C12.4289 6.83418 12.8357 7.10591 13.2833 7.29129C13.7309 7.47668 14.2107 7.5721 14.6952 7.5721H90.2327V52.2281C89.5662 61.273 85.5023 69.731 78.8569 75.904C72.2115 82.077 63.4765 85.5079 54.4058 85.5079C45.335 85.5079 36.6001 82.077 29.9547 75.904C23.3092 69.731 19.2453 61.273 18.5789 52.2281V26.7936H46.7355L34.3078 60.1885C34.1207 60.7652 34.0586 61.3751 34.1256 61.9777C34.1926 62.5803 34.3871 63.1617 34.6961 63.6833C35.0242 64.2133 35.4812 64.6515 36.0245 64.9571C36.5678 65.2626 37.1797 65.4256 37.8031 65.4307H55.8622C56.8922 65.4307 57.88 65.0216 58.6083 64.2933C59.3367 63.5651 59.7458 62.5774 59.7458 61.5476C59.7458 60.5177 59.3367 59.53 58.6083 58.8018C57.88 58.0735 56.8922 57.6644 55.8622 57.6644H43.4344L55.8622 24.2695C56.0662 23.6849 56.1198 23.0584 56.018 22.4476C55.9162 21.8369 55.6622 21.2616 55.2796 20.7747C54.9421 20.2675 54.4778 19.8573 53.9328 19.5849C53.3878 19.3124 52.781 19.1871 52.1727 19.2215H14.6952C14.2033 19.1933 13.711 19.2694 13.2506 19.4448C12.7902 19.6203 12.3721 19.891 12.0238 20.2394C11.6754 20.5877 11.4046 21.0057 11.2291 21.4661C11.0537 21.9264 10.9775 22.4186 11.0057 22.9104V23.2988V52.2281C10.9812 63.1551 15.0713 73.6909 22.4626 81.7398V109.31C22.4876 109.952 22.68 110.576 23.0206 111.121C23.3612 111.666 23.8382 112.113 24.4044 112.417C24.9746 112.81 25.6539 113.013 26.3462 112.999H28.0939L54.5029 100.379L80.9119 112.999H82.4653C83.2188 113.016 83.9609 112.814 84.6013 112.417C85.1446 112.103 85.5935 111.649 85.901 111.103C86.2085 110.556 86.3632 109.937 86.349 109.31V81.7398C93.7945 73.7102 97.9527 63.1776 98 52.2281V3.88313C98 2.85326 97.5908 1.86557 96.8625 1.13734C96.1342 0.409115 95.1463 3.54399e-06 94.1163 3.54399e-06ZM30.2299 88.3411C35.4788 91.7379 41.3553 94.0485 47.5123 95.1366L30.2299 103.291V88.3411ZM61.4935 95.1366C67.6313 93.9815 73.4952 91.6758 78.7758 88.3411V103.291L61.4935 95.1366Z" fill="#C0BEC6"/>
<path d="M70.5 48C74.0899 48 77 45.0899 77 41.5C77 37.9102 74.0899 35 70.5 35C66.9102 35 64 37.9102 64 41.5C64 45.0899 66.9102 48 70.5 48Z" fill="#C0BEC6"/>
</mask>
<g mask="url(#mask0_41897_195577)">
<rect y="-1" width="345" height="124" fill="url(#paint0_linear_41897_195577)"/>
</g>
<path d="M0 123H345V306C345 394.366 273.366 466 185 466H160C71.6344 466 0 394.366 0 306V123Z" fill="white"/>
<defs>
<linearGradient id="paint0_linear_41897_195577" x1="3.67999" y1="1.8912" x2="284.479" y2="206.185" gradientUnits="userSpaceOnUse">
<stop stop-color="#F8F6F5"/>
<stop offset="0.364583" stop-color="#B9C2C7"/>
<stop offset="0.713542" stop-color="#B7BFC5"/>
<stop offset="1" stop-color="#8C9093"/>
</linearGradient>
</defs>
</svg>
