<svg width="345" height="98" viewBox="0 0 345 98" fill="none" xmlns="http://www.w3.org/2000/svg">
<g clip-path="url(#clip0_41823_195493)">
<path fill-rule="evenodd" clip-rule="evenodd" d="M242 0C242 6.62742 236.627 12 230 12C223.373 12 218 6.62742 218 0H0V98H218C218 91.3726 223.373 86 230 86C236.627 86 242 91.3726 242 98H345V0H242Z" fill="#373A44"/>
<g opacity="0.05" clip-path="url(#clip1_41823_195493)">
<path d="M118.028 2H14.9884C12.2351 2 10 4.22637 10 6.969C10 9.71164 12.2351 11.938 14.9884 11.938H113.039V71.2757C113.039 97.6372 92.1627 119.094 66.4919 119.094C40.8211 119.094 19.9606 97.6372 19.9606 71.2757V37.4284H56.175L39.574 82.101C39.0072 83.6175 39.2339 85.3276 40.1571 86.6505C41.0803 87.9896 42.6189 88.7801 44.2385 88.7801H68.0953C70.8486 88.7801 73.0837 86.5537 73.0837 83.8111C73.0837 81.0685 70.8486 78.8421 68.0953 78.8421H51.3972L67.9981 34.1695C68.565 32.6529 68.3383 30.9428 67.4151 29.6199C66.4919 28.2809 64.9533 27.4903 63.3337 27.4903H14.9884C12.2351 27.4903 10 29.7167 10 32.4593C10 32.5884 10.0324 32.7175 10.0324 32.8465C10.0324 32.9756 10 33.1047 10 33.2337V71.2595C10 103.09 35.3469 129 66.5081 129C97.6693 129 123.016 103.09 123.016 71.2595V6.969C123.016 4.22637 120.781 2 118.028 2Z" fill="white"/>
<path d="M88.5996 64.7579C93.3493 64.7579 97.1997 60.9224 97.1997 56.1912C97.1997 51.4599 93.3493 47.6245 88.5996 47.6245C83.8499 47.6245 79.9995 51.4599 79.9995 56.1912C79.9995 60.9224 83.8499 64.7579 88.5996 64.7579Z" fill="white"/>
</g>
<path fill-rule="evenodd" clip-rule="evenodd" d="M242 0C242 6.62742 236.627 12 230 12V86C236.627 86 242 91.3726 242 98H341C343.209 98 345 96.2091 345 94V4C345 1.79086 343.209 0 341 0H242Z" fill="url(#paint0_linear_41823_195493)"/>
<mask id="path-6-inside-1_41823_195493" fill="white">
<path fill-rule="evenodd" clip-rule="evenodd" d="M242 0C242 6.62742 236.627 12 230 12C223.373 12 218 6.62742 218 0H4C1.79086 0 0 1.79086 0 4V94C0 96.2091 1.79085 98 3.99999 98H218C218 91.3726 223.373 86 230 86C236.627 86 242 91.3726 242 98H341C343.209 98 345 96.2091 345 94V4C345 1.79086 343.209 0 341 0H242Z"/>
</mask>
<path d="M242 0V-1H241V0H242ZM218 0H219V-1H218V0ZM218 98V99H219V98H218ZM242 98H241V99H242V98ZM230 13C237.18 13 243 7.1797 243 0H241C241 6.07513 236.075 11 230 11V13ZM217 0C217 7.1797 222.82 13 230 13V11C223.925 11 219 6.07513 219 0H217ZM4 1H218V-1H4V1ZM1 4C1 2.34314 2.34315 1 4 1V-1C1.23858 -1 -1 1.23857 -1 4H1ZM1 94V4H-1V94H1ZM3.99999 97C2.34314 97 1 95.6569 1 94H-1C-1 96.7614 1.23856 99 3.99999 99V97ZM218 97H3.99999V99H218V97ZM219 98C219 91.9249 223.925 87 230 87V85C222.82 85 217 90.8203 217 98H219ZM230 87C236.075 87 241 91.9249 241 98H243C243 90.8203 237.18 85 230 85V87ZM341 97H242V99H341V97ZM344 94C344 95.6569 342.657 97 341 97V99C343.761 99 346 96.7614 346 94H344ZM344 4V94H346V4H344ZM341 1C342.657 1 344 2.34315 344 4H346C346 1.23858 343.761 -1 341 -1V1ZM242 1H341V-1H242V1Z" fill="url(#paint1_linear_41823_195493)" mask="url(#path-6-inside-1_41823_195493)"/>
</g>
<defs>
<linearGradient id="paint0_linear_41823_195493" x1="205.167" y1="29.3358" x2="609.445" y2="235.095" gradientUnits="userSpaceOnUse">
<stop stop-color="#C5CACE"/>
<stop offset="0.02" stop-color="#A4A8AB"/>
<stop offset="0.05" stop-color="#8C8F91"/>
<stop offset="0.06" stop-color="#838688"/>
<stop offset="0.1" stop-color="#888C8E"/>
<stop offset="0.14" stop-color="#919699"/>
<stop offset="0.23" stop-color="#A4AAAF"/>
<stop offset="0.31" stop-color="#BBC3CA"/>
<stop offset="0.41" stop-color="#BAC3C8"/>
<stop offset="0.43" stop-color="#BDC5C9"/>
<stop offset="0.55" stop-color="#D9D9D9"/>
<stop offset="0.57" stop-color="#DFDEDE"/>
<stop offset="0.6" stop-color="#F0EDED"/>
<stop offset="0.61" stop-color="#FFF9F9"/>
<stop offset="0.68" stop-color="#F5F5F4"/>
<stop offset="0.72" stop-color="white"/>
<stop offset="0.76" stop-color="#F7F7F7"/>
<stop offset="0.79" stop-color="#EAEAEA"/>
<stop offset="0.89" stop-color="#CBCBCD"/>
<stop offset="0.95" stop-color="#C3CCD3"/>
<stop offset="0.99" stop-color="#A4A9AC"/>
</linearGradient>
<linearGradient id="paint1_linear_41823_195493" x1="-74.4983" y1="29.3358" x2="383.878" y2="729.216" gradientUnits="userSpaceOnUse">
<stop stop-color="#C5CACE"/>
<stop offset="0.02" stop-color="#A4A8AB"/>
<stop offset="0.05" stop-color="#8C8F91"/>
<stop offset="0.06" stop-color="#838688"/>
<stop offset="0.1" stop-color="#888C8E"/>
<stop offset="0.14" stop-color="#919699"/>
<stop offset="0.23" stop-color="#A4AAAF"/>
<stop offset="0.31" stop-color="#BBC3CA"/>
<stop offset="0.41" stop-color="#BAC3C8"/>
<stop offset="0.43" stop-color="#BDC5C9"/>
<stop offset="0.55" stop-color="#D9D9D9"/>
<stop offset="0.57" stop-color="#DFDEDE"/>
<stop offset="0.6" stop-color="#F0EDED"/>
<stop offset="0.61" stop-color="#FFF9F9"/>
<stop offset="0.68" stop-color="#F5F5F4"/>
<stop offset="0.72" stop-color="white"/>
<stop offset="0.76" stop-color="#F7F7F7"/>
<stop offset="0.79" stop-color="#EAEAEA"/>
<stop offset="0.89" stop-color="#CBCBCD"/>
<stop offset="0.95" stop-color="#C3CCD3"/>
<stop offset="0.99" stop-color="#A4A9AC"/>
</linearGradient>
<clipPath id="clip0_41823_195493">
<rect width="345" height="98" rx="4" fill="white"/>
</clipPath>
<clipPath id="clip1_41823_195493">
<rect width="113" height="127" fill="white" transform="translate(10 2)"/>
</clipPath>
</defs>
</svg>
