<svg width="350" height="549" viewBox="0 0 350 549" fill="none" xmlns="http://www.w3.org/2000/svg">
<mask id="mask0_41897_195490" style="mask-type:alpha" maskUnits="userSpaceOnUse" x="0" y="0" width="350" height="206">
<mask id="path-1-inside-1_41897_195490" fill="white">
<path fill-rule="evenodd" clip-rule="evenodd" d="M23 100.5H13C8.58172 100.5 5 104.082 5 108.5V206H350V108.5C350 104.082 346.418 100.5 342 100.5H96V131.5C96 151.658 79.6584 168 59.5 168C39.3416 168 23 151.658 23 131.5V100.5Z"/>
</mask>
<path fill-rule="evenodd" clip-rule="evenodd" d="M23 100.5H13C8.58172 100.5 5 104.082 5 108.5V206H350V108.5C350 104.082 346.418 100.5 342 100.5H96V131.5C96 151.658 79.6584 168 59.5 168C39.3416 168 23 151.658 23 131.5V100.5Z" fill="#F2C759"/>
<path d="M23 100.5H24V99.5H23V100.5ZM5 206H4V207H5V206ZM350 206V207H351V206H350ZM96 100.5V99.5H95V100.5H96ZM13 101.5H23V99.5H13V101.5ZM6 108.5C6 104.634 9.13401 101.5 13 101.5V99.5C8.02944 99.5 4 103.529 4 108.5H6ZM6 206V108.5H4V206H6ZM350 205H5V207H350V205ZM349 108.5V206H351V108.5H349ZM342 101.5C345.866 101.5 349 104.634 349 108.5H351C351 103.529 346.971 99.5 342 99.5V101.5ZM96 101.5H342V99.5H96V101.5ZM95 100.5V131.5H97V100.5H95ZM95 131.5C95 151.106 79.1061 167 59.5 167V169C80.2107 169 97 152.211 97 131.5H95ZM59.5 167C39.8939 167 24 151.106 24 131.5H22C22 152.211 38.7893 169 59.5 169V167ZM24 131.5V100.5H22V131.5H24Z" fill="#F2C759" mask="url(#path-1-inside-1_41897_195490)"/>
<path d="M80 121.5C80 119.776 79.3152 118.123 78.0962 116.904C76.8772 115.685 75.2239 115 73.5 115C72.6464 115 71.8012 115.168 71.0126 115.495C70.224 115.821 69.5074 116.3 68.9038 116.904C68.3002 117.507 67.8214 118.224 67.4948 119.013C67.1681 119.801 67 120.646 67 121.5C67 122.354 67.1681 123.199 67.4948 123.987C67.8214 124.776 68.3002 125.493 68.9038 126.096C69.5074 126.7 70.224 127.179 71.0126 127.505C71.8012 127.832 72.6464 128 73.5 128C75.2239 128 76.8772 127.315 78.0962 126.096C79.3152 124.877 80 123.224 80 121.5V121.5Z" fill="#F2C759"/>
<path d="M91.9271 17.8494H90.7832C87.5393 12.4091 82.9343 7.90349 77.4195 4.77434C71.9048 1.64519 65.6698 0 59.3259 0C52.982 0 46.7469 1.64519 41.2322 4.77434C35.7175 7.90349 31.1124 12.4091 27.8685 17.8494H27.2966C20.779 17.7956 14.4608 20.09 9.50218 24.3112C4.54359 28.5325 1.27749 34.3971 0.303834 40.8282C-0.669819 47.2593 0.714285 53.8251 4.20191 59.3197C7.68954 64.8143 13.0466 68.8688 19.2892 70.7387V90.7148H92.3084V131.048C92.3084 139.676 88.8736 147.951 82.7597 154.052C76.6458 160.153 68.3536 163.58 59.7072 163.58C51.0608 163.58 42.7685 160.153 36.6545 154.052C30.5406 147.951 27.1058 139.676 27.1058 131.048V108.218H52.2718L41.0234 138.467C40.8064 139.047 40.7342 139.671 40.8132 140.284C40.8922 140.898 41.12 141.483 41.4768 141.989C41.8336 142.495 42.3087 142.907 42.8609 143.188C43.4131 143.47 44.0257 143.612 44.6457 143.604H61.0418C62.053 143.604 63.0228 143.203 63.7379 142.49C64.453 141.776 64.8548 140.808 64.8548 139.799C64.8548 138.79 64.453 137.822 63.7379 137.109C63.0228 136.395 62.053 135.994 61.0418 135.994H49.9839L61.2324 105.745C61.4944 105.162 61.5971 104.521 61.5301 103.886C61.4632 103.251 61.2288 102.645 60.851 102.13C60.4663 101.642 59.9731 101.251 59.4106 100.987C58.848 100.723 58.2315 100.593 57.61 100.608H23.2928C22.2815 100.608 21.3117 101.009 20.5967 101.722C19.8816 102.436 19.4798 103.404 19.4798 104.413L19.5 104.5C19.5 104.69 19.4798 104.603 19.4798 104.793V130.857C19.4798 141.504 23.718 151.714 31.2621 159.243C38.8062 166.771 49.0382 171 59.7072 171C70.3761 171 80.608 166.771 88.1521 159.243C95.6962 151.714 99.9344 141.504 99.9344 130.857V70.5485C105.469 68.902 110.319 65.5085 113.757 60.8775C117.194 56.2465 119.034 50.6279 119 44.8648C119 37.6999 116.147 30.8284 111.07 25.762C105.993 20.6956 99.1071 17.8494 91.9271 17.8494ZM91.9271 64.2702C87.7098 64.2864 83.6111 62.8783 80.2974 60.275C79.4884 59.6695 78.4715 59.4095 77.4704 59.5523C76.4693 59.695 75.566 60.2287 74.9592 61.036C74.3525 61.8433 74.092 62.858 74.235 63.857C74.378 64.856 74.9128 65.7575 75.7218 66.363C80.3629 69.9408 86.0623 71.8811 91.9271 71.8801H92.3084V83.1049H26.9152V71.8801H27.2966C33.1661 71.9103 38.8748 69.9668 43.5019 66.363C43.9025 66.0632 44.2399 65.6875 44.495 65.2575C44.7502 64.8276 44.918 64.3517 44.9888 63.857C45.0596 63.3624 45.0321 62.8587 44.9078 62.3746C44.7835 61.8906 44.5648 61.4358 44.2644 61.036C43.6576 60.2287 42.7544 59.695 41.7533 59.5523C40.7522 59.4095 39.7352 59.6695 38.9262 60.275C35.6276 62.9056 31.5189 64.317 27.2966 64.2702C22.3618 64.3075 17.5974 62.4712 13.9689 59.1335C10.3404 55.7958 8.11932 51.2064 7.75567 46.2953C7.39201 41.3842 8.91306 36.5189 12.0105 32.6853C15.108 28.8516 19.5502 26.3365 24.4368 25.6496C23.2801 29.2132 22.7008 32.9382 22.7209 36.684C22.7209 37.6932 23.1227 38.6611 23.8378 39.3746C24.5528 40.0882 25.5226 40.489 26.5339 40.489C27.5452 40.489 28.5151 40.0882 29.2302 39.3746C29.9453 38.6611 30.3469 37.6932 30.3469 36.684C30.3469 32.8865 31.0965 29.1262 32.5528 25.6177C34.0092 22.1092 36.1437 18.9214 38.8346 16.2361C41.5256 13.5508 44.7203 11.4207 48.2361 9.96741C51.752 8.51415 55.5203 7.76626 59.3259 7.76626C63.1314 7.76626 66.8997 8.51415 70.4156 9.96741C73.9315 11.4207 77.1262 13.5508 79.8171 16.2361C82.508 18.9214 84.6426 22.1092 86.0989 25.6177C87.5552 29.1262 88.3048 32.8865 88.3048 36.684C88.3048 37.6932 88.7065 38.6611 89.4215 39.3746C90.1366 40.0882 91.1065 40.489 92.1178 40.489C93.1291 40.489 94.0989 40.0882 94.814 39.3746C95.529 38.6611 95.9308 37.6932 95.9308 36.684C95.9643 32.9372 95.3847 29.2101 94.2149 25.6496C99.0579 26.3239 103.469 28.7941 106.568 32.5681C109.668 36.3421 111.229 41.1429 110.94 46.014C110.652 50.885 108.535 55.4689 105.011 58.8522C101.488 62.2355 96.816 64.17 91.9271 64.2702Z" fill="#F2C759"/>
</mask>
<g mask="url(#mask0_41897_195490)">
<rect width="350" height="206" fill="url(#paint0_linear_41897_195490)"/>
</g>
<path d="M5 206H350V389C350 477.366 278.366 549 190 549H165C76.6344 549 5 477.366 5 389V206Z" fill="white"/>
<defs>
<linearGradient id="paint0_linear_41897_195490" x1="3.73333" y1="4.80312" x2="367.571" y2="166.452" gradientUnits="userSpaceOnUse">
<stop stop-color="#A1803B"/>
<stop offset="0.541667" stop-color="#FDE28F"/>
<stop offset="1" stop-color="#D8BC74"/>
</linearGradient>
</defs>
</svg>
