<svg width="350" height="206" viewBox="0 0 350 206" fill="none" xmlns="http://www.w3.org/2000/svg">
<mask id="mask0_41580_197349" style="mask-type:alpha" maskUnits="userSpaceOnUse" x="0" y="0" width="350" height="206">
<mask id="path-1-inside-1_41580_197349" fill="white">
<path fill-rule="evenodd" clip-rule="evenodd" d="M23 100.5H13C8.58172 100.5 5 104.082 5 108.5V206H350V108.5C350 104.082 346.418 100.5 342 100.5H96V131.5C96 151.658 79.6584 168 59.5 168C39.3416 168 23 151.658 23 131.5V100.5Z"/>
</mask>
<path fill-rule="evenodd" clip-rule="evenodd" d="M23 100.5H13C8.58172 100.5 5 104.082 5 108.5V206H350V108.5C350 104.082 346.418 100.5 342 100.5H96V131.5C96 151.658 79.6584 168 59.5 168C39.3416 168 23 151.658 23 131.5V100.5Z" fill="#F2C759"/>
<path d="M23 100.5H24V99.5H23V100.5ZM5 206H4V207H5V206ZM350 206V207H351V206H350ZM96 100.5V99.5H95V100.5H96ZM13 101.5H23V99.5H13V101.5ZM6 108.5C6 104.634 9.13401 101.5 13 101.5V99.5C8.02944 99.5 4 103.529 4 108.5H6ZM6 206V108.5H4V206H6ZM350 205H5V207H350V205ZM349 108.5V206H351V108.5H349ZM342 101.5C345.866 101.5 349 104.634 349 108.5H351C351 103.529 346.971 99.5 342 99.5V101.5ZM96 101.5H342V99.5H96V101.5ZM95 100.5V131.5H97V100.5H95ZM95 131.5C95 151.106 79.1061 167 59.5 167V169C80.2107 169 97 152.211 97 131.5H95ZM59.5 167C39.8939 167 24 151.106 24 131.5H22C22 152.211 38.7893 169 59.5 169V167ZM24 131.5V100.5H22V131.5H24Z" fill="#F2C759" mask="url(#path-1-inside-1_41580_197349)"/>
<path d="M80 121.5C80 119.776 79.3152 118.123 78.0962 116.904C76.8772 115.685 75.2239 115 73.5 115C72.6464 115 71.8012 115.168 71.0126 115.495C70.224 115.821 69.5074 116.3 68.9038 116.904C68.3002 117.507 67.8214 118.224 67.4948 119.013C67.1681 119.801 67 120.646 67 121.5C67 122.354 67.1681 123.199 67.4948 123.987C67.8214 124.776 68.3002 125.493 68.9038 126.096C69.5074 126.7 70.224 127.179 71.0126 127.505C71.8012 127.832 72.6464 128 73.5 128C75.2239 128 76.8772 127.315 78.0962 126.096C79.3152 124.877 80 123.224 80 121.5V121.5Z" fill="#F2C759"/>
<path d="M91.9271 17.8494H90.7832C87.5393 12.4091 82.9343 7.90349 77.4195 4.77434C71.9048 1.64519 65.6698 0 59.3259 0C52.982 0 46.7469 1.64519 41.2322 4.77434C35.7175 7.90349 31.1124 12.4091 27.8685 17.8494H27.2966C20.779 17.7956 14.4608 20.09 9.50218 24.3112C4.54359 28.5325 1.27749 34.3971 0.303834 40.8282C-0.669819 47.2593 0.714285 53.8251 4.20191 59.3197C7.68954 64.8143 13.0466 68.8688 19.2892 70.7387V90.7148H92.3084V131.048C92.3084 139.676 88.8736 147.951 82.7597 154.052C76.6458 160.153 68.3536 163.58 59.7072 163.58C51.0608 163.58 42.7685 160.153 36.6545 154.052C30.5406 147.951 27.1058 139.676 27.1058 131.048V108.218H52.2718L41.0234 138.467C40.8064 139.047 40.7342 139.671 40.8132 140.284C40.8922 140.898 41.12 141.483 41.4768 141.989C41.8336 142.495 42.3087 142.907 42.8609 143.188C43.4131 143.47 44.0257 143.612 44.6457 143.604H61.0418C62.053 143.604 63.0228 143.203 63.7379 142.49C64.453 141.776 64.8548 140.808 64.8548 139.799C64.8548 138.79 64.453 137.822 63.7379 137.109C63.0228 136.395 62.053 135.994 61.0418 135.994H49.9839L61.2324 105.745C61.4944 105.162 61.5971 104.521 61.5301 103.886C61.4632 103.251 61.2288 102.645 60.851 102.13C60.4663 101.642 59.9731 101.251 59.4106 100.987C58.848 100.723 58.2315 100.593 57.61 100.608H23.2928C22.2815 100.608 21.3117 101.009 20.5967 101.722C19.8816 102.436 19.4798 103.404 19.4798 104.413L19.5 104.5C19.5 104.69 19.4798 104.603 19.4798 104.793V130.857C19.4798 141.504 23.718 151.714 31.2621 159.243C38.8062 166.771 49.0382 171 59.7072 171C70.3761 171 80.608 166.771 88.1521 159.243C95.6962 151.714 99.9344 141.504 99.9344 130.857V70.5485C105.469 68.902 110.319 65.5085 113.757 60.8775C117.194 56.2465 119.034 50.6279 119 44.8648C119 37.6999 116.147 30.8284 111.07 25.762C105.993 20.6956 99.1071 17.8494 91.9271 17.8494ZM91.9271 64.2702C87.7098 64.2864 83.6111 62.8783 80.2974 60.275C79.4884 59.6695 78.4715 59.4095 77.4704 59.5523C76.4693 59.695 75.566 60.2287 74.9592 61.036C74.3525 61.8433 74.092 62.858 74.235 63.857C74.378 64.856 74.9128 65.7575 75.7218 66.363C80.3629 69.9408 86.0623 71.8811 91.9271 71.8801H92.3084V83.1049H26.9152V71.8801H27.2966C33.1661 71.9103 38.8748 69.9668 43.5019 66.363C43.9025 66.0632 44.2399 65.6875 44.495 65.2575C44.7502 64.8276 44.918 64.3517 44.9888 63.857C45.0596 63.3624 45.0321 62.8587 44.9078 62.3746C44.7835 61.8906 44.5648 61.4358 44.2644 61.036C43.6576 60.2287 42.7544 59.695 41.7533 59.5523C40.7522 59.4095 39.7352 59.6695 38.9262 60.275C35.6276 62.9056 31.5189 64.317 27.2966 64.2702C22.3618 64.3075 17.5974 62.4712 13.9689 59.1335C10.3404 55.7958 8.11932 51.2064 7.75567 46.2953C7.39201 41.3842 8.91306 36.5189 12.0105 32.6853C15.108 28.8516 19.5502 26.3365 24.4368 25.6496C23.2801 29.2132 22.7008 32.9382 22.7209 36.684C22.7209 37.6932 23.1227 38.6611 23.8378 39.3746C24.5528 40.0882 25.5226 40.489 26.5339 40.489C27.5452 40.489 28.5151 40.0882 29.2302 39.3746C29.9453 38.6611 30.3469 37.6932 30.3469 36.684C30.3469 32.8865 31.0965 29.1262 32.5528 25.6177C34.0092 22.1092 36.1437 18.9214 38.8346 16.2361C41.5256 13.5508 44.7203 11.4207 48.2361 9.96741C51.752 8.51415 55.5203 7.76626 59.3259 7.76626C63.1314 7.76626 66.8997 8.51415 70.4156 9.96741C73.9315 11.4207 77.1262 13.5508 79.8171 16.2361C82.508 18.9214 84.6426 22.1092 86.0989 25.6177C87.5552 29.1262 88.3048 32.8865 88.3048 36.684C88.3048 37.6932 88.7065 38.6611 89.4215 39.3746C90.1366 40.0882 91.1065 40.489 92.1178 40.489C93.1291 40.489 94.0989 40.0882 94.814 39.3746C95.529 38.6611 95.9308 37.6932 95.9308 36.684C95.9643 32.9372 95.3847 29.2101 94.2149 25.6496C99.0579 26.3239 103.469 28.7941 106.568 32.5681C109.668 36.3421 111.229 41.1429 110.94 46.014C110.652 50.885 108.535 55.4689 105.011 58.8522C101.488 62.2355 96.816 64.17 91.9271 64.2702Z" fill="#F2C759"/>
</mask>
<g mask="url(#mask0_41580_197349)">
<rect width="350" height="206" fill="url(#paint0_linear_41580_197349)"/>
<path d="M116.87 136.3V145.267L110.57 136.3H108.365V151H111.263V142.012L117.563 151H119.768V136.3H116.87ZM125.393 148.228V144.931H130.958V142.201H125.393V139.072H131.483V136.3H122.495V151H131.588V148.228H125.393ZM136.697 151H139.994L142.745 141.298L145.517 151H148.814L152.93 136.3H149.885L147.071 147.199L143.984 136.3H141.506L138.44 147.199L135.626 136.3H132.581L136.697 151ZM162.758 148.228V136.3H159.86V151H168.365V148.228H162.758ZM176.06 151.294C180.302 151.294 183.704 147.934 183.704 143.65C183.704 139.345 180.302 136.006 176.06 136.006C171.818 136.006 168.437 139.345 168.437 143.65C168.437 147.934 171.818 151.294 176.06 151.294ZM176.06 148.459C173.393 148.459 171.314 146.464 171.314 143.65C171.314 140.815 173.393 138.82 176.06 138.82C178.727 138.82 180.806 140.815 180.806 143.65C180.806 146.464 178.727 148.459 176.06 148.459ZM194.623 136.3H183.808V139.072H187.756V151H190.654V139.072H194.623V136.3ZM205.964 136.3H195.149V139.072H199.097V151H201.995V139.072H205.964V136.3ZM210.48 148.228V144.931H216.045V142.201H210.48V139.072H216.57V136.3H207.582V151H216.675V148.228H210.48ZM226.782 151H229.911L226.656 145.456C228.336 144.679 229.491 143.02 229.491 141.172C229.491 138.484 227.307 136.3 224.598 136.3H218.718V151H221.616V145.897H223.821L226.782 151ZM221.616 139.009H224.598C225.69 139.009 226.593 139.954 226.593 141.172C226.593 142.39 225.69 143.356 224.598 143.356H221.616V139.009ZM242.841 136.3H239.565L236.373 142.432L233.181 136.3H229.905L234.924 145.267V151H237.801V145.267L242.841 136.3Z" fill="#252831"/>
<path d="M111.438 174.126C111.009 174.126 110.589 174.093 110.178 174.028C109.767 173.963 109.38 173.865 109.016 173.734C108.652 173.594 108.325 173.426 108.036 173.23C107.896 173.127 107.798 173.011 107.742 172.88C107.695 172.749 107.681 172.623 107.7 172.502C107.728 172.371 107.784 172.259 107.868 172.166C107.952 172.073 108.055 172.017 108.176 171.998C108.297 171.97 108.433 172.007 108.582 172.11C109.002 172.381 109.445 172.581 109.912 172.712C110.379 172.833 110.887 172.894 111.438 172.894C112.231 172.894 112.815 172.754 113.188 172.474C113.571 172.185 113.762 171.811 113.762 171.354C113.762 170.981 113.627 170.687 113.356 170.472C113.085 170.248 112.633 170.071 111.998 169.94L110.5 169.632C109.613 169.445 108.951 169.137 108.512 168.708C108.083 168.279 107.868 167.7 107.868 166.972C107.868 166.533 107.957 166.132 108.134 165.768C108.321 165.404 108.577 165.091 108.904 164.83C109.231 164.559 109.623 164.354 110.08 164.214C110.537 164.074 111.037 164.004 111.578 164.004C112.157 164.004 112.698 164.079 113.202 164.228C113.715 164.377 114.173 164.606 114.574 164.914C114.695 164.998 114.775 165.105 114.812 165.236C114.859 165.357 114.868 165.479 114.84 165.6C114.821 165.721 114.77 165.824 114.686 165.908C114.602 165.992 114.495 166.043 114.364 166.062C114.233 166.071 114.089 166.025 113.93 165.922C113.566 165.679 113.193 165.507 112.81 165.404C112.437 165.292 112.021 165.236 111.564 165.236C111.107 165.236 110.705 165.306 110.36 165.446C110.024 165.586 109.763 165.782 109.576 166.034C109.399 166.286 109.31 166.585 109.31 166.93C109.31 167.322 109.436 167.635 109.688 167.868C109.94 168.101 110.36 168.279 110.948 168.4L112.432 168.708C113.365 168.904 114.061 169.207 114.518 169.618C114.975 170.029 115.204 170.575 115.204 171.256C115.204 171.695 115.115 172.091 114.938 172.446C114.761 172.791 114.509 173.09 114.182 173.342C113.855 173.594 113.459 173.79 112.992 173.93C112.535 174.061 112.017 174.126 111.438 174.126ZM117.403 176.618C117.179 176.618 117.006 176.557 116.885 176.436C116.764 176.315 116.703 176.137 116.703 175.904V167.784C116.703 167.551 116.764 167.373 116.885 167.252C117.006 167.131 117.174 167.07 117.389 167.07C117.613 167.07 117.786 167.131 117.907 167.252C118.028 167.373 118.089 167.551 118.089 167.784V169.002L117.935 168.708C118.084 168.204 118.378 167.803 118.817 167.504C119.256 167.196 119.774 167.042 120.371 167.042C120.978 167.042 121.505 167.187 121.953 167.476C122.41 167.765 122.76 168.171 123.003 168.694C123.255 169.217 123.381 169.847 123.381 170.584C123.381 171.303 123.255 171.933 123.003 172.474C122.76 173.006 122.415 173.417 121.967 173.706C121.519 173.986 120.987 174.126 120.371 174.126C119.783 174.126 119.27 173.977 118.831 173.678C118.392 173.379 118.098 172.983 117.949 172.488H118.117V175.904C118.117 176.137 118.052 176.315 117.921 176.436C117.8 176.557 117.627 176.618 117.403 176.618ZM120.021 173.034C120.413 173.034 120.754 172.941 121.043 172.754C121.332 172.567 121.556 172.292 121.715 171.928C121.874 171.564 121.953 171.116 121.953 170.584C121.953 169.781 121.776 169.175 121.421 168.764C121.076 168.353 120.609 168.148 120.021 168.148C119.638 168.148 119.298 168.241 118.999 168.428C118.71 168.605 118.486 168.876 118.327 169.24C118.168 169.604 118.089 170.052 118.089 170.584C118.089 171.377 118.266 171.984 118.621 172.404C118.976 172.824 119.442 173.034 120.021 173.034ZM125.674 174.084C125.45 174.084 125.278 174.019 125.156 173.888C125.035 173.748 124.974 173.557 124.974 173.314V167.854C124.974 167.611 125.035 167.425 125.156 167.294C125.278 167.163 125.45 167.098 125.674 167.098C125.898 167.098 126.071 167.163 126.192 167.294C126.323 167.425 126.388 167.611 126.388 167.854V173.314C126.388 173.557 126.328 173.748 126.206 173.888C126.085 174.019 125.908 174.084 125.674 174.084ZM125.674 165.642C125.394 165.642 125.175 165.572 125.016 165.432C124.867 165.292 124.792 165.096 124.792 164.844C124.792 164.583 124.867 164.387 125.016 164.256C125.175 164.116 125.394 164.046 125.674 164.046C125.954 164.046 126.169 164.116 126.318 164.256C126.477 164.387 126.556 164.583 126.556 164.844C126.556 165.096 126.477 165.292 126.318 165.432C126.169 165.572 125.954 165.642 125.674 165.642ZM129.079 174.098C128.855 174.098 128.682 174.037 128.561 173.916C128.439 173.785 128.379 173.608 128.379 173.384V167.784C128.379 167.551 128.439 167.373 128.561 167.252C128.682 167.131 128.85 167.07 129.065 167.07C129.289 167.07 129.457 167.131 129.569 167.252C129.69 167.373 129.751 167.551 129.751 167.784V168.876L129.597 168.624C129.802 168.101 130.124 167.709 130.563 167.448C131.001 167.177 131.505 167.042 132.075 167.042C132.616 167.042 133.064 167.145 133.419 167.35C133.783 167.546 134.053 167.849 134.231 168.26C134.408 168.661 134.497 169.17 134.497 169.786V173.384C134.497 173.608 134.436 173.785 134.315 173.916C134.193 174.037 134.021 174.098 133.797 174.098C133.563 174.098 133.386 174.037 133.265 173.916C133.143 173.785 133.083 173.608 133.083 173.384V169.87C133.083 169.282 132.966 168.853 132.733 168.582C132.509 168.311 132.154 168.176 131.669 168.176C131.099 168.176 130.642 168.353 130.297 168.708C129.961 169.063 129.793 169.539 129.793 170.136V173.384C129.793 173.86 129.555 174.098 129.079 174.098ZM143.049 174.126C142.489 174.126 142.017 174.028 141.635 173.832C141.252 173.636 140.967 173.347 140.781 172.964C140.594 172.581 140.501 172.115 140.501 171.564V168.26H139.661C139.474 168.26 139.329 168.213 139.227 168.12C139.124 168.017 139.073 167.882 139.073 167.714C139.073 167.537 139.124 167.401 139.227 167.308C139.329 167.215 139.474 167.168 139.661 167.168H140.501V165.726C140.501 165.493 140.561 165.315 140.683 165.194C140.813 165.073 140.991 165.012 141.215 165.012C141.439 165.012 141.611 165.073 141.733 165.194C141.854 165.315 141.915 165.493 141.915 165.726V167.168H143.553C143.739 167.168 143.884 167.215 143.987 167.308C144.089 167.401 144.141 167.537 144.141 167.714C144.141 167.882 144.089 168.017 143.987 168.12C143.884 168.213 143.739 168.26 143.553 168.26H141.915V171.452C141.915 171.947 142.017 172.32 142.223 172.572C142.437 172.824 142.783 172.95 143.259 172.95C143.427 172.95 143.571 172.936 143.693 172.908C143.823 172.871 143.931 172.847 144.015 172.838C144.117 172.838 144.201 172.875 144.267 172.95C144.332 173.015 144.365 173.146 144.365 173.342C144.365 173.482 144.337 173.613 144.281 173.734C144.234 173.855 144.145 173.935 144.015 173.972C143.903 174.009 143.749 174.042 143.553 174.07C143.366 174.107 143.198 174.126 143.049 174.126ZM148.15 174.126C147.459 174.126 146.862 173.981 146.358 173.692C145.863 173.403 145.476 172.992 145.196 172.46C144.916 171.928 144.776 171.303 144.776 170.584C144.776 170.033 144.855 169.543 145.014 169.114C145.172 168.685 145.396 168.316 145.686 168.008C145.984 167.691 146.339 167.453 146.75 167.294C147.17 167.126 147.636 167.042 148.15 167.042C148.831 167.042 149.419 167.187 149.914 167.476C150.418 167.765 150.81 168.176 151.09 168.708C151.37 169.231 151.51 169.856 151.51 170.584C151.51 171.125 151.43 171.615 151.272 172.054C151.113 172.493 150.884 172.866 150.586 173.174C150.296 173.482 149.942 173.72 149.522 173.888C149.111 174.047 148.654 174.126 148.15 174.126ZM148.15 173.034C148.532 173.034 148.868 172.941 149.158 172.754C149.447 172.567 149.671 172.292 149.83 171.928C149.998 171.564 150.082 171.116 150.082 170.584C150.082 169.781 149.904 169.175 149.55 168.764C149.195 168.353 148.728 168.148 148.15 168.148C147.758 168.148 147.417 168.241 147.128 168.428C146.838 168.605 146.61 168.876 146.442 169.24C146.283 169.604 146.204 170.052 146.204 170.584C146.204 171.377 146.381 171.984 146.736 172.404C147.09 172.824 147.562 173.034 148.15 173.034ZM159.393 174.126C158.796 174.126 158.268 173.986 157.811 173.706C157.363 173.417 157.013 173.006 156.761 172.474C156.509 171.933 156.383 171.303 156.383 170.584C156.383 169.847 156.509 169.217 156.761 168.694C157.013 168.171 157.363 167.765 157.811 167.476C158.268 167.187 158.796 167.042 159.393 167.042C159.99 167.042 160.504 167.191 160.933 167.49C161.372 167.779 161.666 168.171 161.815 168.666H161.661V164.746C161.661 164.513 161.722 164.335 161.843 164.214C161.964 164.093 162.137 164.032 162.361 164.032C162.585 164.032 162.758 164.093 162.879 164.214C163.01 164.335 163.075 164.513 163.075 164.746V173.384C163.075 173.608 163.014 173.785 162.893 173.916C162.772 174.037 162.599 174.098 162.375 174.098C162.151 174.098 161.978 174.037 161.857 173.916C161.736 173.785 161.675 173.608 161.675 173.384V172.152L161.829 172.46C161.68 172.964 161.386 173.37 160.947 173.678C160.518 173.977 160 174.126 159.393 174.126ZM159.757 173.034C160.14 173.034 160.476 172.941 160.765 172.754C161.054 172.567 161.278 172.292 161.437 171.928C161.605 171.564 161.689 171.116 161.689 170.584C161.689 169.781 161.512 169.175 161.157 168.764C160.802 168.353 160.336 168.148 159.757 168.148C159.365 168.148 159.024 168.241 158.735 168.428C158.446 168.605 158.217 168.876 158.049 169.24C157.89 169.604 157.811 170.052 157.811 170.584C157.811 171.377 157.988 171.984 158.343 172.404C158.698 172.824 159.169 173.034 159.757 173.034ZM165.76 174.084C165.536 174.084 165.364 174.019 165.242 173.888C165.121 173.748 165.06 173.557 165.06 173.314V167.854C165.06 167.611 165.121 167.425 165.242 167.294C165.364 167.163 165.536 167.098 165.76 167.098C165.984 167.098 166.157 167.163 166.278 167.294C166.409 167.425 166.474 167.611 166.474 167.854V173.314C166.474 173.557 166.414 173.748 166.292 173.888C166.171 174.019 165.994 174.084 165.76 174.084ZM165.76 165.642C165.48 165.642 165.261 165.572 165.102 165.432C164.953 165.292 164.878 165.096 164.878 164.844C164.878 164.583 164.953 164.387 165.102 164.256C165.261 164.116 165.48 164.046 165.76 164.046C166.04 164.046 166.255 164.116 166.404 164.256C166.563 164.387 166.642 164.583 166.642 164.844C166.642 165.096 166.563 165.292 166.404 165.432C166.255 165.572 166.04 165.642 165.76 165.642ZM170.859 174.126C170.448 174.126 170.023 174.079 169.585 173.986C169.155 173.893 168.759 173.734 168.395 173.51C168.273 173.426 168.189 173.333 168.143 173.23C168.096 173.127 168.077 173.025 168.087 172.922C168.105 172.81 168.147 172.717 168.213 172.642C168.287 172.558 168.376 172.507 168.479 172.488C168.591 172.469 168.707 172.493 168.829 172.558C169.193 172.763 169.543 172.908 169.879 172.992C170.215 173.067 170.546 173.104 170.873 173.104C171.367 173.104 171.741 173.015 171.993 172.838C172.245 172.661 172.371 172.423 172.371 172.124C172.371 171.881 172.287 171.695 172.119 171.564C171.951 171.424 171.699 171.317 171.363 171.242L170.033 170.976C169.454 170.855 169.015 170.64 168.717 170.332C168.418 170.024 168.269 169.632 168.269 169.156C168.269 168.727 168.385 168.353 168.619 168.036C168.852 167.719 169.179 167.476 169.599 167.308C170.019 167.131 170.504 167.042 171.055 167.042C171.465 167.042 171.853 167.093 172.217 167.196C172.581 167.299 172.917 167.453 173.225 167.658C173.346 167.723 173.425 167.812 173.463 167.924C173.5 168.027 173.505 168.129 173.477 168.232C173.458 168.335 173.411 168.428 173.337 168.512C173.262 168.587 173.169 168.633 173.057 168.652C172.954 168.661 172.837 168.633 172.707 168.568C172.427 168.391 172.147 168.265 171.867 168.19C171.596 168.115 171.325 168.078 171.055 168.078C170.56 168.078 170.187 168.171 169.935 168.358C169.692 168.535 169.571 168.778 169.571 169.086C169.571 169.319 169.645 169.511 169.795 169.66C169.944 169.809 170.177 169.917 170.495 169.982L171.825 170.248C172.431 170.369 172.889 170.575 173.197 170.864C173.514 171.153 173.673 171.545 173.673 172.04C173.673 172.684 173.416 173.193 172.903 173.566C172.389 173.939 171.708 174.126 170.859 174.126ZM178.256 174.126C177.556 174.126 176.949 173.981 176.436 173.692C175.932 173.393 175.54 172.978 175.26 172.446C174.98 171.905 174.84 171.27 174.84 170.542C174.84 170.001 174.919 169.515 175.078 169.086C175.237 168.647 175.461 168.279 175.75 167.98C176.049 167.681 176.408 167.453 176.828 167.294C177.257 167.126 177.733 167.042 178.256 167.042C178.583 167.042 178.923 167.093 179.278 167.196C179.642 167.289 179.978 167.448 180.286 167.672C180.407 167.747 180.482 167.84 180.51 167.952C180.547 168.055 180.552 168.162 180.524 168.274C180.505 168.386 180.454 168.484 180.37 168.568C180.295 168.643 180.202 168.689 180.09 168.708C179.978 168.717 179.857 168.685 179.726 168.61C179.502 168.451 179.273 168.339 179.04 168.274C178.807 168.199 178.583 168.162 178.368 168.162C178.032 168.162 177.733 168.218 177.472 168.33C177.22 168.433 177.005 168.587 176.828 168.792C176.651 168.988 176.515 169.235 176.422 169.534C176.338 169.833 176.296 170.173 176.296 170.556C176.296 171.321 176.473 171.923 176.828 172.362C177.192 172.791 177.705 173.006 178.368 173.006C178.583 173.006 178.807 172.973 179.04 172.908C179.273 172.843 179.502 172.731 179.726 172.572C179.857 172.497 179.978 172.469 180.09 172.488C180.202 172.507 180.291 172.558 180.356 172.642C180.431 172.717 180.477 172.81 180.496 172.922C180.524 173.025 180.519 173.132 180.482 173.244C180.445 173.356 180.365 173.449 180.244 173.524C179.945 173.739 179.619 173.893 179.264 173.986C178.919 174.079 178.583 174.126 178.256 174.126ZM184.612 174.126C183.922 174.126 183.324 173.981 182.82 173.692C182.326 173.403 181.938 172.992 181.658 172.46C181.378 171.928 181.238 171.303 181.238 170.584C181.238 170.033 181.318 169.543 181.476 169.114C181.635 168.685 181.859 168.316 182.148 168.008C182.447 167.691 182.802 167.453 183.212 167.294C183.632 167.126 184.099 167.042 184.612 167.042C185.294 167.042 185.882 167.187 186.376 167.476C186.88 167.765 187.272 168.176 187.552 168.708C187.832 169.231 187.972 169.856 187.972 170.584C187.972 171.125 187.893 171.615 187.734 172.054C187.576 172.493 187.347 172.866 187.048 173.174C186.759 173.482 186.404 173.72 185.984 173.888C185.574 174.047 185.116 174.126 184.612 174.126ZM184.612 173.034C184.995 173.034 185.331 172.941 185.62 172.754C185.91 172.567 186.134 172.292 186.292 171.928C186.46 171.564 186.544 171.116 186.544 170.584C186.544 169.781 186.367 169.175 186.012 168.764C185.658 168.353 185.191 168.148 184.612 168.148C184.22 168.148 183.88 168.241 183.59 168.428C183.301 168.605 183.072 168.876 182.904 169.24C182.746 169.604 182.666 170.052 182.666 170.584C182.666 171.377 182.844 171.984 183.198 172.404C183.553 172.824 184.024 173.034 184.612 173.034ZM192.083 174.098C191.887 174.098 191.715 174.047 191.565 173.944C191.425 173.841 191.309 173.683 191.215 173.468L188.877 168.036C188.803 167.868 188.775 167.709 188.793 167.56C188.812 167.411 188.882 167.294 189.003 167.21C189.125 167.117 189.288 167.07 189.493 167.07C189.671 167.07 189.811 167.112 189.913 167.196C190.016 167.28 190.109 167.425 190.193 167.63L192.307 172.838H191.915L194.071 167.63C194.155 167.425 194.249 167.28 194.351 167.196C194.463 167.112 194.617 167.07 194.813 167.07C194.981 167.07 195.112 167.117 195.205 167.21C195.308 167.294 195.369 167.411 195.387 167.56C195.415 167.7 195.392 167.854 195.317 168.022L192.951 173.468C192.867 173.683 192.751 173.841 192.601 173.944C192.452 174.047 192.279 174.098 192.083 174.098ZM199.794 174.126C199.047 174.126 198.403 173.986 197.862 173.706C197.33 173.417 196.914 173.011 196.616 172.488C196.326 171.956 196.182 171.326 196.182 170.598C196.182 169.889 196.326 169.268 196.616 168.736C196.905 168.204 197.302 167.789 197.806 167.49C198.31 167.191 198.884 167.042 199.528 167.042C200.004 167.042 200.428 167.121 200.802 167.28C201.175 167.429 201.492 167.653 201.754 167.952C202.024 168.241 202.225 168.596 202.356 169.016C202.496 169.436 202.566 169.907 202.566 170.43C202.566 170.589 202.519 170.71 202.426 170.794C202.332 170.869 202.192 170.906 202.006 170.906H197.302V170.038H201.614L201.376 170.234C201.376 169.767 201.306 169.371 201.166 169.044C201.035 168.717 200.834 168.47 200.564 168.302C200.302 168.125 199.976 168.036 199.584 168.036C199.145 168.036 198.772 168.139 198.464 168.344C198.165 168.549 197.936 168.834 197.778 169.198C197.619 169.562 197.54 169.987 197.54 170.472V170.556C197.54 171.377 197.731 171.998 198.114 172.418C198.506 172.829 199.07 173.034 199.808 173.034C200.088 173.034 200.382 172.997 200.69 172.922C201.007 172.847 201.306 172.721 201.586 172.544C201.744 172.451 201.884 172.409 202.006 172.418C202.136 172.427 202.239 172.469 202.314 172.544C202.398 172.619 202.449 172.712 202.468 172.824C202.486 172.936 202.468 173.053 202.412 173.174C202.356 173.286 202.258 173.389 202.118 173.482C201.8 173.697 201.432 173.86 201.012 173.972C200.592 174.075 200.186 174.126 199.794 174.126ZM204.821 174.098C204.588 174.098 204.411 174.037 204.289 173.916C204.168 173.785 204.107 173.608 204.107 173.384V167.784C204.107 167.551 204.168 167.373 204.289 167.252C204.411 167.131 204.579 167.07 204.793 167.07C205.017 167.07 205.185 167.131 205.297 167.252C205.419 167.373 205.479 167.551 205.479 167.784V168.806H205.339C205.489 168.246 205.764 167.821 206.165 167.532C206.567 167.243 207.08 167.075 207.705 167.028C207.873 167.019 208.004 167.061 208.097 167.154C208.2 167.247 208.256 167.392 208.265 167.588C208.284 167.784 208.242 167.943 208.139 168.064C208.037 168.176 207.878 168.241 207.663 168.26L207.397 168.288C206.791 168.344 206.329 168.535 206.011 168.862C205.694 169.189 205.535 169.637 205.535 170.206V173.384C205.535 173.608 205.475 173.785 205.353 173.916C205.241 174.037 205.064 174.098 204.821 174.098ZM215.933 174.126C215.373 174.126 214.902 174.028 214.519 173.832C214.137 173.636 213.852 173.347 213.665 172.964C213.479 172.581 213.385 172.115 213.385 171.564V168.26H212.545C212.359 168.26 212.214 168.213 212.111 168.12C212.009 168.017 211.957 167.882 211.957 167.714C211.957 167.537 212.009 167.401 212.111 167.308C212.214 167.215 212.359 167.168 212.545 167.168H213.385V165.726C213.385 165.493 213.446 165.315 213.567 165.194C213.698 165.073 213.875 165.012 214.099 165.012C214.323 165.012 214.496 165.073 214.617 165.194C214.739 165.315 214.799 165.493 214.799 165.726V167.168H216.437C216.624 167.168 216.769 167.215 216.871 167.308C216.974 167.401 217.025 167.537 217.025 167.714C217.025 167.882 216.974 168.017 216.871 168.12C216.769 168.213 216.624 168.26 216.437 168.26H214.799V171.452C214.799 171.947 214.902 172.32 215.107 172.572C215.322 172.824 215.667 172.95 216.143 172.95C216.311 172.95 216.456 172.936 216.577 172.908C216.708 172.871 216.815 172.847 216.899 172.838C217.002 172.838 217.086 172.875 217.151 172.95C217.217 173.015 217.249 173.146 217.249 173.342C217.249 173.482 217.221 173.613 217.165 173.734C217.119 173.855 217.03 173.935 216.899 173.972C216.787 174.009 216.633 174.042 216.437 174.07C216.251 174.107 216.083 174.126 215.933 174.126ZM218.958 174.098C218.734 174.098 218.561 174.037 218.44 173.916C218.318 173.785 218.258 173.608 218.258 173.384V164.746C218.258 164.513 218.318 164.335 218.44 164.214C218.561 164.093 218.734 164.032 218.958 164.032C219.182 164.032 219.354 164.093 219.476 164.214C219.606 164.335 219.672 164.513 219.672 164.746V168.624H219.476C219.681 168.101 220.003 167.709 220.442 167.448C220.88 167.177 221.384 167.042 221.954 167.042C222.495 167.042 222.943 167.145 223.298 167.35C223.662 167.546 223.932 167.849 224.11 168.26C224.287 168.661 224.376 169.17 224.376 169.786V173.384C224.376 173.608 224.315 173.785 224.194 173.916C224.072 174.037 223.9 174.098 223.676 174.098C223.442 174.098 223.265 174.037 223.144 173.916C223.022 173.785 222.962 173.608 222.962 173.384V169.87C222.962 169.282 222.845 168.853 222.612 168.582C222.388 168.311 222.033 168.176 221.548 168.176C220.978 168.176 220.521 168.353 220.176 168.708C219.84 169.063 219.672 169.539 219.672 170.136V173.384C219.672 173.86 219.434 174.098 218.958 174.098ZM229.53 174.126C228.783 174.126 228.139 173.986 227.598 173.706C227.066 173.417 226.651 173.011 226.352 172.488C226.063 171.956 225.918 171.326 225.918 170.598C225.918 169.889 226.063 169.268 226.352 168.736C226.641 168.204 227.038 167.789 227.542 167.49C228.046 167.191 228.62 167.042 229.264 167.042C229.74 167.042 230.165 167.121 230.538 167.28C230.911 167.429 231.229 167.653 231.49 167.952C231.761 168.241 231.961 168.596 232.092 169.016C232.232 169.436 232.302 169.907 232.302 170.43C232.302 170.589 232.255 170.71 232.162 170.794C232.069 170.869 231.929 170.906 231.742 170.906H227.038V170.038H231.35L231.112 170.234C231.112 169.767 231.042 169.371 230.902 169.044C230.771 168.717 230.571 168.47 230.3 168.302C230.039 168.125 229.712 168.036 229.32 168.036C228.881 168.036 228.508 168.139 228.2 168.344C227.901 168.549 227.673 168.834 227.514 169.198C227.355 169.562 227.276 169.987 227.276 170.472V170.556C227.276 171.377 227.467 171.998 227.85 172.418C228.242 172.829 228.807 173.034 229.544 173.034C229.824 173.034 230.118 172.997 230.426 172.922C230.743 172.847 231.042 172.721 231.322 172.544C231.481 172.451 231.621 172.409 231.742 172.418C231.873 172.427 231.975 172.469 232.05 172.544C232.134 172.619 232.185 172.712 232.204 172.824C232.223 172.936 232.204 173.053 232.148 173.174C232.092 173.286 231.994 173.389 231.854 173.482C231.537 173.697 231.168 173.86 230.748 173.972C230.328 174.075 229.922 174.126 229.53 174.126ZM240.629 176.646C240.125 176.646 239.635 176.595 239.159 176.492C238.692 176.389 238.268 176.221 237.885 175.988C237.745 175.913 237.652 175.82 237.605 175.708C237.558 175.605 237.544 175.498 237.563 175.386C237.591 175.274 237.642 175.176 237.717 175.092C237.792 175.008 237.88 174.952 237.983 174.924C238.095 174.896 238.212 174.915 238.333 174.98C238.744 175.204 239.131 175.353 239.495 175.428C239.868 175.512 240.214 175.554 240.531 175.554C241.184 175.554 241.674 175.386 242.001 175.05C242.328 174.723 242.491 174.238 242.491 173.594V172.166H242.617C242.477 172.679 242.183 173.085 241.735 173.384C241.287 173.683 240.769 173.832 240.181 173.832C239.565 173.832 239.028 173.692 238.571 173.412C238.114 173.123 237.759 172.726 237.507 172.222C237.255 171.709 237.129 171.111 237.129 170.43C237.129 169.917 237.199 169.455 237.339 169.044C237.488 168.633 237.694 168.279 237.955 167.98C238.226 167.681 238.548 167.453 238.921 167.294C239.304 167.126 239.724 167.042 240.181 167.042C240.778 167.042 241.296 167.191 241.735 167.49C242.183 167.789 242.472 168.195 242.603 168.708L242.463 168.946V167.784C242.463 167.551 242.524 167.373 242.645 167.252C242.776 167.131 242.948 167.07 243.163 167.07C243.387 167.07 243.56 167.131 243.681 167.252C243.802 167.373 243.863 167.551 243.863 167.784V173.426C243.863 174.49 243.588 175.293 243.037 175.834C242.486 176.375 241.684 176.646 240.629 176.646ZM240.517 172.726C240.928 172.726 241.278 172.633 241.567 172.446C241.856 172.259 242.08 171.993 242.239 171.648C242.398 171.303 242.477 170.897 242.477 170.43C242.477 169.73 242.3 169.175 241.945 168.764C241.6 168.353 241.124 168.148 240.517 168.148C240.116 168.148 239.77 168.241 239.481 168.428C239.192 168.615 238.963 168.881 238.795 169.226C238.636 169.562 238.557 169.963 238.557 170.43C238.557 171.139 238.734 171.699 239.089 172.11C239.444 172.521 239.92 172.726 240.517 172.726ZM246.562 174.098C246.328 174.098 246.151 174.037 246.03 173.916C245.908 173.785 245.848 173.608 245.848 173.384V167.784C245.848 167.551 245.908 167.373 246.03 167.252C246.151 167.131 246.319 167.07 246.534 167.07C246.758 167.07 246.926 167.131 247.038 167.252C247.159 167.373 247.22 167.551 247.22 167.784V168.806H247.08C247.229 168.246 247.504 167.821 247.906 167.532C248.307 167.243 248.82 167.075 249.446 167.028C249.614 167.019 249.744 167.061 249.838 167.154C249.94 167.247 249.996 167.392 250.006 167.588C250.024 167.784 249.982 167.943 249.88 168.064C249.777 168.176 249.618 168.241 249.404 168.26L249.138 168.288C248.531 168.344 248.069 168.535 247.752 168.862C247.434 169.189 247.276 169.637 247.276 170.206V173.384C247.276 173.608 247.215 173.785 247.094 173.916C246.982 174.037 246.804 174.098 246.562 174.098ZM254.18 174.126C253.434 174.126 252.79 173.986 252.248 173.706C251.716 173.417 251.301 173.011 251.002 172.488C250.713 171.956 250.568 171.326 250.568 170.598C250.568 169.889 250.713 169.268 251.002 168.736C251.292 168.204 251.688 167.789 252.192 167.49C252.696 167.191 253.27 167.042 253.914 167.042C254.39 167.042 254.815 167.121 255.188 167.28C255.562 167.429 255.879 167.653 256.14 167.952C256.411 168.241 256.612 168.596 256.742 169.016C256.882 169.436 256.952 169.907 256.952 170.43C256.952 170.589 256.906 170.71 256.812 170.794C256.719 170.869 256.579 170.906 256.392 170.906H251.688V170.038H256L255.762 170.234C255.762 169.767 255.692 169.371 255.552 169.044C255.422 168.717 255.221 168.47 254.95 168.302C254.689 168.125 254.362 168.036 253.97 168.036C253.532 168.036 253.158 168.139 252.85 168.344C252.552 168.549 252.323 168.834 252.164 169.198C252.006 169.562 251.926 169.987 251.926 170.472V170.556C251.926 171.377 252.118 171.998 252.5 172.418C252.892 172.829 253.457 173.034 254.194 173.034C254.474 173.034 254.768 172.997 255.076 172.922C255.394 172.847 255.692 172.721 255.972 172.544C256.131 172.451 256.271 172.409 256.392 172.418C256.523 172.427 256.626 172.469 256.7 172.544C256.784 172.619 256.836 172.712 256.854 172.824C256.873 172.936 256.854 173.053 256.798 173.174C256.742 173.286 256.644 173.389 256.504 173.482C256.187 173.697 255.818 173.86 255.398 173.972C254.978 174.075 254.572 174.126 254.18 174.126ZM260.678 174.126C260.202 174.126 259.773 174.033 259.39 173.846C259.017 173.659 258.723 173.407 258.508 173.09C258.293 172.773 258.186 172.413 258.186 172.012C258.186 171.508 258.312 171.111 258.564 170.822C258.825 170.523 259.25 170.313 259.838 170.192C260.435 170.061 261.238 169.996 262.246 169.996H262.904V170.864H262.26C261.588 170.864 261.056 170.897 260.664 170.962C260.272 171.027 259.992 171.139 259.824 171.298C259.665 171.447 259.586 171.657 259.586 171.928C259.586 172.283 259.707 172.572 259.95 172.796C260.193 173.011 260.529 173.118 260.958 173.118C261.303 173.118 261.607 173.039 261.868 172.88C262.129 172.712 262.335 172.488 262.484 172.208C262.643 171.928 262.722 171.606 262.722 171.242V169.632C262.722 169.1 262.61 168.717 262.386 168.484C262.162 168.251 261.793 168.134 261.28 168.134C260.981 168.134 260.669 168.171 260.342 168.246C260.025 168.321 259.693 168.447 259.348 168.624C259.189 168.699 259.054 168.722 258.942 168.694C258.83 168.666 258.741 168.605 258.676 168.512C258.611 168.409 258.573 168.302 258.564 168.19C258.564 168.069 258.592 167.952 258.648 167.84C258.713 167.728 258.821 167.644 258.97 167.588C259.381 167.392 259.787 167.252 260.188 167.168C260.589 167.084 260.967 167.042 261.322 167.042C261.947 167.042 262.461 167.14 262.862 167.336C263.273 167.532 263.576 167.831 263.772 168.232C263.968 168.633 264.066 169.151 264.066 169.786V173.384C264.066 173.608 264.01 173.785 263.898 173.916C263.786 174.037 263.623 174.098 263.408 174.098C263.203 174.098 263.039 174.037 262.918 173.916C262.797 173.785 262.736 173.608 262.736 173.384V172.474H262.862C262.787 172.819 262.647 173.118 262.442 173.37C262.246 173.613 261.999 173.799 261.7 173.93C261.401 174.061 261.061 174.126 260.678 174.126ZM268.926 174.126C268.366 174.126 267.894 174.028 267.512 173.832C267.129 173.636 266.844 173.347 266.658 172.964C266.471 172.581 266.378 172.115 266.378 171.564V168.26H265.538C265.351 168.26 265.206 168.213 265.104 168.12C265.001 168.017 264.95 167.882 264.95 167.714C264.95 167.537 265.001 167.401 265.104 167.308C265.206 167.215 265.351 167.168 265.538 167.168H266.378V165.726C266.378 165.493 266.438 165.315 266.56 165.194C266.69 165.073 266.868 165.012 267.092 165.012C267.316 165.012 267.488 165.073 267.61 165.194C267.731 165.315 267.792 165.493 267.792 165.726V167.168H269.43C269.616 167.168 269.761 167.215 269.864 167.308C269.966 167.401 270.018 167.537 270.018 167.714C270.018 167.882 269.966 168.017 269.864 168.12C269.761 168.213 269.616 168.26 269.43 168.26H267.792V171.452C267.792 171.947 267.894 172.32 268.1 172.572C268.314 172.824 268.66 172.95 269.136 172.95C269.304 172.95 269.448 172.936 269.57 172.908C269.7 172.871 269.808 172.847 269.892 172.838C269.994 172.838 270.078 172.875 270.144 172.95C270.209 173.015 270.242 173.146 270.242 173.342C270.242 173.482 270.214 173.613 270.158 173.734C270.111 173.855 270.022 173.935 269.892 173.972C269.78 174.009 269.626 174.042 269.43 174.07C269.243 174.107 269.075 174.126 268.926 174.126ZM277.31 174.098C277.114 174.098 276.942 174.051 276.792 173.958C276.652 173.855 276.54 173.697 276.456 173.482L274.398 168.036C274.324 167.849 274.3 167.686 274.328 167.546C274.356 167.397 274.426 167.28 274.538 167.196C274.66 167.112 274.814 167.07 275 167.07C275.168 167.07 275.304 167.112 275.406 167.196C275.518 167.271 275.612 167.42 275.686 167.644L277.52 172.81H277.184L279.088 167.588C279.154 167.411 279.242 167.28 279.354 167.196C279.466 167.112 279.611 167.07 279.788 167.07C279.966 167.07 280.11 167.112 280.222 167.196C280.344 167.28 280.432 167.411 280.488 167.588L282.35 172.81H282.042L283.904 167.616C283.979 167.401 284.072 167.257 284.184 167.182C284.306 167.107 284.441 167.07 284.59 167.07C284.777 167.07 284.917 167.117 285.01 167.21C285.113 167.303 285.169 167.425 285.178 167.574C285.197 167.714 285.174 167.868 285.108 168.036L283.05 173.482C282.966 173.687 282.85 173.841 282.7 173.944C282.56 174.047 282.397 174.098 282.21 174.098C282.014 174.098 281.842 174.047 281.692 173.944C281.552 173.841 281.44 173.687 281.356 173.482L279.396 168.176H280.096L278.15 173.482C278.076 173.687 277.964 173.841 277.814 173.944C277.674 174.047 277.506 174.098 277.31 174.098ZM287.358 174.084C287.134 174.084 286.961 174.019 286.84 173.888C286.719 173.748 286.658 173.557 286.658 173.314V167.854C286.658 167.611 286.719 167.425 286.84 167.294C286.961 167.163 287.134 167.098 287.358 167.098C287.582 167.098 287.755 167.163 287.876 167.294C288.007 167.425 288.072 167.611 288.072 167.854V173.314C288.072 173.557 288.011 173.748 287.89 173.888C287.769 174.019 287.591 174.084 287.358 174.084ZM287.358 165.642C287.078 165.642 286.859 165.572 286.7 165.432C286.551 165.292 286.476 165.096 286.476 164.844C286.476 164.583 286.551 164.387 286.7 164.256C286.859 164.116 287.078 164.046 287.358 164.046C287.638 164.046 287.853 164.116 288.002 164.256C288.161 164.387 288.24 164.583 288.24 164.844C288.24 165.096 288.161 165.292 288.002 165.432C287.853 165.572 287.638 165.642 287.358 165.642ZM290.762 174.098C290.538 174.098 290.366 174.037 290.244 173.916C290.123 173.785 290.062 173.608 290.062 173.384V167.784C290.062 167.551 290.123 167.373 290.244 167.252C290.366 167.131 290.534 167.07 290.748 167.07C290.972 167.07 291.14 167.131 291.252 167.252C291.374 167.373 291.434 167.551 291.434 167.784V168.876L291.28 168.624C291.486 168.101 291.808 167.709 292.246 167.448C292.685 167.177 293.189 167.042 293.758 167.042C294.3 167.042 294.748 167.145 295.102 167.35C295.466 167.546 295.737 167.849 295.914 168.26C296.092 168.661 296.18 169.17 296.18 169.786V173.384C296.18 173.608 296.12 173.785 295.998 173.916C295.877 174.037 295.704 174.098 295.48 174.098C295.247 174.098 295.07 174.037 294.948 173.916C294.827 173.785 294.766 173.608 294.766 173.384V169.87C294.766 169.282 294.65 168.853 294.416 168.582C294.192 168.311 293.838 168.176 293.352 168.176C292.783 168.176 292.326 168.353 291.98 168.708C291.644 169.063 291.476 169.539 291.476 170.136V173.384C291.476 173.86 291.238 174.098 290.762 174.098ZM298.829 174.098C298.605 174.098 298.432 174.037 298.311 173.916C298.189 173.785 298.129 173.608 298.129 173.384V167.784C298.129 167.551 298.189 167.373 298.311 167.252C298.432 167.131 298.6 167.07 298.815 167.07C299.039 167.07 299.207 167.131 299.319 167.252C299.44 167.373 299.501 167.551 299.501 167.784V168.876L299.347 168.624C299.552 168.101 299.874 167.709 300.313 167.448C300.751 167.177 301.255 167.042 301.825 167.042C302.366 167.042 302.814 167.145 303.169 167.35C303.533 167.546 303.803 167.849 303.981 168.26C304.158 168.661 304.247 169.17 304.247 169.786V173.384C304.247 173.608 304.186 173.785 304.065 173.916C303.943 174.037 303.771 174.098 303.547 174.098C303.313 174.098 303.136 174.037 303.015 173.916C302.893 173.785 302.833 173.608 302.833 173.384V169.87C302.833 169.282 302.716 168.853 302.483 168.582C302.259 168.311 301.904 168.176 301.419 168.176C300.849 168.176 300.392 168.353 300.047 168.708C299.711 169.063 299.543 169.539 299.543 170.136V173.384C299.543 173.86 299.305 174.098 298.829 174.098ZM309.401 174.126C308.655 174.126 308.011 173.986 307.469 173.706C306.937 173.417 306.522 173.011 306.223 172.488C305.934 171.956 305.789 171.326 305.789 170.598C305.789 169.889 305.934 169.268 306.223 168.736C306.513 168.204 306.909 167.789 307.413 167.49C307.917 167.191 308.491 167.042 309.135 167.042C309.611 167.042 310.036 167.121 310.409 167.28C310.783 167.429 311.1 167.653 311.361 167.952C311.632 168.241 311.833 168.596 311.963 169.016C312.103 169.436 312.173 169.907 312.173 170.43C312.173 170.589 312.127 170.71 312.033 170.794C311.94 170.869 311.8 170.906 311.613 170.906H306.909V170.038H311.221L310.983 170.234C310.983 169.767 310.913 169.371 310.773 169.044C310.643 168.717 310.442 168.47 310.171 168.302C309.91 168.125 309.583 168.036 309.191 168.036C308.753 168.036 308.379 168.139 308.071 168.344C307.773 168.549 307.544 168.834 307.385 169.198C307.227 169.562 307.147 169.987 307.147 170.472V170.556C307.147 171.377 307.339 171.998 307.721 172.418C308.113 172.829 308.678 173.034 309.415 173.034C309.695 173.034 309.989 172.997 310.297 172.922C310.615 172.847 310.913 172.721 311.193 172.544C311.352 172.451 311.492 172.409 311.613 172.418C311.744 172.427 311.847 172.469 311.921 172.544C312.005 172.619 312.057 172.712 312.075 172.824C312.094 172.936 312.075 173.053 312.019 173.174C311.963 173.286 311.865 173.389 311.725 173.482C311.408 173.697 311.039 173.86 310.619 173.972C310.199 174.075 309.793 174.126 309.401 174.126ZM314.429 174.098C314.195 174.098 314.018 174.037 313.897 173.916C313.775 173.785 313.715 173.608 313.715 173.384V167.784C313.715 167.551 313.775 167.373 313.897 167.252C314.018 167.131 314.186 167.07 314.401 167.07C314.625 167.07 314.793 167.131 314.905 167.252C315.026 167.373 315.087 167.551 315.087 167.784V168.806H314.947C315.096 168.246 315.371 167.821 315.773 167.532C316.174 167.243 316.687 167.075 317.313 167.028C317.481 167.019 317.611 167.061 317.705 167.154C317.807 167.247 317.863 167.392 317.873 167.588C317.891 167.784 317.849 167.943 317.747 168.064C317.644 168.176 317.485 168.241 317.271 168.26L317.005 168.288C316.398 168.344 315.936 168.535 315.619 168.862C315.301 169.189 315.143 169.637 315.143 170.206V173.384C315.143 173.608 315.082 173.785 314.961 173.916C314.849 174.037 314.671 174.098 314.429 174.098Z" fill="#252831"/>
</g>
<defs>
<linearGradient id="paint0_linear_41580_197349" x1="3.73333" y1="4.80312" x2="367.571" y2="166.452" gradientUnits="userSpaceOnUse">
<stop stop-color="#A1803B"/>
<stop offset="0.541667" stop-color="#FDE28F"/>
<stop offset="1" stop-color="#D8BC74"/>
</linearGradient>
</defs>
</svg>
