<svg width="358" height="504" viewBox="0 0 358 504" fill="none" xmlns="http://www.w3.org/2000/svg">
<mask id="mask0_41897_195403" style="mask-type:alpha" maskUnits="userSpaceOnUse" x="0" y="0" width="358" height="161">
<mask id="path-1-inside-1_41897_195403" fill="white">
<path fill-rule="evenodd" clip-rule="evenodd" d="M32 56.2174L21 56.2174C16.5817 56.2174 13 59.7991 13 64.2174V161H358V64.2174C358 59.7991 354.418 56.2174 350 56.2174L108 56.2174V86.0001C108 106.987 90.9868 124 70 124C49.0132 124 32 106.987 32 86.0001V56.2174Z"/>
</mask>
<path fill-rule="evenodd" clip-rule="evenodd" d="M32 56.2174L21 56.2174C16.5817 56.2174 13 59.7991 13 64.2174V161H358V64.2174C358 59.7991 354.418 56.2174 350 56.2174L108 56.2174V86.0001C108 106.987 90.9868 124 70 124C49.0132 124 32 106.987 32 86.0001V56.2174Z" fill="#86DF77"/>
<path d="M21 56.2174V57.2174V56.2174ZM32 56.2174H33V55.2174H32V56.2174ZM13 161H12V162H13V161ZM358 161V162H359V161H358ZM350 56.2174V55.2174V56.2174ZM108 56.2174V55.2174H107V56.2174H108ZM21 57.2174L32 57.2174V55.2174L21 55.2174V57.2174ZM14 64.2174C14 60.3514 17.134 57.2174 21 57.2174V55.2174C16.0294 55.2174 12 59.2468 12 64.2174H14ZM14 161V64.2174H12V161H14ZM358 160H13V162H358V160ZM357 64.2174V161H359V64.2174H357ZM350 57.2174C353.866 57.2174 357 60.3514 357 64.2174H359C359 59.2468 354.971 55.2174 350 55.2174V57.2174ZM108 57.2174L350 57.2174V55.2174L108 55.2174V57.2174ZM107 56.2174V86.0001H109V56.2174H107ZM107 86.0001C107 106.435 90.4345 123 70 123V125C91.5391 125 109 107.539 109 86.0001H107ZM70 123C49.5655 123 33 106.435 33 86.0001H31C31 107.539 48.4609 125 70 125V123ZM33 86.0001V56.2174H31V86.0001H33Z" fill="#86DF77" mask="url(#path-1-inside-1_41897_195403)"/>
<path d="M89 77.5C89 75.7761 88.3152 74.1228 87.0962 72.9038C85.8772 71.6848 84.2239 71 82.5 71C81.6464 71 80.8012 71.1681 80.0126 71.4948C79.224 71.8214 78.5074 72.3002 77.9038 72.9038C77.3002 73.5074 76.8214 74.2239 76.4948 75.0126C76.1681 75.8012 76 76.6464 76 77.5C76 78.3536 76.1681 79.1988 76.4948 79.9874C76.8214 80.7761 77.3002 81.4926 77.9038 82.0962C78.5074 82.6998 79.224 83.1786 80.0126 83.5052C80.8012 83.8319 81.6464 84 82.5 84C84.2239 84 85.8772 83.3152 87.0962 82.0962C88.3152 80.8772 89 79.2239 89 77.5Z" fill="#86DF77"/>
<path d="M135.073 37.801H109.747C108.759 27.4461 104.093 17.8419 96.6542 10.8556C89.2158 3.86926 79.5372 0 69.5 0C59.4628 0 49.7842 3.86926 42.3458 10.8556C34.9073 17.8419 30.2406 27.4461 29.2528 37.801H3.92655C2.88517 37.801 1.88643 38.2298 1.15006 38.9932C0.413686 39.7566 0 40.792 0 41.8716C0 42.9512 0.413686 43.9865 1.15006 44.7499C1.88643 45.5133 2.88517 45.9422 3.92655 45.9422H102.09V88.0728C102.44 92.7438 101.854 97.4393 100.37 101.864C98.8855 106.29 96.5348 110.349 93.4652 113.787C90.3956 117.226 86.6735 119.969 82.5325 121.846C78.3915 123.722 73.9211 124.691 69.4018 124.691C64.8826 124.691 60.4121 123.722 56.2711 121.846C52.1302 119.969 48.408 117.226 45.3385 113.787C42.2689 110.349 39.9182 106.29 38.4339 101.864C36.9496 97.4393 36.3638 92.7438 36.7133 88.0728V64.2598H61.8432L50.4562 95.807C50.267 96.4223 50.2218 97.0754 50.3242 97.7124C50.4266 98.3495 50.6737 98.9521 51.0452 99.4705C51.3865 100.002 51.8559 100.432 52.4069 100.718C52.9579 101.003 53.5714 101.135 54.1864 101.099H70.678C71.1848 101.099 71.6865 100.993 72.1523 100.786C72.6182 100.579 73.0385 100.276 73.3876 99.8951C73.7366 99.5142 74.0072 99.0635 74.1826 98.5706C74.3581 98.0777 74.4349 97.5528 74.4082 97.0282C74.4367 96.5126 74.3597 95.9966 74.1823 95.5141C74.0049 95.0315 73.7312 94.5933 73.3789 94.2281C73.0267 93.863 72.604 93.5791 72.1385 93.3952C71.673 93.2114 71.1753 93.1316 70.678 93.1611H59.6836L70.8743 61.614C71.1486 61.027 71.2572 60.3717 71.1877 59.7235C71.1183 59.0753 70.8735 58.4606 70.4816 57.9504C70.1162 57.4286 69.6463 56.9948 69.1041 56.6786C68.562 56.3625 67.9603 56.1715 67.3404 56.1187H32.7867C32.2799 56.1179 31.7782 56.2243 31.3124 56.4312C30.8465 56.6382 30.4262 56.9414 30.0771 57.3223C29.7281 57.7032 29.4575 58.1539 29.282 58.6468C29.1066 59.1397 29.0298 59.6646 29.0565 60.1893V60.5963V88.0728C29.0565 99.1926 33.3175 109.857 40.9021 117.72C48.4868 125.583 58.7737 130 69.5 130C80.2263 130 90.5133 125.583 98.0979 117.72C105.683 109.857 109.944 99.1926 109.944 88.0728V45.9422H135.073C136.115 45.9422 137.114 45.5133 137.85 44.7499C138.586 43.9865 139 42.9512 139 41.8716C139 40.792 138.586 39.7566 137.85 38.9932C137.114 38.2298 136.115 37.801 135.073 37.801ZM37.1059 37.801C37.9855 29.5316 41.7771 21.8895 47.7546 16.3384C53.732 10.7874 61.475 7.71791 69.5 7.71791C77.5251 7.71791 85.268 10.7874 91.2454 16.3384C97.2229 21.8895 101.015 29.5316 101.894 37.801H37.1059Z" fill="#86DF77"/>
</mask>
<g mask="url(#mask0_41897_195403)">
<rect y="-1" width="358" height="162" fill="url(#paint0_linear_41897_195403)"/>
</g>
<path d="M13 161H358V344C358 432.366 286.366 504 198 504H173C84.6344 504 13 432.366 13 344V161Z" fill="white"/>
<defs>
<linearGradient id="paint0_linear_41897_195403" x1="10.9787" y1="-0.999995" x2="336.955" y2="195.849" gradientUnits="userSpaceOnUse">
<stop stop-color="#98F183"/>
<stop offset="1" stop-color="#11BF67"/>
</linearGradient>
</defs>
</svg>
