<svg width="358" height="161" viewBox="0 0 358 161" fill="none" xmlns="http://www.w3.org/2000/svg">
<mask id="mask0_41580_196893" style="mask-type:alpha" maskUnits="userSpaceOnUse" x="0" y="0" width="358" height="161">
<mask id="path-1-inside-1_41580_196893" fill="white">
<path fill-rule="evenodd" clip-rule="evenodd" d="M32 56.2174L21 56.2174C16.5817 56.2174 13 59.7991 13 64.2174V161H358V64.2174C358 59.7991 354.418 56.2174 350 56.2174L108 56.2174V86.0001C108 106.987 90.9868 124 70 124C49.0132 124 32 106.987 32 86.0001V56.2174Z"/>
</mask>
<path fill-rule="evenodd" clip-rule="evenodd" d="M32 56.2174L21 56.2174C16.5817 56.2174 13 59.7991 13 64.2174V161H358V64.2174C358 59.7991 354.418 56.2174 350 56.2174L108 56.2174V86.0001C108 106.987 90.9868 124 70 124C49.0132 124 32 106.987 32 86.0001V56.2174Z" fill="#86DF77"/>
<path d="M21 56.2174V57.2174V56.2174ZM32 56.2174H33V55.2174H32V56.2174ZM13 161H12V162H13V161ZM358 161V162H359V161H358ZM350 56.2174V55.2174V56.2174ZM108 56.2174V55.2174H107V56.2174H108ZM21 57.2174L32 57.2174V55.2174L21 55.2174V57.2174ZM14 64.2174C14 60.3514 17.134 57.2174 21 57.2174V55.2174C16.0294 55.2174 12 59.2468 12 64.2174H14ZM14 161V64.2174H12V161H14ZM358 160H13V162H358V160ZM357 64.2174V161H359V64.2174H357ZM350 57.2174C353.866 57.2174 357 60.3514 357 64.2174H359C359 59.2468 354.971 55.2174 350 55.2174V57.2174ZM108 57.2174L350 57.2174V55.2174L108 55.2174V57.2174ZM107 56.2174V86.0001H109V56.2174H107ZM107 86.0001C107 106.435 90.4345 123 70 123V125C91.5391 125 109 107.539 109 86.0001H107ZM70 123C49.5655 123 33 106.435 33 86.0001H31C31 107.539 48.4609 125 70 125V123ZM33 86.0001V56.2174H31V86.0001H33Z" fill="#86DF77" mask="url(#path-1-inside-1_41580_196893)"/>
<path d="M89 77.5C89 75.7761 88.3152 74.1228 87.0962 72.9038C85.8772 71.6848 84.2239 71 82.5 71C81.6464 71 80.8012 71.1681 80.0126 71.4948C79.224 71.8214 78.5074 72.3002 77.9038 72.9038C77.3002 73.5074 76.8214 74.2239 76.4948 75.0126C76.1681 75.8012 76 76.6464 76 77.5C76 78.3536 76.1681 79.1988 76.4948 79.9874C76.8214 80.7761 77.3002 81.4926 77.9038 82.0962C78.5074 82.6998 79.224 83.1786 80.0126 83.5052C80.8012 83.8319 81.6464 84 82.5 84C84.2239 84 85.8772 83.3152 87.0962 82.0962C88.3152 80.8772 89 79.2239 89 77.5V77.5Z" fill="#86DF77"/>
<path d="M135.073 37.801H109.747C108.759 27.4461 104.093 17.8419 96.6542 10.8556C89.2158 3.86926 79.5372 0 69.5 0C59.4628 0 49.7842 3.86926 42.3458 10.8556C34.9073 17.8419 30.2406 27.4461 29.2528 37.801H3.92655C2.88517 37.801 1.88643 38.2298 1.15006 38.9932C0.413686 39.7566 0 40.792 0 41.8716C0 42.9512 0.413686 43.9865 1.15006 44.7499C1.88643 45.5133 2.88517 45.9422 3.92655 45.9422H102.09V88.0728C102.44 92.7438 101.854 97.4393 100.37 101.864C98.8855 106.29 96.5347 110.349 93.4652 113.787C90.3956 117.226 86.6735 119.969 82.5325 121.846C78.3915 123.722 73.9211 124.691 69.4018 124.691C64.8826 124.691 60.4121 123.722 56.2712 121.846C52.1302 119.969 48.408 117.226 45.3385 113.787C42.2689 110.349 39.9182 106.29 38.4339 101.864C36.9496 97.4393 36.3638 92.7438 36.7133 88.0728V64.2598H61.8432L50.4562 95.807C50.267 96.4223 50.2218 97.0754 50.3242 97.7124C50.4266 98.3495 50.6737 98.9521 51.0452 99.4705C51.3865 100.002 51.8559 100.432 52.4069 100.718C52.9579 101.003 53.5714 101.135 54.1864 101.099H70.678C71.1848 101.099 71.6865 100.993 72.1523 100.786C72.6182 100.579 73.0385 100.276 73.3876 99.8951C73.7366 99.5142 74.0072 99.0635 74.1826 98.5706C74.3581 98.0777 74.4349 97.5528 74.4082 97.0282C74.4367 96.5126 74.3597 95.9966 74.1823 95.5141C74.0049 95.0315 73.7312 94.5933 73.3789 94.2281C73.0267 93.863 72.604 93.5791 72.1385 93.3952C71.673 93.2114 71.1753 93.1316 70.678 93.1611H59.6836L70.8743 61.614C71.1486 61.027 71.2572 60.3717 71.1877 59.7235C71.1183 59.0753 70.8735 58.4606 70.4816 57.9504C70.1162 57.4286 69.6463 56.9948 69.1041 56.6786C68.562 56.3625 67.9603 56.1715 67.3404 56.1187H32.7867C32.2799 56.1179 31.7782 56.2243 31.3124 56.4312C30.8465 56.6382 30.4262 56.9414 30.0771 57.3223C29.7281 57.7032 29.4575 58.1539 29.282 58.6468C29.1066 59.1397 29.0298 59.6646 29.0565 60.1893V60.5963V88.0728C29.0565 99.1926 33.3175 109.857 40.9021 117.72C48.4868 125.583 58.7737 130 69.5 130C80.2263 130 90.5133 125.583 98.0979 117.72C105.683 109.857 109.944 99.1926 109.944 88.0728V45.9422H135.073C136.115 45.9422 137.114 45.5133 137.85 44.7499C138.586 43.9865 139 42.9512 139 41.8716C139 40.792 138.586 39.7566 137.85 38.9932C137.114 38.2298 136.115 37.801 135.073 37.801ZM37.1059 37.801C37.9855 29.5316 41.7771 21.8895 47.7546 16.3384C53.732 10.7874 61.475 7.71791 69.5 7.71791C77.5251 7.71791 85.268 10.7874 91.2454 16.3384C97.2229 21.8895 101.015 29.5316 101.894 37.801H37.1059Z" fill="#86DF77"/>
</mask>
<g mask="url(#mask0_41580_196893)">
<rect y="-1" width="358" height="162" fill="url(#paint0_linear_41580_196893)"/>
<path d="M116.87 91.3V100.267L110.57 91.3H108.365V106H111.263V97.012L117.563 106H119.768V91.3H116.87ZM125.393 103.228V99.931H130.958V97.201H125.393V94.072H131.483V91.3H122.495V106H131.588V103.228H125.393ZM136.697 106H139.994L142.745 96.298L145.517 106H148.814L152.93 91.3H149.885L147.071 102.199L143.984 91.3H141.506L138.44 102.199L135.626 91.3H132.581L136.697 106ZM162.758 103.228V91.3H159.86V106H168.365V103.228H162.758ZM176.06 106.294C180.302 106.294 183.704 102.934 183.704 98.65C183.704 94.345 180.302 91.006 176.06 91.006C171.818 91.006 168.437 94.345 168.437 98.65C168.437 102.934 171.818 106.294 176.06 106.294ZM176.06 103.459C173.393 103.459 171.314 101.464 171.314 98.65C171.314 95.815 173.393 93.82 176.06 93.82C178.727 93.82 180.806 95.815 180.806 98.65C180.806 101.464 178.727 103.459 176.06 103.459ZM194.623 91.3H183.808V94.072H187.756V106H190.654V94.072H194.623V91.3ZM205.964 91.3H195.149V94.072H199.097V106H201.995V94.072H205.964V91.3ZM210.48 103.228V99.931H216.045V97.201H210.48V94.072H216.57V91.3H207.582V106H216.675V103.228H210.48ZM226.782 106H229.911L226.656 100.456C228.336 99.679 229.491 98.02 229.491 96.172C229.491 93.484 227.307 91.3 224.598 91.3H218.718V106H221.616V100.897H223.821L226.782 106ZM221.616 94.009H224.598C225.69 94.009 226.593 94.954 226.593 96.172C226.593 97.39 225.69 98.356 224.598 98.356H221.616V94.009ZM242.841 91.3H239.565L236.373 97.432L233.181 91.3H229.905L234.924 100.267V106H237.801V100.267L242.841 91.3Z" fill="#252831"/>
<path d="M111.438 129.126C111.009 129.126 110.589 129.093 110.178 129.028C109.767 128.963 109.38 128.865 109.016 128.734C108.652 128.594 108.325 128.426 108.036 128.23C107.896 128.127 107.798 128.011 107.742 127.88C107.695 127.749 107.681 127.623 107.7 127.502C107.728 127.371 107.784 127.259 107.868 127.166C107.952 127.073 108.055 127.017 108.176 126.998C108.297 126.97 108.433 127.007 108.582 127.11C109.002 127.381 109.445 127.581 109.912 127.712C110.379 127.833 110.887 127.894 111.438 127.894C112.231 127.894 112.815 127.754 113.188 127.474C113.571 127.185 113.762 126.811 113.762 126.354C113.762 125.981 113.627 125.687 113.356 125.472C113.085 125.248 112.633 125.071 111.998 124.94L110.5 124.632C109.613 124.445 108.951 124.137 108.512 123.708C108.083 123.279 107.868 122.7 107.868 121.972C107.868 121.533 107.957 121.132 108.134 120.768C108.321 120.404 108.577 120.091 108.904 119.83C109.231 119.559 109.623 119.354 110.08 119.214C110.537 119.074 111.037 119.004 111.578 119.004C112.157 119.004 112.698 119.079 113.202 119.228C113.715 119.377 114.173 119.606 114.574 119.914C114.695 119.998 114.775 120.105 114.812 120.236C114.859 120.357 114.868 120.479 114.84 120.6C114.821 120.721 114.77 120.824 114.686 120.908C114.602 120.992 114.495 121.043 114.364 121.062C114.233 121.071 114.089 121.025 113.93 120.922C113.566 120.679 113.193 120.507 112.81 120.404C112.437 120.292 112.021 120.236 111.564 120.236C111.107 120.236 110.705 120.306 110.36 120.446C110.024 120.586 109.763 120.782 109.576 121.034C109.399 121.286 109.31 121.585 109.31 121.93C109.31 122.322 109.436 122.635 109.688 122.868C109.94 123.101 110.36 123.279 110.948 123.4L112.432 123.708C113.365 123.904 114.061 124.207 114.518 124.618C114.975 125.029 115.204 125.575 115.204 126.256C115.204 126.695 115.115 127.091 114.938 127.446C114.761 127.791 114.509 128.09 114.182 128.342C113.855 128.594 113.459 128.79 112.992 128.93C112.535 129.061 112.017 129.126 111.438 129.126ZM117.403 131.618C117.179 131.618 117.006 131.557 116.885 131.436C116.764 131.315 116.703 131.137 116.703 130.904V122.784C116.703 122.551 116.764 122.373 116.885 122.252C117.006 122.131 117.174 122.07 117.389 122.07C117.613 122.07 117.786 122.131 117.907 122.252C118.028 122.373 118.089 122.551 118.089 122.784V124.002L117.935 123.708C118.084 123.204 118.378 122.803 118.817 122.504C119.256 122.196 119.774 122.042 120.371 122.042C120.978 122.042 121.505 122.187 121.953 122.476C122.41 122.765 122.76 123.171 123.003 123.694C123.255 124.217 123.381 124.847 123.381 125.584C123.381 126.303 123.255 126.933 123.003 127.474C122.76 128.006 122.415 128.417 121.967 128.706C121.519 128.986 120.987 129.126 120.371 129.126C119.783 129.126 119.27 128.977 118.831 128.678C118.392 128.379 118.098 127.983 117.949 127.488H118.117V130.904C118.117 131.137 118.052 131.315 117.921 131.436C117.8 131.557 117.627 131.618 117.403 131.618ZM120.021 128.034C120.413 128.034 120.754 127.941 121.043 127.754C121.332 127.567 121.556 127.292 121.715 126.928C121.874 126.564 121.953 126.116 121.953 125.584C121.953 124.781 121.776 124.175 121.421 123.764C121.076 123.353 120.609 123.148 120.021 123.148C119.638 123.148 119.298 123.241 118.999 123.428C118.71 123.605 118.486 123.876 118.327 124.24C118.168 124.604 118.089 125.052 118.089 125.584C118.089 126.377 118.266 126.984 118.621 127.404C118.976 127.824 119.442 128.034 120.021 128.034ZM125.674 129.084C125.45 129.084 125.278 129.019 125.156 128.888C125.035 128.748 124.974 128.557 124.974 128.314V122.854C124.974 122.611 125.035 122.425 125.156 122.294C125.278 122.163 125.45 122.098 125.674 122.098C125.898 122.098 126.071 122.163 126.192 122.294C126.323 122.425 126.388 122.611 126.388 122.854V128.314C126.388 128.557 126.328 128.748 126.206 128.888C126.085 129.019 125.908 129.084 125.674 129.084ZM125.674 120.642C125.394 120.642 125.175 120.572 125.016 120.432C124.867 120.292 124.792 120.096 124.792 119.844C124.792 119.583 124.867 119.387 125.016 119.256C125.175 119.116 125.394 119.046 125.674 119.046C125.954 119.046 126.169 119.116 126.318 119.256C126.477 119.387 126.556 119.583 126.556 119.844C126.556 120.096 126.477 120.292 126.318 120.432C126.169 120.572 125.954 120.642 125.674 120.642ZM129.079 129.098C128.855 129.098 128.682 129.037 128.561 128.916C128.439 128.785 128.379 128.608 128.379 128.384V122.784C128.379 122.551 128.439 122.373 128.561 122.252C128.682 122.131 128.85 122.07 129.065 122.07C129.289 122.07 129.457 122.131 129.569 122.252C129.69 122.373 129.751 122.551 129.751 122.784V123.876L129.597 123.624C129.802 123.101 130.124 122.709 130.563 122.448C131.001 122.177 131.505 122.042 132.075 122.042C132.616 122.042 133.064 122.145 133.419 122.35C133.783 122.546 134.053 122.849 134.231 123.26C134.408 123.661 134.497 124.17 134.497 124.786V128.384C134.497 128.608 134.436 128.785 134.315 128.916C134.193 129.037 134.021 129.098 133.797 129.098C133.563 129.098 133.386 129.037 133.265 128.916C133.143 128.785 133.083 128.608 133.083 128.384V124.87C133.083 124.282 132.966 123.853 132.733 123.582C132.509 123.311 132.154 123.176 131.669 123.176C131.099 123.176 130.642 123.353 130.297 123.708C129.961 124.063 129.793 124.539 129.793 125.136V128.384C129.793 128.86 129.555 129.098 129.079 129.098ZM143.049 129.126C142.489 129.126 142.017 129.028 141.635 128.832C141.252 128.636 140.967 128.347 140.781 127.964C140.594 127.581 140.501 127.115 140.501 126.564V123.26H139.661C139.474 123.26 139.329 123.213 139.227 123.12C139.124 123.017 139.073 122.882 139.073 122.714C139.073 122.537 139.124 122.401 139.227 122.308C139.329 122.215 139.474 122.168 139.661 122.168H140.501V120.726C140.501 120.493 140.561 120.315 140.683 120.194C140.813 120.073 140.991 120.012 141.215 120.012C141.439 120.012 141.611 120.073 141.733 120.194C141.854 120.315 141.915 120.493 141.915 120.726V122.168H143.553C143.739 122.168 143.884 122.215 143.987 122.308C144.089 122.401 144.141 122.537 144.141 122.714C144.141 122.882 144.089 123.017 143.987 123.12C143.884 123.213 143.739 123.26 143.553 123.26H141.915V126.452C141.915 126.947 142.017 127.32 142.223 127.572C142.437 127.824 142.783 127.95 143.259 127.95C143.427 127.95 143.571 127.936 143.693 127.908C143.823 127.871 143.931 127.847 144.015 127.838C144.117 127.838 144.201 127.875 144.267 127.95C144.332 128.015 144.365 128.146 144.365 128.342C144.365 128.482 144.337 128.613 144.281 128.734C144.234 128.855 144.145 128.935 144.015 128.972C143.903 129.009 143.749 129.042 143.553 129.07C143.366 129.107 143.198 129.126 143.049 129.126ZM148.15 129.126C147.459 129.126 146.862 128.981 146.358 128.692C145.863 128.403 145.476 127.992 145.196 127.46C144.916 126.928 144.776 126.303 144.776 125.584C144.776 125.033 144.855 124.543 145.014 124.114C145.172 123.685 145.396 123.316 145.686 123.008C145.984 122.691 146.339 122.453 146.75 122.294C147.17 122.126 147.636 122.042 148.15 122.042C148.831 122.042 149.419 122.187 149.914 122.476C150.418 122.765 150.81 123.176 151.09 123.708C151.37 124.231 151.51 124.856 151.51 125.584C151.51 126.125 151.43 126.615 151.272 127.054C151.113 127.493 150.884 127.866 150.586 128.174C150.296 128.482 149.942 128.72 149.522 128.888C149.111 129.047 148.654 129.126 148.15 129.126ZM148.15 128.034C148.532 128.034 148.868 127.941 149.158 127.754C149.447 127.567 149.671 127.292 149.83 126.928C149.998 126.564 150.082 126.116 150.082 125.584C150.082 124.781 149.904 124.175 149.55 123.764C149.195 123.353 148.728 123.148 148.15 123.148C147.758 123.148 147.417 123.241 147.128 123.428C146.838 123.605 146.61 123.876 146.442 124.24C146.283 124.604 146.204 125.052 146.204 125.584C146.204 126.377 146.381 126.984 146.736 127.404C147.09 127.824 147.562 128.034 148.15 128.034ZM159.393 129.126C158.796 129.126 158.268 128.986 157.811 128.706C157.363 128.417 157.013 128.006 156.761 127.474C156.509 126.933 156.383 126.303 156.383 125.584C156.383 124.847 156.509 124.217 156.761 123.694C157.013 123.171 157.363 122.765 157.811 122.476C158.268 122.187 158.796 122.042 159.393 122.042C159.99 122.042 160.504 122.191 160.933 122.49C161.372 122.779 161.666 123.171 161.815 123.666H161.661V119.746C161.661 119.513 161.722 119.335 161.843 119.214C161.964 119.093 162.137 119.032 162.361 119.032C162.585 119.032 162.758 119.093 162.879 119.214C163.01 119.335 163.075 119.513 163.075 119.746V128.384C163.075 128.608 163.014 128.785 162.893 128.916C162.772 129.037 162.599 129.098 162.375 129.098C162.151 129.098 161.978 129.037 161.857 128.916C161.736 128.785 161.675 128.608 161.675 128.384V127.152L161.829 127.46C161.68 127.964 161.386 128.37 160.947 128.678C160.518 128.977 160 129.126 159.393 129.126ZM159.757 128.034C160.14 128.034 160.476 127.941 160.765 127.754C161.054 127.567 161.278 127.292 161.437 126.928C161.605 126.564 161.689 126.116 161.689 125.584C161.689 124.781 161.512 124.175 161.157 123.764C160.802 123.353 160.336 123.148 159.757 123.148C159.365 123.148 159.024 123.241 158.735 123.428C158.446 123.605 158.217 123.876 158.049 124.24C157.89 124.604 157.811 125.052 157.811 125.584C157.811 126.377 157.988 126.984 158.343 127.404C158.698 127.824 159.169 128.034 159.757 128.034ZM165.76 129.084C165.536 129.084 165.364 129.019 165.242 128.888C165.121 128.748 165.06 128.557 165.06 128.314V122.854C165.06 122.611 165.121 122.425 165.242 122.294C165.364 122.163 165.536 122.098 165.76 122.098C165.984 122.098 166.157 122.163 166.278 122.294C166.409 122.425 166.474 122.611 166.474 122.854V128.314C166.474 128.557 166.414 128.748 166.292 128.888C166.171 129.019 165.994 129.084 165.76 129.084ZM165.76 120.642C165.48 120.642 165.261 120.572 165.102 120.432C164.953 120.292 164.878 120.096 164.878 119.844C164.878 119.583 164.953 119.387 165.102 119.256C165.261 119.116 165.48 119.046 165.76 119.046C166.04 119.046 166.255 119.116 166.404 119.256C166.563 119.387 166.642 119.583 166.642 119.844C166.642 120.096 166.563 120.292 166.404 120.432C166.255 120.572 166.04 120.642 165.76 120.642ZM170.859 129.126C170.448 129.126 170.023 129.079 169.585 128.986C169.155 128.893 168.759 128.734 168.395 128.51C168.273 128.426 168.189 128.333 168.143 128.23C168.096 128.127 168.077 128.025 168.087 127.922C168.105 127.81 168.147 127.717 168.213 127.642C168.287 127.558 168.376 127.507 168.479 127.488C168.591 127.469 168.707 127.493 168.829 127.558C169.193 127.763 169.543 127.908 169.879 127.992C170.215 128.067 170.546 128.104 170.873 128.104C171.367 128.104 171.741 128.015 171.993 127.838C172.245 127.661 172.371 127.423 172.371 127.124C172.371 126.881 172.287 126.695 172.119 126.564C171.951 126.424 171.699 126.317 171.363 126.242L170.033 125.976C169.454 125.855 169.015 125.64 168.717 125.332C168.418 125.024 168.269 124.632 168.269 124.156C168.269 123.727 168.385 123.353 168.619 123.036C168.852 122.719 169.179 122.476 169.599 122.308C170.019 122.131 170.504 122.042 171.055 122.042C171.465 122.042 171.853 122.093 172.217 122.196C172.581 122.299 172.917 122.453 173.225 122.658C173.346 122.723 173.425 122.812 173.463 122.924C173.5 123.027 173.505 123.129 173.477 123.232C173.458 123.335 173.411 123.428 173.337 123.512C173.262 123.587 173.169 123.633 173.057 123.652C172.954 123.661 172.837 123.633 172.707 123.568C172.427 123.391 172.147 123.265 171.867 123.19C171.596 123.115 171.325 123.078 171.055 123.078C170.56 123.078 170.187 123.171 169.935 123.358C169.692 123.535 169.571 123.778 169.571 124.086C169.571 124.319 169.645 124.511 169.795 124.66C169.944 124.809 170.177 124.917 170.495 124.982L171.825 125.248C172.431 125.369 172.889 125.575 173.197 125.864C173.514 126.153 173.673 126.545 173.673 127.04C173.673 127.684 173.416 128.193 172.903 128.566C172.389 128.939 171.708 129.126 170.859 129.126ZM178.256 129.126C177.556 129.126 176.949 128.981 176.436 128.692C175.932 128.393 175.54 127.978 175.26 127.446C174.98 126.905 174.84 126.27 174.84 125.542C174.84 125.001 174.919 124.515 175.078 124.086C175.237 123.647 175.461 123.279 175.75 122.98C176.049 122.681 176.408 122.453 176.828 122.294C177.257 122.126 177.733 122.042 178.256 122.042C178.583 122.042 178.923 122.093 179.278 122.196C179.642 122.289 179.978 122.448 180.286 122.672C180.407 122.747 180.482 122.84 180.51 122.952C180.547 123.055 180.552 123.162 180.524 123.274C180.505 123.386 180.454 123.484 180.37 123.568C180.295 123.643 180.202 123.689 180.09 123.708C179.978 123.717 179.857 123.685 179.726 123.61C179.502 123.451 179.273 123.339 179.04 123.274C178.807 123.199 178.583 123.162 178.368 123.162C178.032 123.162 177.733 123.218 177.472 123.33C177.22 123.433 177.005 123.587 176.828 123.792C176.651 123.988 176.515 124.235 176.422 124.534C176.338 124.833 176.296 125.173 176.296 125.556C176.296 126.321 176.473 126.923 176.828 127.362C177.192 127.791 177.705 128.006 178.368 128.006C178.583 128.006 178.807 127.973 179.04 127.908C179.273 127.843 179.502 127.731 179.726 127.572C179.857 127.497 179.978 127.469 180.09 127.488C180.202 127.507 180.291 127.558 180.356 127.642C180.431 127.717 180.477 127.81 180.496 127.922C180.524 128.025 180.519 128.132 180.482 128.244C180.445 128.356 180.365 128.449 180.244 128.524C179.945 128.739 179.619 128.893 179.264 128.986C178.919 129.079 178.583 129.126 178.256 129.126ZM184.612 129.126C183.922 129.126 183.324 128.981 182.82 128.692C182.326 128.403 181.938 127.992 181.658 127.46C181.378 126.928 181.238 126.303 181.238 125.584C181.238 125.033 181.318 124.543 181.476 124.114C181.635 123.685 181.859 123.316 182.148 123.008C182.447 122.691 182.802 122.453 183.212 122.294C183.632 122.126 184.099 122.042 184.612 122.042C185.294 122.042 185.882 122.187 186.376 122.476C186.88 122.765 187.272 123.176 187.552 123.708C187.832 124.231 187.972 124.856 187.972 125.584C187.972 126.125 187.893 126.615 187.734 127.054C187.576 127.493 187.347 127.866 187.048 128.174C186.759 128.482 186.404 128.72 185.984 128.888C185.574 129.047 185.116 129.126 184.612 129.126ZM184.612 128.034C184.995 128.034 185.331 127.941 185.62 127.754C185.91 127.567 186.134 127.292 186.292 126.928C186.46 126.564 186.544 126.116 186.544 125.584C186.544 124.781 186.367 124.175 186.012 123.764C185.658 123.353 185.191 123.148 184.612 123.148C184.22 123.148 183.88 123.241 183.59 123.428C183.301 123.605 183.072 123.876 182.904 124.24C182.746 124.604 182.666 125.052 182.666 125.584C182.666 126.377 182.844 126.984 183.198 127.404C183.553 127.824 184.024 128.034 184.612 128.034ZM192.083 129.098C191.887 129.098 191.715 129.047 191.565 128.944C191.425 128.841 191.309 128.683 191.215 128.468L188.877 123.036C188.803 122.868 188.775 122.709 188.793 122.56C188.812 122.411 188.882 122.294 189.003 122.21C189.125 122.117 189.288 122.07 189.493 122.07C189.671 122.07 189.811 122.112 189.913 122.196C190.016 122.28 190.109 122.425 190.193 122.63L192.307 127.838H191.915L194.071 122.63C194.155 122.425 194.249 122.28 194.351 122.196C194.463 122.112 194.617 122.07 194.813 122.07C194.981 122.07 195.112 122.117 195.205 122.21C195.308 122.294 195.369 122.411 195.387 122.56C195.415 122.7 195.392 122.854 195.317 123.022L192.951 128.468C192.867 128.683 192.751 128.841 192.601 128.944C192.452 129.047 192.279 129.098 192.083 129.098ZM199.794 129.126C199.047 129.126 198.403 128.986 197.862 128.706C197.33 128.417 196.914 128.011 196.616 127.488C196.326 126.956 196.182 126.326 196.182 125.598C196.182 124.889 196.326 124.268 196.616 123.736C196.905 123.204 197.302 122.789 197.806 122.49C198.31 122.191 198.884 122.042 199.528 122.042C200.004 122.042 200.428 122.121 200.802 122.28C201.175 122.429 201.492 122.653 201.754 122.952C202.024 123.241 202.225 123.596 202.356 124.016C202.496 124.436 202.566 124.907 202.566 125.43C202.566 125.589 202.519 125.71 202.426 125.794C202.332 125.869 202.192 125.906 202.006 125.906H197.302V125.038H201.614L201.376 125.234C201.376 124.767 201.306 124.371 201.166 124.044C201.035 123.717 200.834 123.47 200.564 123.302C200.302 123.125 199.976 123.036 199.584 123.036C199.145 123.036 198.772 123.139 198.464 123.344C198.165 123.549 197.936 123.834 197.778 124.198C197.619 124.562 197.54 124.987 197.54 125.472V125.556C197.54 126.377 197.731 126.998 198.114 127.418C198.506 127.829 199.07 128.034 199.808 128.034C200.088 128.034 200.382 127.997 200.69 127.922C201.007 127.847 201.306 127.721 201.586 127.544C201.744 127.451 201.884 127.409 202.006 127.418C202.136 127.427 202.239 127.469 202.314 127.544C202.398 127.619 202.449 127.712 202.468 127.824C202.486 127.936 202.468 128.053 202.412 128.174C202.356 128.286 202.258 128.389 202.118 128.482C201.8 128.697 201.432 128.86 201.012 128.972C200.592 129.075 200.186 129.126 199.794 129.126ZM204.821 129.098C204.588 129.098 204.411 129.037 204.289 128.916C204.168 128.785 204.107 128.608 204.107 128.384V122.784C204.107 122.551 204.168 122.373 204.289 122.252C204.411 122.131 204.579 122.07 204.793 122.07C205.017 122.07 205.185 122.131 205.297 122.252C205.419 122.373 205.479 122.551 205.479 122.784V123.806H205.339C205.489 123.246 205.764 122.821 206.165 122.532C206.567 122.243 207.08 122.075 207.705 122.028C207.873 122.019 208.004 122.061 208.097 122.154C208.2 122.247 208.256 122.392 208.265 122.588C208.284 122.784 208.242 122.943 208.139 123.064C208.037 123.176 207.878 123.241 207.663 123.26L207.397 123.288C206.791 123.344 206.329 123.535 206.011 123.862C205.694 124.189 205.535 124.637 205.535 125.206V128.384C205.535 128.608 205.475 128.785 205.353 128.916C205.241 129.037 205.064 129.098 204.821 129.098ZM215.933 129.126C215.373 129.126 214.902 129.028 214.519 128.832C214.137 128.636 213.852 128.347 213.665 127.964C213.479 127.581 213.385 127.115 213.385 126.564V123.26H212.545C212.359 123.26 212.214 123.213 212.111 123.12C212.009 123.017 211.957 122.882 211.957 122.714C211.957 122.537 212.009 122.401 212.111 122.308C212.214 122.215 212.359 122.168 212.545 122.168H213.385V120.726C213.385 120.493 213.446 120.315 213.567 120.194C213.698 120.073 213.875 120.012 214.099 120.012C214.323 120.012 214.496 120.073 214.617 120.194C214.739 120.315 214.799 120.493 214.799 120.726V122.168H216.437C216.624 122.168 216.769 122.215 216.871 122.308C216.974 122.401 217.025 122.537 217.025 122.714C217.025 122.882 216.974 123.017 216.871 123.12C216.769 123.213 216.624 123.26 216.437 123.26H214.799V126.452C214.799 126.947 214.902 127.32 215.107 127.572C215.322 127.824 215.667 127.95 216.143 127.95C216.311 127.95 216.456 127.936 216.577 127.908C216.708 127.871 216.815 127.847 216.899 127.838C217.002 127.838 217.086 127.875 217.151 127.95C217.217 128.015 217.249 128.146 217.249 128.342C217.249 128.482 217.221 128.613 217.165 128.734C217.119 128.855 217.03 128.935 216.899 128.972C216.787 129.009 216.633 129.042 216.437 129.07C216.251 129.107 216.083 129.126 215.933 129.126ZM218.958 129.098C218.734 129.098 218.561 129.037 218.44 128.916C218.318 128.785 218.258 128.608 218.258 128.384V119.746C218.258 119.513 218.318 119.335 218.44 119.214C218.561 119.093 218.734 119.032 218.958 119.032C219.182 119.032 219.354 119.093 219.476 119.214C219.606 119.335 219.672 119.513 219.672 119.746V123.624H219.476C219.681 123.101 220.003 122.709 220.442 122.448C220.88 122.177 221.384 122.042 221.954 122.042C222.495 122.042 222.943 122.145 223.298 122.35C223.662 122.546 223.932 122.849 224.11 123.26C224.287 123.661 224.376 124.17 224.376 124.786V128.384C224.376 128.608 224.315 128.785 224.194 128.916C224.072 129.037 223.9 129.098 223.676 129.098C223.442 129.098 223.265 129.037 223.144 128.916C223.022 128.785 222.962 128.608 222.962 128.384V124.87C222.962 124.282 222.845 123.853 222.612 123.582C222.388 123.311 222.033 123.176 221.548 123.176C220.978 123.176 220.521 123.353 220.176 123.708C219.84 124.063 219.672 124.539 219.672 125.136V128.384C219.672 128.86 219.434 129.098 218.958 129.098ZM229.53 129.126C228.783 129.126 228.139 128.986 227.598 128.706C227.066 128.417 226.651 128.011 226.352 127.488C226.063 126.956 225.918 126.326 225.918 125.598C225.918 124.889 226.063 124.268 226.352 123.736C226.641 123.204 227.038 122.789 227.542 122.49C228.046 122.191 228.62 122.042 229.264 122.042C229.74 122.042 230.165 122.121 230.538 122.28C230.911 122.429 231.229 122.653 231.49 122.952C231.761 123.241 231.961 123.596 232.092 124.016C232.232 124.436 232.302 124.907 232.302 125.43C232.302 125.589 232.255 125.71 232.162 125.794C232.069 125.869 231.929 125.906 231.742 125.906H227.038V125.038H231.35L231.112 125.234C231.112 124.767 231.042 124.371 230.902 124.044C230.771 123.717 230.571 123.47 230.3 123.302C230.039 123.125 229.712 123.036 229.32 123.036C228.881 123.036 228.508 123.139 228.2 123.344C227.901 123.549 227.673 123.834 227.514 124.198C227.355 124.562 227.276 124.987 227.276 125.472V125.556C227.276 126.377 227.467 126.998 227.85 127.418C228.242 127.829 228.807 128.034 229.544 128.034C229.824 128.034 230.118 127.997 230.426 127.922C230.743 127.847 231.042 127.721 231.322 127.544C231.481 127.451 231.621 127.409 231.742 127.418C231.873 127.427 231.975 127.469 232.05 127.544C232.134 127.619 232.185 127.712 232.204 127.824C232.223 127.936 232.204 128.053 232.148 128.174C232.092 128.286 231.994 128.389 231.854 128.482C231.537 128.697 231.168 128.86 230.748 128.972C230.328 129.075 229.922 129.126 229.53 129.126ZM240.629 131.646C240.125 131.646 239.635 131.595 239.159 131.492C238.692 131.389 238.268 131.221 237.885 130.988C237.745 130.913 237.652 130.82 237.605 130.708C237.558 130.605 237.544 130.498 237.563 130.386C237.591 130.274 237.642 130.176 237.717 130.092C237.792 130.008 237.88 129.952 237.983 129.924C238.095 129.896 238.212 129.915 238.333 129.98C238.744 130.204 239.131 130.353 239.495 130.428C239.868 130.512 240.214 130.554 240.531 130.554C241.184 130.554 241.674 130.386 242.001 130.05C242.328 129.723 242.491 129.238 242.491 128.594V127.166H242.617C242.477 127.679 242.183 128.085 241.735 128.384C241.287 128.683 240.769 128.832 240.181 128.832C239.565 128.832 239.028 128.692 238.571 128.412C238.114 128.123 237.759 127.726 237.507 127.222C237.255 126.709 237.129 126.111 237.129 125.43C237.129 124.917 237.199 124.455 237.339 124.044C237.488 123.633 237.694 123.279 237.955 122.98C238.226 122.681 238.548 122.453 238.921 122.294C239.304 122.126 239.724 122.042 240.181 122.042C240.778 122.042 241.296 122.191 241.735 122.49C242.183 122.789 242.472 123.195 242.603 123.708L242.463 123.946V122.784C242.463 122.551 242.524 122.373 242.645 122.252C242.776 122.131 242.948 122.07 243.163 122.07C243.387 122.07 243.56 122.131 243.681 122.252C243.802 122.373 243.863 122.551 243.863 122.784V128.426C243.863 129.49 243.588 130.293 243.037 130.834C242.486 131.375 241.684 131.646 240.629 131.646ZM240.517 127.726C240.928 127.726 241.278 127.633 241.567 127.446C241.856 127.259 242.08 126.993 242.239 126.648C242.398 126.303 242.477 125.897 242.477 125.43C242.477 124.73 242.3 124.175 241.945 123.764C241.6 123.353 241.124 123.148 240.517 123.148C240.116 123.148 239.77 123.241 239.481 123.428C239.192 123.615 238.963 123.881 238.795 124.226C238.636 124.562 238.557 124.963 238.557 125.43C238.557 126.139 238.734 126.699 239.089 127.11C239.444 127.521 239.92 127.726 240.517 127.726ZM246.562 129.098C246.328 129.098 246.151 129.037 246.03 128.916C245.908 128.785 245.848 128.608 245.848 128.384V122.784C245.848 122.551 245.908 122.373 246.03 122.252C246.151 122.131 246.319 122.07 246.534 122.07C246.758 122.07 246.926 122.131 247.038 122.252C247.159 122.373 247.22 122.551 247.22 122.784V123.806H247.08C247.229 123.246 247.504 122.821 247.906 122.532C248.307 122.243 248.82 122.075 249.446 122.028C249.614 122.019 249.744 122.061 249.838 122.154C249.94 122.247 249.996 122.392 250.006 122.588C250.024 122.784 249.982 122.943 249.88 123.064C249.777 123.176 249.618 123.241 249.404 123.26L249.138 123.288C248.531 123.344 248.069 123.535 247.752 123.862C247.434 124.189 247.276 124.637 247.276 125.206V128.384C247.276 128.608 247.215 128.785 247.094 128.916C246.982 129.037 246.804 129.098 246.562 129.098ZM254.18 129.126C253.434 129.126 252.79 128.986 252.248 128.706C251.716 128.417 251.301 128.011 251.002 127.488C250.713 126.956 250.568 126.326 250.568 125.598C250.568 124.889 250.713 124.268 251.002 123.736C251.292 123.204 251.688 122.789 252.192 122.49C252.696 122.191 253.27 122.042 253.914 122.042C254.39 122.042 254.815 122.121 255.188 122.28C255.562 122.429 255.879 122.653 256.14 122.952C256.411 123.241 256.612 123.596 256.742 124.016C256.882 124.436 256.952 124.907 256.952 125.43C256.952 125.589 256.906 125.71 256.812 125.794C256.719 125.869 256.579 125.906 256.392 125.906H251.688V125.038H256L255.762 125.234C255.762 124.767 255.692 124.371 255.552 124.044C255.422 123.717 255.221 123.47 254.95 123.302C254.689 123.125 254.362 123.036 253.97 123.036C253.532 123.036 253.158 123.139 252.85 123.344C252.552 123.549 252.323 123.834 252.164 124.198C252.006 124.562 251.926 124.987 251.926 125.472V125.556C251.926 126.377 252.118 126.998 252.5 127.418C252.892 127.829 253.457 128.034 254.194 128.034C254.474 128.034 254.768 127.997 255.076 127.922C255.394 127.847 255.692 127.721 255.972 127.544C256.131 127.451 256.271 127.409 256.392 127.418C256.523 127.427 256.626 127.469 256.7 127.544C256.784 127.619 256.836 127.712 256.854 127.824C256.873 127.936 256.854 128.053 256.798 128.174C256.742 128.286 256.644 128.389 256.504 128.482C256.187 128.697 255.818 128.86 255.398 128.972C254.978 129.075 254.572 129.126 254.18 129.126ZM260.678 129.126C260.202 129.126 259.773 129.033 259.39 128.846C259.017 128.659 258.723 128.407 258.508 128.09C258.293 127.773 258.186 127.413 258.186 127.012C258.186 126.508 258.312 126.111 258.564 125.822C258.825 125.523 259.25 125.313 259.838 125.192C260.435 125.061 261.238 124.996 262.246 124.996H262.904V125.864H262.26C261.588 125.864 261.056 125.897 260.664 125.962C260.272 126.027 259.992 126.139 259.824 126.298C259.665 126.447 259.586 126.657 259.586 126.928C259.586 127.283 259.707 127.572 259.95 127.796C260.193 128.011 260.529 128.118 260.958 128.118C261.303 128.118 261.607 128.039 261.868 127.88C262.129 127.712 262.335 127.488 262.484 127.208C262.643 126.928 262.722 126.606 262.722 126.242V124.632C262.722 124.1 262.61 123.717 262.386 123.484C262.162 123.251 261.793 123.134 261.28 123.134C260.981 123.134 260.669 123.171 260.342 123.246C260.025 123.321 259.693 123.447 259.348 123.624C259.189 123.699 259.054 123.722 258.942 123.694C258.83 123.666 258.741 123.605 258.676 123.512C258.611 123.409 258.573 123.302 258.564 123.19C258.564 123.069 258.592 122.952 258.648 122.84C258.713 122.728 258.821 122.644 258.97 122.588C259.381 122.392 259.787 122.252 260.188 122.168C260.589 122.084 260.967 122.042 261.322 122.042C261.947 122.042 262.461 122.14 262.862 122.336C263.273 122.532 263.576 122.831 263.772 123.232C263.968 123.633 264.066 124.151 264.066 124.786V128.384C264.066 128.608 264.01 128.785 263.898 128.916C263.786 129.037 263.623 129.098 263.408 129.098C263.203 129.098 263.039 129.037 262.918 128.916C262.797 128.785 262.736 128.608 262.736 128.384V127.474H262.862C262.787 127.819 262.647 128.118 262.442 128.37C262.246 128.613 261.999 128.799 261.7 128.93C261.401 129.061 261.061 129.126 260.678 129.126ZM268.926 129.126C268.366 129.126 267.894 129.028 267.512 128.832C267.129 128.636 266.844 128.347 266.658 127.964C266.471 127.581 266.378 127.115 266.378 126.564V123.26H265.538C265.351 123.26 265.206 123.213 265.104 123.12C265.001 123.017 264.95 122.882 264.95 122.714C264.95 122.537 265.001 122.401 265.104 122.308C265.206 122.215 265.351 122.168 265.538 122.168H266.378V120.726C266.378 120.493 266.438 120.315 266.56 120.194C266.69 120.073 266.868 120.012 267.092 120.012C267.316 120.012 267.488 120.073 267.61 120.194C267.731 120.315 267.792 120.493 267.792 120.726V122.168H269.43C269.616 122.168 269.761 122.215 269.864 122.308C269.966 122.401 270.018 122.537 270.018 122.714C270.018 122.882 269.966 123.017 269.864 123.12C269.761 123.213 269.616 123.26 269.43 123.26H267.792V126.452C267.792 126.947 267.894 127.32 268.1 127.572C268.314 127.824 268.66 127.95 269.136 127.95C269.304 127.95 269.448 127.936 269.57 127.908C269.7 127.871 269.808 127.847 269.892 127.838C269.994 127.838 270.078 127.875 270.144 127.95C270.209 128.015 270.242 128.146 270.242 128.342C270.242 128.482 270.214 128.613 270.158 128.734C270.111 128.855 270.022 128.935 269.892 128.972C269.78 129.009 269.626 129.042 269.43 129.07C269.243 129.107 269.075 129.126 268.926 129.126ZM277.31 129.098C277.114 129.098 276.942 129.051 276.792 128.958C276.652 128.855 276.54 128.697 276.456 128.482L274.398 123.036C274.324 122.849 274.3 122.686 274.328 122.546C274.356 122.397 274.426 122.28 274.538 122.196C274.66 122.112 274.814 122.07 275 122.07C275.168 122.07 275.304 122.112 275.406 122.196C275.518 122.271 275.612 122.42 275.686 122.644L277.52 127.81H277.184L279.088 122.588C279.154 122.411 279.242 122.28 279.354 122.196C279.466 122.112 279.611 122.07 279.788 122.07C279.966 122.07 280.11 122.112 280.222 122.196C280.344 122.28 280.432 122.411 280.488 122.588L282.35 127.81H282.042L283.904 122.616C283.979 122.401 284.072 122.257 284.184 122.182C284.306 122.107 284.441 122.07 284.59 122.07C284.777 122.07 284.917 122.117 285.01 122.21C285.113 122.303 285.169 122.425 285.178 122.574C285.197 122.714 285.174 122.868 285.108 123.036L283.05 128.482C282.966 128.687 282.85 128.841 282.7 128.944C282.56 129.047 282.397 129.098 282.21 129.098C282.014 129.098 281.842 129.047 281.692 128.944C281.552 128.841 281.44 128.687 281.356 128.482L279.396 123.176H280.096L278.15 128.482C278.076 128.687 277.964 128.841 277.814 128.944C277.674 129.047 277.506 129.098 277.31 129.098ZM287.358 129.084C287.134 129.084 286.961 129.019 286.84 128.888C286.719 128.748 286.658 128.557 286.658 128.314V122.854C286.658 122.611 286.719 122.425 286.84 122.294C286.961 122.163 287.134 122.098 287.358 122.098C287.582 122.098 287.755 122.163 287.876 122.294C288.007 122.425 288.072 122.611 288.072 122.854V128.314C288.072 128.557 288.011 128.748 287.89 128.888C287.769 129.019 287.591 129.084 287.358 129.084ZM287.358 120.642C287.078 120.642 286.859 120.572 286.7 120.432C286.551 120.292 286.476 120.096 286.476 119.844C286.476 119.583 286.551 119.387 286.7 119.256C286.859 119.116 287.078 119.046 287.358 119.046C287.638 119.046 287.853 119.116 288.002 119.256C288.161 119.387 288.24 119.583 288.24 119.844C288.24 120.096 288.161 120.292 288.002 120.432C287.853 120.572 287.638 120.642 287.358 120.642ZM290.762 129.098C290.538 129.098 290.366 129.037 290.244 128.916C290.123 128.785 290.062 128.608 290.062 128.384V122.784C290.062 122.551 290.123 122.373 290.244 122.252C290.366 122.131 290.534 122.07 290.748 122.07C290.972 122.07 291.14 122.131 291.252 122.252C291.374 122.373 291.434 122.551 291.434 122.784V123.876L291.28 123.624C291.486 123.101 291.808 122.709 292.246 122.448C292.685 122.177 293.189 122.042 293.758 122.042C294.3 122.042 294.748 122.145 295.102 122.35C295.466 122.546 295.737 122.849 295.914 123.26C296.092 123.661 296.18 124.17 296.18 124.786V128.384C296.18 128.608 296.12 128.785 295.998 128.916C295.877 129.037 295.704 129.098 295.48 129.098C295.247 129.098 295.07 129.037 294.948 128.916C294.827 128.785 294.766 128.608 294.766 128.384V124.87C294.766 124.282 294.65 123.853 294.416 123.582C294.192 123.311 293.838 123.176 293.352 123.176C292.783 123.176 292.326 123.353 291.98 123.708C291.644 124.063 291.476 124.539 291.476 125.136V128.384C291.476 128.86 291.238 129.098 290.762 129.098ZM298.829 129.098C298.605 129.098 298.432 129.037 298.311 128.916C298.189 128.785 298.129 128.608 298.129 128.384V122.784C298.129 122.551 298.189 122.373 298.311 122.252C298.432 122.131 298.6 122.07 298.815 122.07C299.039 122.07 299.207 122.131 299.319 122.252C299.44 122.373 299.501 122.551 299.501 122.784V123.876L299.347 123.624C299.552 123.101 299.874 122.709 300.313 122.448C300.751 122.177 301.255 122.042 301.825 122.042C302.366 122.042 302.814 122.145 303.169 122.35C303.533 122.546 303.803 122.849 303.981 123.26C304.158 123.661 304.247 124.17 304.247 124.786V128.384C304.247 128.608 304.186 128.785 304.065 128.916C303.943 129.037 303.771 129.098 303.547 129.098C303.313 129.098 303.136 129.037 303.015 128.916C302.893 128.785 302.833 128.608 302.833 128.384V124.87C302.833 124.282 302.716 123.853 302.483 123.582C302.259 123.311 301.904 123.176 301.419 123.176C300.849 123.176 300.392 123.353 300.047 123.708C299.711 124.063 299.543 124.539 299.543 125.136V128.384C299.543 128.86 299.305 129.098 298.829 129.098ZM309.401 129.126C308.655 129.126 308.011 128.986 307.469 128.706C306.937 128.417 306.522 128.011 306.223 127.488C305.934 126.956 305.789 126.326 305.789 125.598C305.789 124.889 305.934 124.268 306.223 123.736C306.513 123.204 306.909 122.789 307.413 122.49C307.917 122.191 308.491 122.042 309.135 122.042C309.611 122.042 310.036 122.121 310.409 122.28C310.783 122.429 311.1 122.653 311.361 122.952C311.632 123.241 311.833 123.596 311.963 124.016C312.103 124.436 312.173 124.907 312.173 125.43C312.173 125.589 312.127 125.71 312.033 125.794C311.94 125.869 311.8 125.906 311.613 125.906H306.909V125.038H311.221L310.983 125.234C310.983 124.767 310.913 124.371 310.773 124.044C310.643 123.717 310.442 123.47 310.171 123.302C309.91 123.125 309.583 123.036 309.191 123.036C308.753 123.036 308.379 123.139 308.071 123.344C307.773 123.549 307.544 123.834 307.385 124.198C307.227 124.562 307.147 124.987 307.147 125.472V125.556C307.147 126.377 307.339 126.998 307.721 127.418C308.113 127.829 308.678 128.034 309.415 128.034C309.695 128.034 309.989 127.997 310.297 127.922C310.615 127.847 310.913 127.721 311.193 127.544C311.352 127.451 311.492 127.409 311.613 127.418C311.744 127.427 311.847 127.469 311.921 127.544C312.005 127.619 312.057 127.712 312.075 127.824C312.094 127.936 312.075 128.053 312.019 128.174C311.963 128.286 311.865 128.389 311.725 128.482C311.408 128.697 311.039 128.86 310.619 128.972C310.199 129.075 309.793 129.126 309.401 129.126ZM314.429 129.098C314.195 129.098 314.018 129.037 313.897 128.916C313.775 128.785 313.715 128.608 313.715 128.384V122.784C313.715 122.551 313.775 122.373 313.897 122.252C314.018 122.131 314.186 122.07 314.401 122.07C314.625 122.07 314.793 122.131 314.905 122.252C315.026 122.373 315.087 122.551 315.087 122.784V123.806H314.947C315.096 123.246 315.371 122.821 315.773 122.532C316.174 122.243 316.687 122.075 317.313 122.028C317.481 122.019 317.611 122.061 317.705 122.154C317.807 122.247 317.863 122.392 317.873 122.588C317.891 122.784 317.849 122.943 317.747 123.064C317.644 123.176 317.485 123.241 317.271 123.26L317.005 123.288C316.398 123.344 315.936 123.535 315.619 123.862C315.301 124.189 315.143 124.637 315.143 125.206V128.384C315.143 128.608 315.082 128.785 314.961 128.916C314.849 129.037 314.671 129.098 314.429 129.098Z" fill="#252831"/>
</g>
<defs>
<linearGradient id="paint0_linear_41580_196893" x1="10.9787" y1="-0.999995" x2="336.955" y2="195.849" gradientUnits="userSpaceOnUse">
<stop stop-color="#98F183"/>
<stop offset="1" stop-color="#11BF67"/>
</linearGradient>
</defs>
</svg>
