<svg width="345" height="513" viewBox="0 0 345 513" fill="none" xmlns="http://www.w3.org/2000/svg">
<mask id="mask0_41897_195668" style="mask-type:alpha" maskUnits="userSpaceOnUse" x="0" y="0" width="345" height="171">
<mask id="path-1-inside-1_41897_195668" fill="white">
<path fill-rule="evenodd" clip-rule="evenodd" d="M15 66.2174L8 66.2174C3.58172 66.2174 0 69.7991 0 74.2174V171H345V74.2174C345 69.7991 341.418 66.2174 337 66.2174L93 66.2174V95C93 116.539 75.5391 134 54 134C32.4609 134 15 116.539 15 95V66.2174Z"/>
</mask>
<path fill-rule="evenodd" clip-rule="evenodd" d="M15 66.2174L8 66.2174C3.58172 66.2174 0 69.7991 0 74.2174V171H345V74.2174C345 69.7991 341.418 66.2174 337 66.2174L93 66.2174V95C93 116.539 75.5391 134 54 134C32.4609 134 15 116.539 15 95V66.2174Z" fill="#E6A86F"/>
<path d="M8 66.2174V67.2174V66.2174ZM15 66.2174H16V65.2174L15 65.2174V66.2174ZM0 171H-1V172H0V171ZM345 171V172H346V171H345ZM337 66.2174V65.2174V66.2174ZM93 66.2174V65.2174H92V66.2174H93ZM8 67.2174L15 67.2174V65.2174L8 65.2174V67.2174ZM1 74.2174C1 70.3514 4.13401 67.2174 8 67.2174V65.2174C3.02944 65.2174 -1 69.2468 -1 74.2174H1ZM1 171V74.2174H-1V171H1ZM345 170H0V172H345V170ZM344 74.2174V171H346V74.2174H344ZM337 67.2174C340.866 67.2174 344 70.3514 344 74.2174H346C346 69.2468 341.971 65.2174 337 65.2174V67.2174ZM93 67.2174L337 67.2174V65.2174L93 65.2174V67.2174ZM92 66.2174V95H94V66.2174H92ZM92 95C92 115.987 74.9868 133 54 133V135C76.0914 135 94 117.091 94 95H92ZM54 133C33.0132 133 16 115.987 16 95H14C14 117.091 31.9086 135 54 135V133ZM16 95V66.2174H14V95H16Z" fill="#E6A86F" mask="url(#path-1-inside-1_41897_195668)"/>
<path d="M76 87.5C76 85.7761 75.3152 84.1228 74.0962 82.9038C72.8772 81.6848 71.2239 81 69.5 81C68.6464 81 67.8012 81.1681 67.0126 81.4948C66.224 81.8214 65.5074 82.3002 64.9038 82.9038C64.3002 83.5074 63.8214 84.2239 63.4948 85.0126C63.1681 85.8012 63 86.6464 63 87.5C63 88.3536 63.1681 89.1988 63.4948 89.9874C63.8214 90.7761 64.3002 91.4926 64.9038 92.0962C65.5074 92.6998 66.224 93.1786 67.0126 93.5052C67.8012 93.8319 68.6464 94 69.5 94C71.2239 94 72.8772 93.3152 74.0962 92.0962C75.3152 90.8772 76 89.2239 76 87.5Z" fill="#E6A86F"/>
<path d="M91.4732 0.428756C90.7926 0.0641862 90.0148 -0.0730297 89.2519 0.036885C88.489 0.1468 87.7804 0.498169 87.2283 1.04035L60.7479 25.0963C54.5753 24.2805 48.3236 24.2805 42.151 25.0963L15.4685 1.04035C14.9484 0.51525 14.2749 0.172419 13.5471 0.0623191C12.8193 -0.0477807 12.0757 0.080667 11.4257 0.428756C10.7309 0.705888 10.1314 1.18136 9.7006 1.79693C9.26975 2.4125 9.02628 3.14143 9 3.89445V51.8026C8.9987 52.8495 9.39679 53.8568 10.1118 54.6159C10.8268 55.3749 11.8039 55.8275 12.8407 55.8798H86.0155V98.0797C86.0155 102.551 85.1423 106.978 83.4458 111.108C81.7493 115.239 79.2628 118.992 76.1281 122.153C72.9935 125.315 69.2721 127.823 65.1764 129.534C61.0808 131.244 56.6911 132.125 52.258 132.125C47.8249 132.125 43.4353 131.244 39.3396 129.534C35.244 127.823 31.5226 125.315 28.3879 122.153C25.2533 118.992 22.7667 115.239 21.0702 111.108C19.3738 106.978 18.5006 102.551 18.5006 98.0797V74.2276H44.5767L32.8526 105.827C32.6578 106.443 32.6112 107.097 32.7166 107.735C32.822 108.373 33.0765 108.977 33.459 109.496C33.792 109.999 34.2431 110.411 34.7721 110.695C35.3011 110.98 35.8916 111.128 36.4911 111.127H53.4709C54.4895 111.127 55.4664 110.719 56.1866 109.993C56.9069 109.266 57.3115 108.281 57.3115 107.254C57.339 106.728 57.26 106.202 57.0793 105.709C56.8986 105.215 56.6201 104.764 56.2607 104.382C55.9013 104 55.4685 103.697 54.9889 103.489C54.5092 103.282 53.9927 103.176 53.4709 103.176H42.151L53.8751 71.5774C54.0699 70.9611 54.1165 70.3069 54.0111 69.6688C53.9057 69.0307 53.6512 68.4271 53.2687 67.9078C52.9174 67.3753 52.434 66.9446 51.8667 66.6585C51.2994 66.3724 50.6678 66.2409 50.0345 66.2769H14.6599C13.6413 66.2769 12.6644 66.685 11.9442 67.4114C11.2239 68.1378 10.8193 69.123 10.8193 70.1503V70.5581V98.0797C10.4215 103.827 11.2005 109.596 13.108 115.026C15.0154 120.457 18.0104 125.434 21.9066 129.647C25.8029 133.86 30.5171 137.22 35.756 139.517C40.9949 141.815 46.6465 143 52.3591 143C58.0717 143 63.7233 141.815 68.9622 139.517C74.2011 137.22 78.9153 133.86 82.8115 129.647C86.7078 125.434 89.7028 120.457 91.6102 115.026C93.5176 109.596 94.2967 103.827 93.8989 98.0797V3.89445C93.8726 3.14143 93.6292 2.4125 93.1983 1.79693C92.7675 1.18136 92.168 0.705888 91.4732 0.428756ZM86.0155 12.6606V35.9011C81.3718 31.866 75.9274 28.8773 70.0464 27.135L86.0155 12.6606ZM85.2069 47.9291H17.4899C20.9263 39.163 35.0761 32.2316 51.4495 32.2316C67.8228 32.2316 81.9726 39.163 85.2069 47.9291ZM32.8526 27.135C26.9715 28.8773 21.5271 31.866 16.8835 35.9011V12.6606L32.8526 27.135Z" fill="#E6A86F"/>
</mask>
<g mask="url(#mask0_41897_195668)">
<rect y="-1" width="345" height="171" fill="url(#paint0_linear_41897_195668)"/>
</g>
<path d="M0 170H345V353C345 441.366 273.366 513 185 513H160C71.6344 513 0 441.366 0 353V170Z" fill="white"/>
<defs>
<linearGradient id="paint0_linear_41897_195668" x1="10.58" y1="-0.999995" x2="339.346" y2="180.255" gradientUnits="userSpaceOnUse">
<stop stop-color="#FFB75A"/>
<stop offset="1" stop-color="#FF7233"/>
</linearGradient>
</defs>
</svg>
