<svg width="345" height="171" viewBox="0 0 345 171" fill="none" xmlns="http://www.w3.org/2000/svg">
<mask id="mask0_41580_198268" style="mask-type:alpha" maskUnits="userSpaceOnUse" x="0" y="0" width="345" height="171">
<mask id="path-1-inside-1_41580_198268" fill="white">
<path fill-rule="evenodd" clip-rule="evenodd" d="M15 66.2174L8 66.2174C3.58172 66.2174 0 69.7991 0 74.2174V171H345V74.2174C345 69.7991 341.418 66.2174 337 66.2174L93 66.2174V95C93 116.539 75.5391 134 54 134C32.4609 134 15 116.539 15 95V66.2174Z"/>
</mask>
<path fill-rule="evenodd" clip-rule="evenodd" d="M15 66.2174L8 66.2174C3.58172 66.2174 0 69.7991 0 74.2174V171H345V74.2174C345 69.7991 341.418 66.2174 337 66.2174L93 66.2174V95C93 116.539 75.5391 134 54 134C32.4609 134 15 116.539 15 95V66.2174Z" fill="#E6A86F"/>
<path d="M8 66.2174V67.2174V66.2174ZM15 66.2174H16V65.2174L15 65.2174V66.2174ZM0 171H-1V172H0V171ZM345 171V172H346V171H345ZM337 66.2174V65.2174V66.2174ZM93 66.2174V65.2174H92V66.2174H93ZM8 67.2174L15 67.2174V65.2174L8 65.2174V67.2174ZM1 74.2174C1 70.3514 4.13401 67.2174 8 67.2174V65.2174C3.02944 65.2174 -1 69.2468 -1 74.2174H1ZM1 171V74.2174H-1V171H1ZM345 170H0V172H345V170ZM344 74.2174V171H346V74.2174H344ZM337 67.2174C340.866 67.2174 344 70.3514 344 74.2174H346C346 69.2468 341.971 65.2174 337 65.2174V67.2174ZM93 67.2174L337 67.2174V65.2174L93 65.2174V67.2174ZM92 66.2174V95H94V66.2174H92ZM92 95C92 115.987 74.9868 133 54 133V135C76.0914 135 94 117.091 94 95H92ZM54 133C33.0132 133 16 115.987 16 95H14C14 117.091 31.9086 135 54 135V133ZM16 95V66.2174H14V95H16Z" fill="#E6A86F" mask="url(#path-1-inside-1_41580_198268)"/>
<path d="M76 87.5C76 85.7761 75.3152 84.1228 74.0962 82.9038C72.8772 81.6848 71.2239 81 69.5 81C68.6464 81 67.8012 81.1681 67.0126 81.4948C66.224 81.8214 65.5074 82.3002 64.9038 82.9038C64.3002 83.5074 63.8214 84.2239 63.4948 85.0126C63.1681 85.8012 63 86.6464 63 87.5C63 88.3536 63.1681 89.1988 63.4948 89.9874C63.8214 90.7761 64.3002 91.4926 64.9038 92.0962C65.5074 92.6998 66.224 93.1786 67.0126 93.5052C67.8012 93.8319 68.6464 94 69.5 94C71.2239 94 72.8772 93.3152 74.0962 92.0962C75.3152 90.8772 76 89.2239 76 87.5Z" fill="#E6A86F"/>
<path d="M91.4732 0.428756C90.7926 0.0641862 90.0148 -0.0730297 89.2519 0.036885C88.489 0.1468 87.7804 0.498169 87.2283 1.04035L60.7479 25.0963C54.5753 24.2805 48.3236 24.2805 42.151 25.0963L15.4685 1.04035C14.9484 0.51525 14.2749 0.172419 13.5471 0.0623191C12.8193 -0.0477807 12.0757 0.080667 11.4257 0.428756C10.7309 0.705888 10.1314 1.18136 9.7006 1.79693C9.26975 2.4125 9.02628 3.14143 9 3.89445V51.8026C8.9987 52.8495 9.39679 53.8568 10.1118 54.6159C10.8268 55.3749 11.8039 55.8275 12.8407 55.8798H86.0155V98.0797C86.0155 102.551 85.1423 106.978 83.4458 111.108C81.7493 115.239 79.2628 118.992 76.1281 122.153C72.9935 125.315 69.2721 127.823 65.1764 129.534C61.0808 131.244 56.6911 132.125 52.258 132.125C47.8249 132.125 43.4353 131.244 39.3396 129.534C35.244 127.823 31.5226 125.315 28.3879 122.153C25.2533 118.992 22.7667 115.239 21.0702 111.108C19.3738 106.978 18.5006 102.551 18.5006 98.0797V74.2276H44.5767L32.8526 105.827C32.6578 106.443 32.6112 107.097 32.7166 107.735C32.822 108.373 33.0765 108.977 33.459 109.496C33.792 109.999 34.2431 110.411 34.7721 110.695C35.3011 110.98 35.8916 111.128 36.4911 111.127H53.4709C54.4895 111.127 55.4664 110.719 56.1866 109.993C56.9069 109.266 57.3115 108.281 57.3115 107.254C57.339 106.728 57.26 106.202 57.0793 105.709C56.8986 105.215 56.6201 104.764 56.2607 104.382C55.9013 104 55.4685 103.697 54.9889 103.489C54.5092 103.282 53.9927 103.176 53.4709 103.176H42.151L53.8751 71.5774C54.0699 70.9611 54.1165 70.3069 54.0111 69.6688C53.9057 69.0307 53.6512 68.4271 53.2687 67.9078C52.9174 67.3753 52.434 66.9446 51.8667 66.6585C51.2994 66.3724 50.6678 66.2409 50.0345 66.2769H14.6599C13.6413 66.2769 12.6644 66.685 11.9442 67.4114C11.2239 68.1378 10.8193 69.123 10.8193 70.1503V70.5581V98.0797C10.4215 103.827 11.2005 109.596 13.108 115.026C15.0154 120.457 18.0104 125.434 21.9066 129.647C25.8029 133.86 30.5171 137.22 35.756 139.517C40.9949 141.815 46.6465 143 52.3591 143C58.0717 143 63.7233 141.815 68.9622 139.517C74.2011 137.22 78.9153 133.86 82.8115 129.647C86.7078 125.434 89.7028 120.457 91.6102 115.026C93.5176 109.596 94.2967 103.827 93.8989 98.0797V3.89445C93.8726 3.14143 93.6292 2.4125 93.1983 1.79693C92.7675 1.18136 92.168 0.705888 91.4732 0.428756ZM86.0155 12.6606V35.9011C81.3718 31.866 75.9274 28.8773 70.0464 27.135L86.0155 12.6606ZM85.2069 47.9291H17.4899C20.9263 39.163 35.0761 32.2316 51.4495 32.2316C67.8228 32.2316 81.9726 39.163 85.2069 47.9291ZM32.8526 27.135C26.9715 28.8773 21.5271 31.866 16.8835 35.9011V12.6606L32.8526 27.135Z" fill="#E6A86F"/>
</mask>
<g mask="url(#mask0_41580_198268)">
<rect y="-1" width="345" height="171" fill="url(#paint0_linear_41580_198268)"/>
<path d="M116.87 100.3V109.267L110.57 100.3H108.365V115H111.263V106.012L117.563 115H119.768V100.3H116.87ZM125.393 112.228V108.931H130.958V106.201H125.393V103.072H131.483V100.3H122.495V115H131.588V112.228H125.393ZM136.697 115H139.994L142.745 105.298L145.517 115H148.814L152.93 100.3H149.885L147.071 111.199L143.984 100.3H141.506L138.44 111.199L135.626 100.3H132.581L136.697 115ZM162.758 112.228V100.3H159.86V115H168.365V112.228H162.758ZM176.06 115.294C180.302 115.294 183.704 111.934 183.704 107.65C183.704 103.345 180.302 100.006 176.06 100.006C171.818 100.006 168.437 103.345 168.437 107.65C168.437 111.934 171.818 115.294 176.06 115.294ZM176.06 112.459C173.393 112.459 171.314 110.464 171.314 107.65C171.314 104.815 173.393 102.82 176.06 102.82C178.727 102.82 180.806 104.815 180.806 107.65C180.806 110.464 178.727 112.459 176.06 112.459ZM194.623 100.3H183.808V103.072H187.756V115H190.654V103.072H194.623V100.3ZM205.964 100.3H195.149V103.072H199.097V115H201.995V103.072H205.964V100.3ZM210.48 112.228V108.931H216.045V106.201H210.48V103.072H216.57V100.3H207.582V115H216.675V112.228H210.48ZM226.782 115H229.911L226.656 109.456C228.336 108.679 229.491 107.02 229.491 105.172C229.491 102.484 227.307 100.3 224.598 100.3H218.718V115H221.616V109.897H223.821L226.782 115ZM221.616 103.009H224.598C225.69 103.009 226.593 103.954 226.593 105.172C226.593 106.39 225.69 107.356 224.598 107.356H221.616V103.009ZM242.841 100.3H239.565L236.373 106.432L233.181 100.3H229.905L234.924 109.267V115H237.801V109.267L242.841 100.3Z" fill="#252831"/>
<path d="M111.438 138.126C111.009 138.126 110.589 138.093 110.178 138.028C109.767 137.963 109.38 137.865 109.016 137.734C108.652 137.594 108.325 137.426 108.036 137.23C107.896 137.127 107.798 137.011 107.742 136.88C107.695 136.749 107.681 136.623 107.7 136.502C107.728 136.371 107.784 136.259 107.868 136.166C107.952 136.073 108.055 136.017 108.176 135.998C108.297 135.97 108.433 136.007 108.582 136.11C109.002 136.381 109.445 136.581 109.912 136.712C110.379 136.833 110.887 136.894 111.438 136.894C112.231 136.894 112.815 136.754 113.188 136.474C113.571 136.185 113.762 135.811 113.762 135.354C113.762 134.981 113.627 134.687 113.356 134.472C113.085 134.248 112.633 134.071 111.998 133.94L110.5 133.632C109.613 133.445 108.951 133.137 108.512 132.708C108.083 132.279 107.868 131.7 107.868 130.972C107.868 130.533 107.957 130.132 108.134 129.768C108.321 129.404 108.577 129.091 108.904 128.83C109.231 128.559 109.623 128.354 110.08 128.214C110.537 128.074 111.037 128.004 111.578 128.004C112.157 128.004 112.698 128.079 113.202 128.228C113.715 128.377 114.173 128.606 114.574 128.914C114.695 128.998 114.775 129.105 114.812 129.236C114.859 129.357 114.868 129.479 114.84 129.6C114.821 129.721 114.77 129.824 114.686 129.908C114.602 129.992 114.495 130.043 114.364 130.062C114.233 130.071 114.089 130.025 113.93 129.922C113.566 129.679 113.193 129.507 112.81 129.404C112.437 129.292 112.021 129.236 111.564 129.236C111.107 129.236 110.705 129.306 110.36 129.446C110.024 129.586 109.763 129.782 109.576 130.034C109.399 130.286 109.31 130.585 109.31 130.93C109.31 131.322 109.436 131.635 109.688 131.868C109.94 132.101 110.36 132.279 110.948 132.4L112.432 132.708C113.365 132.904 114.061 133.207 114.518 133.618C114.975 134.029 115.204 134.575 115.204 135.256C115.204 135.695 115.115 136.091 114.938 136.446C114.761 136.791 114.509 137.09 114.182 137.342C113.855 137.594 113.459 137.79 112.992 137.93C112.535 138.061 112.017 138.126 111.438 138.126ZM117.403 140.618C117.179 140.618 117.006 140.557 116.885 140.436C116.764 140.315 116.703 140.137 116.703 139.904V131.784C116.703 131.551 116.764 131.373 116.885 131.252C117.006 131.131 117.174 131.07 117.389 131.07C117.613 131.07 117.786 131.131 117.907 131.252C118.028 131.373 118.089 131.551 118.089 131.784V133.002L117.935 132.708C118.084 132.204 118.378 131.803 118.817 131.504C119.256 131.196 119.774 131.042 120.371 131.042C120.978 131.042 121.505 131.187 121.953 131.476C122.41 131.765 122.76 132.171 123.003 132.694C123.255 133.217 123.381 133.847 123.381 134.584C123.381 135.303 123.255 135.933 123.003 136.474C122.76 137.006 122.415 137.417 121.967 137.706C121.519 137.986 120.987 138.126 120.371 138.126C119.783 138.126 119.27 137.977 118.831 137.678C118.392 137.379 118.098 136.983 117.949 136.488H118.117V139.904C118.117 140.137 118.052 140.315 117.921 140.436C117.8 140.557 117.627 140.618 117.403 140.618ZM120.021 137.034C120.413 137.034 120.754 136.941 121.043 136.754C121.332 136.567 121.556 136.292 121.715 135.928C121.874 135.564 121.953 135.116 121.953 134.584C121.953 133.781 121.776 133.175 121.421 132.764C121.076 132.353 120.609 132.148 120.021 132.148C119.638 132.148 119.298 132.241 118.999 132.428C118.71 132.605 118.486 132.876 118.327 133.24C118.168 133.604 118.089 134.052 118.089 134.584C118.089 135.377 118.266 135.984 118.621 136.404C118.976 136.824 119.442 137.034 120.021 137.034ZM125.674 138.084C125.45 138.084 125.278 138.019 125.156 137.888C125.035 137.748 124.974 137.557 124.974 137.314V131.854C124.974 131.611 125.035 131.425 125.156 131.294C125.278 131.163 125.45 131.098 125.674 131.098C125.898 131.098 126.071 131.163 126.192 131.294C126.323 131.425 126.388 131.611 126.388 131.854V137.314C126.388 137.557 126.328 137.748 126.206 137.888C126.085 138.019 125.908 138.084 125.674 138.084ZM125.674 129.642C125.394 129.642 125.175 129.572 125.016 129.432C124.867 129.292 124.792 129.096 124.792 128.844C124.792 128.583 124.867 128.387 125.016 128.256C125.175 128.116 125.394 128.046 125.674 128.046C125.954 128.046 126.169 128.116 126.318 128.256C126.477 128.387 126.556 128.583 126.556 128.844C126.556 129.096 126.477 129.292 126.318 129.432C126.169 129.572 125.954 129.642 125.674 129.642ZM129.079 138.098C128.855 138.098 128.682 138.037 128.561 137.916C128.439 137.785 128.379 137.608 128.379 137.384V131.784C128.379 131.551 128.439 131.373 128.561 131.252C128.682 131.131 128.85 131.07 129.065 131.07C129.289 131.07 129.457 131.131 129.569 131.252C129.69 131.373 129.751 131.551 129.751 131.784V132.876L129.597 132.624C129.802 132.101 130.124 131.709 130.563 131.448C131.001 131.177 131.505 131.042 132.075 131.042C132.616 131.042 133.064 131.145 133.419 131.35C133.783 131.546 134.053 131.849 134.231 132.26C134.408 132.661 134.497 133.17 134.497 133.786V137.384C134.497 137.608 134.436 137.785 134.315 137.916C134.193 138.037 134.021 138.098 133.797 138.098C133.563 138.098 133.386 138.037 133.265 137.916C133.143 137.785 133.083 137.608 133.083 137.384V133.87C133.083 133.282 132.966 132.853 132.733 132.582C132.509 132.311 132.154 132.176 131.669 132.176C131.099 132.176 130.642 132.353 130.297 132.708C129.961 133.063 129.793 133.539 129.793 134.136V137.384C129.793 137.86 129.555 138.098 129.079 138.098ZM143.049 138.126C142.489 138.126 142.017 138.028 141.635 137.832C141.252 137.636 140.967 137.347 140.781 136.964C140.594 136.581 140.501 136.115 140.501 135.564V132.26H139.661C139.474 132.26 139.329 132.213 139.227 132.12C139.124 132.017 139.073 131.882 139.073 131.714C139.073 131.537 139.124 131.401 139.227 131.308C139.329 131.215 139.474 131.168 139.661 131.168H140.501V129.726C140.501 129.493 140.561 129.315 140.683 129.194C140.813 129.073 140.991 129.012 141.215 129.012C141.439 129.012 141.611 129.073 141.733 129.194C141.854 129.315 141.915 129.493 141.915 129.726V131.168H143.553C143.739 131.168 143.884 131.215 143.987 131.308C144.089 131.401 144.141 131.537 144.141 131.714C144.141 131.882 144.089 132.017 143.987 132.12C143.884 132.213 143.739 132.26 143.553 132.26H141.915V135.452C141.915 135.947 142.017 136.32 142.223 136.572C142.437 136.824 142.783 136.95 143.259 136.95C143.427 136.95 143.571 136.936 143.693 136.908C143.823 136.871 143.931 136.847 144.015 136.838C144.117 136.838 144.201 136.875 144.267 136.95C144.332 137.015 144.365 137.146 144.365 137.342C144.365 137.482 144.337 137.613 144.281 137.734C144.234 137.855 144.145 137.935 144.015 137.972C143.903 138.009 143.749 138.042 143.553 138.07C143.366 138.107 143.198 138.126 143.049 138.126ZM148.15 138.126C147.459 138.126 146.862 137.981 146.358 137.692C145.863 137.403 145.476 136.992 145.196 136.46C144.916 135.928 144.776 135.303 144.776 134.584C144.776 134.033 144.855 133.543 145.014 133.114C145.172 132.685 145.396 132.316 145.686 132.008C145.984 131.691 146.339 131.453 146.75 131.294C147.17 131.126 147.636 131.042 148.15 131.042C148.831 131.042 149.419 131.187 149.914 131.476C150.418 131.765 150.81 132.176 151.09 132.708C151.37 133.231 151.51 133.856 151.51 134.584C151.51 135.125 151.43 135.615 151.272 136.054C151.113 136.493 150.884 136.866 150.586 137.174C150.296 137.482 149.942 137.72 149.522 137.888C149.111 138.047 148.654 138.126 148.15 138.126ZM148.15 137.034C148.532 137.034 148.868 136.941 149.158 136.754C149.447 136.567 149.671 136.292 149.83 135.928C149.998 135.564 150.082 135.116 150.082 134.584C150.082 133.781 149.904 133.175 149.55 132.764C149.195 132.353 148.728 132.148 148.15 132.148C147.758 132.148 147.417 132.241 147.128 132.428C146.838 132.605 146.61 132.876 146.442 133.24C146.283 133.604 146.204 134.052 146.204 134.584C146.204 135.377 146.381 135.984 146.736 136.404C147.09 136.824 147.562 137.034 148.15 137.034ZM159.393 138.126C158.796 138.126 158.268 137.986 157.811 137.706C157.363 137.417 157.013 137.006 156.761 136.474C156.509 135.933 156.383 135.303 156.383 134.584C156.383 133.847 156.509 133.217 156.761 132.694C157.013 132.171 157.363 131.765 157.811 131.476C158.268 131.187 158.796 131.042 159.393 131.042C159.99 131.042 160.504 131.191 160.933 131.49C161.372 131.779 161.666 132.171 161.815 132.666H161.661V128.746C161.661 128.513 161.722 128.335 161.843 128.214C161.964 128.093 162.137 128.032 162.361 128.032C162.585 128.032 162.758 128.093 162.879 128.214C163.01 128.335 163.075 128.513 163.075 128.746V137.384C163.075 137.608 163.014 137.785 162.893 137.916C162.772 138.037 162.599 138.098 162.375 138.098C162.151 138.098 161.978 138.037 161.857 137.916C161.736 137.785 161.675 137.608 161.675 137.384V136.152L161.829 136.46C161.68 136.964 161.386 137.37 160.947 137.678C160.518 137.977 160 138.126 159.393 138.126ZM159.757 137.034C160.14 137.034 160.476 136.941 160.765 136.754C161.054 136.567 161.278 136.292 161.437 135.928C161.605 135.564 161.689 135.116 161.689 134.584C161.689 133.781 161.512 133.175 161.157 132.764C160.802 132.353 160.336 132.148 159.757 132.148C159.365 132.148 159.024 132.241 158.735 132.428C158.446 132.605 158.217 132.876 158.049 133.24C157.89 133.604 157.811 134.052 157.811 134.584C157.811 135.377 157.988 135.984 158.343 136.404C158.698 136.824 159.169 137.034 159.757 137.034ZM165.76 138.084C165.536 138.084 165.364 138.019 165.242 137.888C165.121 137.748 165.06 137.557 165.06 137.314V131.854C165.06 131.611 165.121 131.425 165.242 131.294C165.364 131.163 165.536 131.098 165.76 131.098C165.984 131.098 166.157 131.163 166.278 131.294C166.409 131.425 166.474 131.611 166.474 131.854V137.314C166.474 137.557 166.414 137.748 166.292 137.888C166.171 138.019 165.994 138.084 165.76 138.084ZM165.76 129.642C165.48 129.642 165.261 129.572 165.102 129.432C164.953 129.292 164.878 129.096 164.878 128.844C164.878 128.583 164.953 128.387 165.102 128.256C165.261 128.116 165.48 128.046 165.76 128.046C166.04 128.046 166.255 128.116 166.404 128.256C166.563 128.387 166.642 128.583 166.642 128.844C166.642 129.096 166.563 129.292 166.404 129.432C166.255 129.572 166.04 129.642 165.76 129.642ZM170.859 138.126C170.448 138.126 170.023 138.079 169.585 137.986C169.155 137.893 168.759 137.734 168.395 137.51C168.273 137.426 168.189 137.333 168.143 137.23C168.096 137.127 168.077 137.025 168.087 136.922C168.105 136.81 168.147 136.717 168.213 136.642C168.287 136.558 168.376 136.507 168.479 136.488C168.591 136.469 168.707 136.493 168.829 136.558C169.193 136.763 169.543 136.908 169.879 136.992C170.215 137.067 170.546 137.104 170.873 137.104C171.367 137.104 171.741 137.015 171.993 136.838C172.245 136.661 172.371 136.423 172.371 136.124C172.371 135.881 172.287 135.695 172.119 135.564C171.951 135.424 171.699 135.317 171.363 135.242L170.033 134.976C169.454 134.855 169.015 134.64 168.717 134.332C168.418 134.024 168.269 133.632 168.269 133.156C168.269 132.727 168.385 132.353 168.619 132.036C168.852 131.719 169.179 131.476 169.599 131.308C170.019 131.131 170.504 131.042 171.055 131.042C171.465 131.042 171.853 131.093 172.217 131.196C172.581 131.299 172.917 131.453 173.225 131.658C173.346 131.723 173.425 131.812 173.463 131.924C173.5 132.027 173.505 132.129 173.477 132.232C173.458 132.335 173.411 132.428 173.337 132.512C173.262 132.587 173.169 132.633 173.057 132.652C172.954 132.661 172.837 132.633 172.707 132.568C172.427 132.391 172.147 132.265 171.867 132.19C171.596 132.115 171.325 132.078 171.055 132.078C170.56 132.078 170.187 132.171 169.935 132.358C169.692 132.535 169.571 132.778 169.571 133.086C169.571 133.319 169.645 133.511 169.795 133.66C169.944 133.809 170.177 133.917 170.495 133.982L171.825 134.248C172.431 134.369 172.889 134.575 173.197 134.864C173.514 135.153 173.673 135.545 173.673 136.04C173.673 136.684 173.416 137.193 172.903 137.566C172.389 137.939 171.708 138.126 170.859 138.126ZM178.256 138.126C177.556 138.126 176.949 137.981 176.436 137.692C175.932 137.393 175.54 136.978 175.26 136.446C174.98 135.905 174.84 135.27 174.84 134.542C174.84 134.001 174.919 133.515 175.078 133.086C175.237 132.647 175.461 132.279 175.75 131.98C176.049 131.681 176.408 131.453 176.828 131.294C177.257 131.126 177.733 131.042 178.256 131.042C178.583 131.042 178.923 131.093 179.278 131.196C179.642 131.289 179.978 131.448 180.286 131.672C180.407 131.747 180.482 131.84 180.51 131.952C180.547 132.055 180.552 132.162 180.524 132.274C180.505 132.386 180.454 132.484 180.37 132.568C180.295 132.643 180.202 132.689 180.09 132.708C179.978 132.717 179.857 132.685 179.726 132.61C179.502 132.451 179.273 132.339 179.04 132.274C178.807 132.199 178.583 132.162 178.368 132.162C178.032 132.162 177.733 132.218 177.472 132.33C177.22 132.433 177.005 132.587 176.828 132.792C176.651 132.988 176.515 133.235 176.422 133.534C176.338 133.833 176.296 134.173 176.296 134.556C176.296 135.321 176.473 135.923 176.828 136.362C177.192 136.791 177.705 137.006 178.368 137.006C178.583 137.006 178.807 136.973 179.04 136.908C179.273 136.843 179.502 136.731 179.726 136.572C179.857 136.497 179.978 136.469 180.09 136.488C180.202 136.507 180.291 136.558 180.356 136.642C180.431 136.717 180.477 136.81 180.496 136.922C180.524 137.025 180.519 137.132 180.482 137.244C180.445 137.356 180.365 137.449 180.244 137.524C179.945 137.739 179.619 137.893 179.264 137.986C178.919 138.079 178.583 138.126 178.256 138.126ZM184.612 138.126C183.922 138.126 183.324 137.981 182.82 137.692C182.326 137.403 181.938 136.992 181.658 136.46C181.378 135.928 181.238 135.303 181.238 134.584C181.238 134.033 181.318 133.543 181.476 133.114C181.635 132.685 181.859 132.316 182.148 132.008C182.447 131.691 182.802 131.453 183.212 131.294C183.632 131.126 184.099 131.042 184.612 131.042C185.294 131.042 185.882 131.187 186.376 131.476C186.88 131.765 187.272 132.176 187.552 132.708C187.832 133.231 187.972 133.856 187.972 134.584C187.972 135.125 187.893 135.615 187.734 136.054C187.576 136.493 187.347 136.866 187.048 137.174C186.759 137.482 186.404 137.72 185.984 137.888C185.574 138.047 185.116 138.126 184.612 138.126ZM184.612 137.034C184.995 137.034 185.331 136.941 185.62 136.754C185.91 136.567 186.134 136.292 186.292 135.928C186.46 135.564 186.544 135.116 186.544 134.584C186.544 133.781 186.367 133.175 186.012 132.764C185.658 132.353 185.191 132.148 184.612 132.148C184.22 132.148 183.88 132.241 183.59 132.428C183.301 132.605 183.072 132.876 182.904 133.24C182.746 133.604 182.666 134.052 182.666 134.584C182.666 135.377 182.844 135.984 183.198 136.404C183.553 136.824 184.024 137.034 184.612 137.034ZM192.083 138.098C191.887 138.098 191.715 138.047 191.565 137.944C191.425 137.841 191.309 137.683 191.215 137.468L188.877 132.036C188.803 131.868 188.775 131.709 188.793 131.56C188.812 131.411 188.882 131.294 189.003 131.21C189.125 131.117 189.288 131.07 189.493 131.07C189.671 131.07 189.811 131.112 189.913 131.196C190.016 131.28 190.109 131.425 190.193 131.63L192.307 136.838H191.915L194.071 131.63C194.155 131.425 194.249 131.28 194.351 131.196C194.463 131.112 194.617 131.07 194.813 131.07C194.981 131.07 195.112 131.117 195.205 131.21C195.308 131.294 195.369 131.411 195.387 131.56C195.415 131.7 195.392 131.854 195.317 132.022L192.951 137.468C192.867 137.683 192.751 137.841 192.601 137.944C192.452 138.047 192.279 138.098 192.083 138.098ZM199.794 138.126C199.047 138.126 198.403 137.986 197.862 137.706C197.33 137.417 196.914 137.011 196.616 136.488C196.326 135.956 196.182 135.326 196.182 134.598C196.182 133.889 196.326 133.268 196.616 132.736C196.905 132.204 197.302 131.789 197.806 131.49C198.31 131.191 198.884 131.042 199.528 131.042C200.004 131.042 200.428 131.121 200.802 131.28C201.175 131.429 201.492 131.653 201.754 131.952C202.024 132.241 202.225 132.596 202.356 133.016C202.496 133.436 202.566 133.907 202.566 134.43C202.566 134.589 202.519 134.71 202.426 134.794C202.332 134.869 202.192 134.906 202.006 134.906H197.302V134.038H201.614L201.376 134.234C201.376 133.767 201.306 133.371 201.166 133.044C201.035 132.717 200.834 132.47 200.564 132.302C200.302 132.125 199.976 132.036 199.584 132.036C199.145 132.036 198.772 132.139 198.464 132.344C198.165 132.549 197.936 132.834 197.778 133.198C197.619 133.562 197.54 133.987 197.54 134.472V134.556C197.54 135.377 197.731 135.998 198.114 136.418C198.506 136.829 199.07 137.034 199.808 137.034C200.088 137.034 200.382 136.997 200.69 136.922C201.007 136.847 201.306 136.721 201.586 136.544C201.744 136.451 201.884 136.409 202.006 136.418C202.136 136.427 202.239 136.469 202.314 136.544C202.398 136.619 202.449 136.712 202.468 136.824C202.486 136.936 202.468 137.053 202.412 137.174C202.356 137.286 202.258 137.389 202.118 137.482C201.8 137.697 201.432 137.86 201.012 137.972C200.592 138.075 200.186 138.126 199.794 138.126ZM204.821 138.098C204.588 138.098 204.411 138.037 204.289 137.916C204.168 137.785 204.107 137.608 204.107 137.384V131.784C204.107 131.551 204.168 131.373 204.289 131.252C204.411 131.131 204.579 131.07 204.793 131.07C205.017 131.07 205.185 131.131 205.297 131.252C205.419 131.373 205.479 131.551 205.479 131.784V132.806H205.339C205.489 132.246 205.764 131.821 206.165 131.532C206.567 131.243 207.08 131.075 207.705 131.028C207.873 131.019 208.004 131.061 208.097 131.154C208.2 131.247 208.256 131.392 208.265 131.588C208.284 131.784 208.242 131.943 208.139 132.064C208.037 132.176 207.878 132.241 207.663 132.26L207.397 132.288C206.791 132.344 206.329 132.535 206.011 132.862C205.694 133.189 205.535 133.637 205.535 134.206V137.384C205.535 137.608 205.475 137.785 205.353 137.916C205.241 138.037 205.064 138.098 204.821 138.098ZM215.933 138.126C215.373 138.126 214.902 138.028 214.519 137.832C214.137 137.636 213.852 137.347 213.665 136.964C213.479 136.581 213.385 136.115 213.385 135.564V132.26H212.545C212.359 132.26 212.214 132.213 212.111 132.12C212.009 132.017 211.957 131.882 211.957 131.714C211.957 131.537 212.009 131.401 212.111 131.308C212.214 131.215 212.359 131.168 212.545 131.168H213.385V129.726C213.385 129.493 213.446 129.315 213.567 129.194C213.698 129.073 213.875 129.012 214.099 129.012C214.323 129.012 214.496 129.073 214.617 129.194C214.739 129.315 214.799 129.493 214.799 129.726V131.168H216.437C216.624 131.168 216.769 131.215 216.871 131.308C216.974 131.401 217.025 131.537 217.025 131.714C217.025 131.882 216.974 132.017 216.871 132.12C216.769 132.213 216.624 132.26 216.437 132.26H214.799V135.452C214.799 135.947 214.902 136.32 215.107 136.572C215.322 136.824 215.667 136.95 216.143 136.95C216.311 136.95 216.456 136.936 216.577 136.908C216.708 136.871 216.815 136.847 216.899 136.838C217.002 136.838 217.086 136.875 217.151 136.95C217.217 137.015 217.249 137.146 217.249 137.342C217.249 137.482 217.221 137.613 217.165 137.734C217.119 137.855 217.03 137.935 216.899 137.972C216.787 138.009 216.633 138.042 216.437 138.07C216.251 138.107 216.083 138.126 215.933 138.126ZM218.958 138.098C218.734 138.098 218.561 138.037 218.44 137.916C218.318 137.785 218.258 137.608 218.258 137.384V128.746C218.258 128.513 218.318 128.335 218.44 128.214C218.561 128.093 218.734 128.032 218.958 128.032C219.182 128.032 219.354 128.093 219.476 128.214C219.606 128.335 219.672 128.513 219.672 128.746V132.624H219.476C219.681 132.101 220.003 131.709 220.442 131.448C220.88 131.177 221.384 131.042 221.954 131.042C222.495 131.042 222.943 131.145 223.298 131.35C223.662 131.546 223.932 131.849 224.11 132.26C224.287 132.661 224.376 133.17 224.376 133.786V137.384C224.376 137.608 224.315 137.785 224.194 137.916C224.072 138.037 223.9 138.098 223.676 138.098C223.442 138.098 223.265 138.037 223.144 137.916C223.022 137.785 222.962 137.608 222.962 137.384V133.87C222.962 133.282 222.845 132.853 222.612 132.582C222.388 132.311 222.033 132.176 221.548 132.176C220.978 132.176 220.521 132.353 220.176 132.708C219.84 133.063 219.672 133.539 219.672 134.136V137.384C219.672 137.86 219.434 138.098 218.958 138.098ZM229.53 138.126C228.783 138.126 228.139 137.986 227.598 137.706C227.066 137.417 226.651 137.011 226.352 136.488C226.063 135.956 225.918 135.326 225.918 134.598C225.918 133.889 226.063 133.268 226.352 132.736C226.641 132.204 227.038 131.789 227.542 131.49C228.046 131.191 228.62 131.042 229.264 131.042C229.74 131.042 230.165 131.121 230.538 131.28C230.911 131.429 231.229 131.653 231.49 131.952C231.761 132.241 231.961 132.596 232.092 133.016C232.232 133.436 232.302 133.907 232.302 134.43C232.302 134.589 232.255 134.71 232.162 134.794C232.069 134.869 231.929 134.906 231.742 134.906H227.038V134.038H231.35L231.112 134.234C231.112 133.767 231.042 133.371 230.902 133.044C230.771 132.717 230.571 132.47 230.3 132.302C230.039 132.125 229.712 132.036 229.32 132.036C228.881 132.036 228.508 132.139 228.2 132.344C227.901 132.549 227.673 132.834 227.514 133.198C227.355 133.562 227.276 133.987 227.276 134.472V134.556C227.276 135.377 227.467 135.998 227.85 136.418C228.242 136.829 228.807 137.034 229.544 137.034C229.824 137.034 230.118 136.997 230.426 136.922C230.743 136.847 231.042 136.721 231.322 136.544C231.481 136.451 231.621 136.409 231.742 136.418C231.873 136.427 231.975 136.469 232.05 136.544C232.134 136.619 232.185 136.712 232.204 136.824C232.223 136.936 232.204 137.053 232.148 137.174C232.092 137.286 231.994 137.389 231.854 137.482C231.537 137.697 231.168 137.86 230.748 137.972C230.328 138.075 229.922 138.126 229.53 138.126ZM240.629 140.646C240.125 140.646 239.635 140.595 239.159 140.492C238.692 140.389 238.268 140.221 237.885 139.988C237.745 139.913 237.652 139.82 237.605 139.708C237.558 139.605 237.544 139.498 237.563 139.386C237.591 139.274 237.642 139.176 237.717 139.092C237.792 139.008 237.88 138.952 237.983 138.924C238.095 138.896 238.212 138.915 238.333 138.98C238.744 139.204 239.131 139.353 239.495 139.428C239.868 139.512 240.214 139.554 240.531 139.554C241.184 139.554 241.674 139.386 242.001 139.05C242.328 138.723 242.491 138.238 242.491 137.594V136.166H242.617C242.477 136.679 242.183 137.085 241.735 137.384C241.287 137.683 240.769 137.832 240.181 137.832C239.565 137.832 239.028 137.692 238.571 137.412C238.114 137.123 237.759 136.726 237.507 136.222C237.255 135.709 237.129 135.111 237.129 134.43C237.129 133.917 237.199 133.455 237.339 133.044C237.488 132.633 237.694 132.279 237.955 131.98C238.226 131.681 238.548 131.453 238.921 131.294C239.304 131.126 239.724 131.042 240.181 131.042C240.778 131.042 241.296 131.191 241.735 131.49C242.183 131.789 242.472 132.195 242.603 132.708L242.463 132.946V131.784C242.463 131.551 242.524 131.373 242.645 131.252C242.776 131.131 242.948 131.07 243.163 131.07C243.387 131.07 243.56 131.131 243.681 131.252C243.802 131.373 243.863 131.551 243.863 131.784V137.426C243.863 138.49 243.588 139.293 243.037 139.834C242.486 140.375 241.684 140.646 240.629 140.646ZM240.517 136.726C240.928 136.726 241.278 136.633 241.567 136.446C241.856 136.259 242.08 135.993 242.239 135.648C242.398 135.303 242.477 134.897 242.477 134.43C242.477 133.73 242.3 133.175 241.945 132.764C241.6 132.353 241.124 132.148 240.517 132.148C240.116 132.148 239.77 132.241 239.481 132.428C239.192 132.615 238.963 132.881 238.795 133.226C238.636 133.562 238.557 133.963 238.557 134.43C238.557 135.139 238.734 135.699 239.089 136.11C239.444 136.521 239.92 136.726 240.517 136.726ZM246.562 138.098C246.328 138.098 246.151 138.037 246.03 137.916C245.908 137.785 245.848 137.608 245.848 137.384V131.784C245.848 131.551 245.908 131.373 246.03 131.252C246.151 131.131 246.319 131.07 246.534 131.07C246.758 131.07 246.926 131.131 247.038 131.252C247.159 131.373 247.22 131.551 247.22 131.784V132.806H247.08C247.229 132.246 247.504 131.821 247.906 131.532C248.307 131.243 248.82 131.075 249.446 131.028C249.614 131.019 249.744 131.061 249.838 131.154C249.94 131.247 249.996 131.392 250.006 131.588C250.024 131.784 249.982 131.943 249.88 132.064C249.777 132.176 249.618 132.241 249.404 132.26L249.138 132.288C248.531 132.344 248.069 132.535 247.752 132.862C247.434 133.189 247.276 133.637 247.276 134.206V137.384C247.276 137.608 247.215 137.785 247.094 137.916C246.982 138.037 246.804 138.098 246.562 138.098ZM254.18 138.126C253.434 138.126 252.79 137.986 252.248 137.706C251.716 137.417 251.301 137.011 251.002 136.488C250.713 135.956 250.568 135.326 250.568 134.598C250.568 133.889 250.713 133.268 251.002 132.736C251.292 132.204 251.688 131.789 252.192 131.49C252.696 131.191 253.27 131.042 253.914 131.042C254.39 131.042 254.815 131.121 255.188 131.28C255.562 131.429 255.879 131.653 256.14 131.952C256.411 132.241 256.612 132.596 256.742 133.016C256.882 133.436 256.952 133.907 256.952 134.43C256.952 134.589 256.906 134.71 256.812 134.794C256.719 134.869 256.579 134.906 256.392 134.906H251.688V134.038H256L255.762 134.234C255.762 133.767 255.692 133.371 255.552 133.044C255.422 132.717 255.221 132.47 254.95 132.302C254.689 132.125 254.362 132.036 253.97 132.036C253.532 132.036 253.158 132.139 252.85 132.344C252.552 132.549 252.323 132.834 252.164 133.198C252.006 133.562 251.926 133.987 251.926 134.472V134.556C251.926 135.377 252.118 135.998 252.5 136.418C252.892 136.829 253.457 137.034 254.194 137.034C254.474 137.034 254.768 136.997 255.076 136.922C255.394 136.847 255.692 136.721 255.972 136.544C256.131 136.451 256.271 136.409 256.392 136.418C256.523 136.427 256.626 136.469 256.7 136.544C256.784 136.619 256.836 136.712 256.854 136.824C256.873 136.936 256.854 137.053 256.798 137.174C256.742 137.286 256.644 137.389 256.504 137.482C256.187 137.697 255.818 137.86 255.398 137.972C254.978 138.075 254.572 138.126 254.18 138.126ZM260.678 138.126C260.202 138.126 259.773 138.033 259.39 137.846C259.017 137.659 258.723 137.407 258.508 137.09C258.293 136.773 258.186 136.413 258.186 136.012C258.186 135.508 258.312 135.111 258.564 134.822C258.825 134.523 259.25 134.313 259.838 134.192C260.435 134.061 261.238 133.996 262.246 133.996H262.904V134.864H262.26C261.588 134.864 261.056 134.897 260.664 134.962C260.272 135.027 259.992 135.139 259.824 135.298C259.665 135.447 259.586 135.657 259.586 135.928C259.586 136.283 259.707 136.572 259.95 136.796C260.193 137.011 260.529 137.118 260.958 137.118C261.303 137.118 261.607 137.039 261.868 136.88C262.129 136.712 262.335 136.488 262.484 136.208C262.643 135.928 262.722 135.606 262.722 135.242V133.632C262.722 133.1 262.61 132.717 262.386 132.484C262.162 132.251 261.793 132.134 261.28 132.134C260.981 132.134 260.669 132.171 260.342 132.246C260.025 132.321 259.693 132.447 259.348 132.624C259.189 132.699 259.054 132.722 258.942 132.694C258.83 132.666 258.741 132.605 258.676 132.512C258.611 132.409 258.573 132.302 258.564 132.19C258.564 132.069 258.592 131.952 258.648 131.84C258.713 131.728 258.821 131.644 258.97 131.588C259.381 131.392 259.787 131.252 260.188 131.168C260.589 131.084 260.967 131.042 261.322 131.042C261.947 131.042 262.461 131.14 262.862 131.336C263.273 131.532 263.576 131.831 263.772 132.232C263.968 132.633 264.066 133.151 264.066 133.786V137.384C264.066 137.608 264.01 137.785 263.898 137.916C263.786 138.037 263.623 138.098 263.408 138.098C263.203 138.098 263.039 138.037 262.918 137.916C262.797 137.785 262.736 137.608 262.736 137.384V136.474H262.862C262.787 136.819 262.647 137.118 262.442 137.37C262.246 137.613 261.999 137.799 261.7 137.93C261.401 138.061 261.061 138.126 260.678 138.126ZM268.926 138.126C268.366 138.126 267.894 138.028 267.512 137.832C267.129 137.636 266.844 137.347 266.658 136.964C266.471 136.581 266.378 136.115 266.378 135.564V132.26H265.538C265.351 132.26 265.206 132.213 265.104 132.12C265.001 132.017 264.95 131.882 264.95 131.714C264.95 131.537 265.001 131.401 265.104 131.308C265.206 131.215 265.351 131.168 265.538 131.168H266.378V129.726C266.378 129.493 266.438 129.315 266.56 129.194C266.69 129.073 266.868 129.012 267.092 129.012C267.316 129.012 267.488 129.073 267.61 129.194C267.731 129.315 267.792 129.493 267.792 129.726V131.168H269.43C269.616 131.168 269.761 131.215 269.864 131.308C269.966 131.401 270.018 131.537 270.018 131.714C270.018 131.882 269.966 132.017 269.864 132.12C269.761 132.213 269.616 132.26 269.43 132.26H267.792V135.452C267.792 135.947 267.894 136.32 268.1 136.572C268.314 136.824 268.66 136.95 269.136 136.95C269.304 136.95 269.448 136.936 269.57 136.908C269.7 136.871 269.808 136.847 269.892 136.838C269.994 136.838 270.078 136.875 270.144 136.95C270.209 137.015 270.242 137.146 270.242 137.342C270.242 137.482 270.214 137.613 270.158 137.734C270.111 137.855 270.022 137.935 269.892 137.972C269.78 138.009 269.626 138.042 269.43 138.07C269.243 138.107 269.075 138.126 268.926 138.126ZM277.31 138.098C277.114 138.098 276.942 138.051 276.792 137.958C276.652 137.855 276.54 137.697 276.456 137.482L274.398 132.036C274.324 131.849 274.3 131.686 274.328 131.546C274.356 131.397 274.426 131.28 274.538 131.196C274.66 131.112 274.814 131.07 275 131.07C275.168 131.07 275.304 131.112 275.406 131.196C275.518 131.271 275.612 131.42 275.686 131.644L277.52 136.81H277.184L279.088 131.588C279.154 131.411 279.242 131.28 279.354 131.196C279.466 131.112 279.611 131.07 279.788 131.07C279.966 131.07 280.11 131.112 280.222 131.196C280.344 131.28 280.432 131.411 280.488 131.588L282.35 136.81H282.042L283.904 131.616C283.979 131.401 284.072 131.257 284.184 131.182C284.306 131.107 284.441 131.07 284.59 131.07C284.777 131.07 284.917 131.117 285.01 131.21C285.113 131.303 285.169 131.425 285.178 131.574C285.197 131.714 285.174 131.868 285.108 132.036L283.05 137.482C282.966 137.687 282.85 137.841 282.7 137.944C282.56 138.047 282.397 138.098 282.21 138.098C282.014 138.098 281.842 138.047 281.692 137.944C281.552 137.841 281.44 137.687 281.356 137.482L279.396 132.176H280.096L278.15 137.482C278.076 137.687 277.964 137.841 277.814 137.944C277.674 138.047 277.506 138.098 277.31 138.098ZM287.358 138.084C287.134 138.084 286.961 138.019 286.84 137.888C286.719 137.748 286.658 137.557 286.658 137.314V131.854C286.658 131.611 286.719 131.425 286.84 131.294C286.961 131.163 287.134 131.098 287.358 131.098C287.582 131.098 287.755 131.163 287.876 131.294C288.007 131.425 288.072 131.611 288.072 131.854V137.314C288.072 137.557 288.011 137.748 287.89 137.888C287.769 138.019 287.591 138.084 287.358 138.084ZM287.358 129.642C287.078 129.642 286.859 129.572 286.7 129.432C286.551 129.292 286.476 129.096 286.476 128.844C286.476 128.583 286.551 128.387 286.7 128.256C286.859 128.116 287.078 128.046 287.358 128.046C287.638 128.046 287.853 128.116 288.002 128.256C288.161 128.387 288.24 128.583 288.24 128.844C288.24 129.096 288.161 129.292 288.002 129.432C287.853 129.572 287.638 129.642 287.358 129.642ZM290.762 138.098C290.538 138.098 290.366 138.037 290.244 137.916C290.123 137.785 290.062 137.608 290.062 137.384V131.784C290.062 131.551 290.123 131.373 290.244 131.252C290.366 131.131 290.534 131.07 290.748 131.07C290.972 131.07 291.14 131.131 291.252 131.252C291.374 131.373 291.434 131.551 291.434 131.784V132.876L291.28 132.624C291.486 132.101 291.808 131.709 292.246 131.448C292.685 131.177 293.189 131.042 293.758 131.042C294.3 131.042 294.748 131.145 295.102 131.35C295.466 131.546 295.737 131.849 295.914 132.26C296.092 132.661 296.18 133.17 296.18 133.786V137.384C296.18 137.608 296.12 137.785 295.998 137.916C295.877 138.037 295.704 138.098 295.48 138.098C295.247 138.098 295.07 138.037 294.948 137.916C294.827 137.785 294.766 137.608 294.766 137.384V133.87C294.766 133.282 294.65 132.853 294.416 132.582C294.192 132.311 293.838 132.176 293.352 132.176C292.783 132.176 292.326 132.353 291.98 132.708C291.644 133.063 291.476 133.539 291.476 134.136V137.384C291.476 137.86 291.238 138.098 290.762 138.098ZM298.829 138.098C298.605 138.098 298.432 138.037 298.311 137.916C298.189 137.785 298.129 137.608 298.129 137.384V131.784C298.129 131.551 298.189 131.373 298.311 131.252C298.432 131.131 298.6 131.07 298.815 131.07C299.039 131.07 299.207 131.131 299.319 131.252C299.44 131.373 299.501 131.551 299.501 131.784V132.876L299.347 132.624C299.552 132.101 299.874 131.709 300.313 131.448C300.751 131.177 301.255 131.042 301.825 131.042C302.366 131.042 302.814 131.145 303.169 131.35C303.533 131.546 303.803 131.849 303.981 132.26C304.158 132.661 304.247 133.17 304.247 133.786V137.384C304.247 137.608 304.186 137.785 304.065 137.916C303.943 138.037 303.771 138.098 303.547 138.098C303.313 138.098 303.136 138.037 303.015 137.916C302.893 137.785 302.833 137.608 302.833 137.384V133.87C302.833 133.282 302.716 132.853 302.483 132.582C302.259 132.311 301.904 132.176 301.419 132.176C300.849 132.176 300.392 132.353 300.047 132.708C299.711 133.063 299.543 133.539 299.543 134.136V137.384C299.543 137.86 299.305 138.098 298.829 138.098ZM309.401 138.126C308.655 138.126 308.011 137.986 307.469 137.706C306.937 137.417 306.522 137.011 306.223 136.488C305.934 135.956 305.789 135.326 305.789 134.598C305.789 133.889 305.934 133.268 306.223 132.736C306.513 132.204 306.909 131.789 307.413 131.49C307.917 131.191 308.491 131.042 309.135 131.042C309.611 131.042 310.036 131.121 310.409 131.28C310.783 131.429 311.1 131.653 311.361 131.952C311.632 132.241 311.833 132.596 311.963 133.016C312.103 133.436 312.173 133.907 312.173 134.43C312.173 134.589 312.127 134.71 312.033 134.794C311.94 134.869 311.8 134.906 311.613 134.906H306.909V134.038H311.221L310.983 134.234C310.983 133.767 310.913 133.371 310.773 133.044C310.643 132.717 310.442 132.47 310.171 132.302C309.91 132.125 309.583 132.036 309.191 132.036C308.753 132.036 308.379 132.139 308.071 132.344C307.773 132.549 307.544 132.834 307.385 133.198C307.227 133.562 307.147 133.987 307.147 134.472V134.556C307.147 135.377 307.339 135.998 307.721 136.418C308.113 136.829 308.678 137.034 309.415 137.034C309.695 137.034 309.989 136.997 310.297 136.922C310.615 136.847 310.913 136.721 311.193 136.544C311.352 136.451 311.492 136.409 311.613 136.418C311.744 136.427 311.847 136.469 311.921 136.544C312.005 136.619 312.057 136.712 312.075 136.824C312.094 136.936 312.075 137.053 312.019 137.174C311.963 137.286 311.865 137.389 311.725 137.482C311.408 137.697 311.039 137.86 310.619 137.972C310.199 138.075 309.793 138.126 309.401 138.126ZM314.429 138.098C314.195 138.098 314.018 138.037 313.897 137.916C313.775 137.785 313.715 137.608 313.715 137.384V131.784C313.715 131.551 313.775 131.373 313.897 131.252C314.018 131.131 314.186 131.07 314.401 131.07C314.625 131.07 314.793 131.131 314.905 131.252C315.026 131.373 315.087 131.551 315.087 131.784V132.806H314.947C315.096 132.246 315.371 131.821 315.773 131.532C316.174 131.243 316.687 131.075 317.313 131.028C317.481 131.019 317.611 131.061 317.705 131.154C317.807 131.247 317.863 131.392 317.873 131.588C317.891 131.784 317.849 131.943 317.747 132.064C317.644 132.176 317.485 132.241 317.271 132.26L317.005 132.288C316.398 132.344 315.936 132.535 315.619 132.862C315.301 133.189 315.143 133.637 315.143 134.206V137.384C315.143 137.608 315.082 137.785 314.961 137.916C314.849 138.037 314.671 138.098 314.429 138.098Z" fill="#252831"/>
</g>
<defs>
<linearGradient id="paint0_linear_41580_198268" x1="10.58" y1="-0.999995" x2="339.346" y2="180.255" gradientUnits="userSpaceOnUse">
<stop stop-color="#FFB75A"/>
<stop offset="1" stop-color="#FF7233"/>
</linearGradient>
</defs>
</svg>
