<svg width="199" height="27" viewBox="0 0 199 27" fill="none" xmlns="http://www.w3.org/2000/svg">
<g clip-path="url(#clip0_41580_201212)">
<path d="M7.37859 20.8226H17.1975V26.3606H0V21.899L9.63818 6.72274H0.180767V1.18469H17.0332V5.61349L7.37859 20.8226Z" fill="#B9C0C7"/>
<path d="M24.9214 1.18469H30.6731V26.3688H24.9214V1.18469Z" fill="#B9C0C7"/>
<path d="M59.8263 26.3688H53.2776L45.217 14.734V26.3688H39.4653V1.18469H45.217V12.1211L52.9161 1.18469H59.4648L50.9769 13.4522L59.8263 26.3688Z" fill="#B9C0C7"/>
<path d="M86.1107 23.0903C83.5717 25.6046 80.4741 26.87 76.8341 26.87C73.1941 26.87 70.0964 25.6128 67.5574 23.0903C65.0185 20.5678 63.7449 17.4701 63.7449 13.7726C63.7449 10.0751 65.0185 6.97737 67.5574 4.45485C70.0964 1.93232 73.1941 0.675171 76.8341 0.675171C80.4741 0.675171 83.5717 1.93232 86.1107 4.45485C88.6497 6.96916 89.9232 10.0751 89.9232 13.7726C89.9232 17.4701 88.6497 20.5678 86.1107 23.0903ZM71.6 19.1709C73.0051 20.5596 74.747 21.258 76.8341 21.258C78.9211 21.258 80.663 20.5596 82.0681 19.1709C83.4731 17.7823 84.1716 15.9829 84.1716 13.7726C84.1716 11.5623 83.4731 9.77105 82.0681 8.37421C80.663 6.97737 78.9211 6.28717 76.8341 6.28717C74.747 6.28717 73.0051 6.98559 71.6 8.37421C70.195 9.76283 69.4966 11.5623 69.4966 13.7726C69.4966 15.9829 70.195 17.7741 71.6 19.1709Z" fill="#B9C0C7"/>
<path d="M103.185 20.8226H112.174V26.3606H97.4255V1.18469H103.177V20.8226H103.185Z" fill="#B9C0C7"/>
<path d="M136.093 26.3688L134.745 22.4084H125.057L123.8 26.3688H117.506L126.06 1.18469H133.397L141.976 26.3606H136.084L136.093 26.3688ZM126.799 17.0183H132.904L129.749 7.77448L126.799 17.0183Z" fill="#B9C0C7"/>
<path d="M162.164 1.18469H167.916V26.3688H163.602L153.89 12.7045V26.3688H148.138V1.18469H152.452L162.164 14.849V1.18469Z" fill="#B9C0C7"/>
<path d="M186.765 1.18469C190.241 1.18469 193.149 2.39255 195.491 4.80004C197.833 7.20753 199 10.1984 199 13.7727C199 17.3469 197.833 20.3378 195.491 22.7453C193.149 25.1528 190.249 26.3606 186.765 26.3606H176.691V1.18469H186.765ZM186.765 20.8226C188.754 20.8226 190.364 20.1817 191.605 18.8999C192.837 17.6181 193.453 15.909 193.453 13.7727C193.453 11.6363 192.837 9.92725 191.605 8.64545C190.372 7.36364 188.754 6.72274 186.765 6.72274H182.451V20.8226H186.765Z" fill="#B9C0C7"/>
</g>
<defs>
<clipPath id="clip0_41580_201212">
<rect width="199" height="26.1866" fill="white" transform="translate(0 0.683472)"/>
</clipPath>
</defs>
</svg>
