<svg width="9" height="34" viewBox="0 0 9 34" fill="none" xmlns="http://www.w3.org/2000/svg">
<path d="M8.72387 15.6908C8.72027 13.5969 7.48736 11.8263 5.77998 11.1835C5.77279 9.57463 5.76919 7.96967 5.7656 6.36471H5.75482C5.75122 4.95297 5.74763 3.54518 5.74763 2.13739H2.89719C2.90798 5.15409 2.91517 8.17472 2.91876 11.1914C1.21497 11.846 -0.00715744 13.6284 3.15494e-05 15.7184L0.04676 34L8.77419 33.9685L8.72387 15.6908ZM1.76133 28.5581H1.68225C1.39829 28.5581 1.16824 28.3057 1.16465 27.9942L1.13589 17.4141C1.13589 17.1026 1.36594 16.8502 1.6499 16.8502H1.72898C2.01295 16.8502 2.243 17.0986 2.243 17.4102L2.27175 27.9903C2.27175 28.3018 2.0453 28.5542 1.76133 28.5581Z" fill="#D54F5B"/>
<path d="M5.7477 2.13739H2.89727C2.89727 1.57743 2.89368 1.02141 2.89368 0.461451C2.89008 0.142036 2.96557 0.00401732 3.20999 0.00796072C3.95046 0.0197909 4.69092 0.0158475 5.42779 7.39309e-05C5.67941 -0.00386946 5.74411 0.149923 5.74411 0.465394C5.74411 1.02141 5.74411 1.57743 5.7477 2.13739Z" fill="#FFD077"/>
</svg>
