<svg width="25" height="30" viewBox="0 0 25 30" fill="none" xmlns="http://www.w3.org/2000/svg">
<path d="M13.5915 28.1991C13.3798 26.8241 14.2926 25.5593 15.6345 25.3736C16.9764 25.1879 18.2355 26.1486 18.4472 27.5237C18.4517 27.5442 18.4471 27.5641 18.4516 27.5847L24.2407 26.7777L10.6074 11.4894C10.1921 11.9333 9.63987 12.2517 8.99345 12.3407C7.45531 12.5568 6.01158 11.4506 5.7657 9.87441C5.60111 8.81192 6.02882 7.81857 6.79262 7.21138L0.73578 0.416535L5.22489 29.4217L13.607 28.2554C13.607 28.2554 13.5944 28.2159 13.5899 28.1953L13.5915 28.1991ZM6.77663 21.5278C6.63681 20.6346 7.23362 19.8114 8.10531 19.6884C8.97701 19.5655 9.79651 20.1935 9.93632 21.0868C10.0761 21.9801 9.47933 22.8033 8.60764 22.9262C7.73594 23.0491 6.91644 22.4211 6.77663 21.5278Z" fill="#FFB71B"/>
</svg>
