<svg width="31" height="36" viewBox="0 0 31 36" fill="none" xmlns="http://www.w3.org/2000/svg">
<path d="M21.1342 28.4148L20.4539 28.2685C18.5594 27.8594 16.9276 27.5064 15.003 26.473C13.0526 25.388 11.6404 24.2428 10.5984 23.1319C9.12595 21.5604 8.394 20.0534 7.93761 18.8737C7.16691 16.8889 7.619 13.9395 7.98067 11.5629C8.13997 10.5123 8.22608 8.59203 8.19594 8.32078C8.0883 7.23578 7.95483 5.77619 8.17442 4.48883C6.80955 5.76758 4.80316 7.64481 4.14441 8.2605C3.11538 9.22495 3.87746 11.6877 3.75691 13.9654C3.66219 15.722 2.36191 20.9059 3.39955 23.5754C4.26066 25.7884 5.85802 28.3804 10.0559 30.7097C12.0839 31.799 13.3841 32.2554 15.5197 32.7376C17.5003 33.1854 21.3322 33.1165 22.4258 32.0875C23.0975 31.4589 24.9661 29.7065 26.3094 28.4493C24.626 28.8282 22.6669 28.7507 21.1255 28.4105L21.1342 28.4148Z" fill="#FF5865"/>
<path d="M26.7787 18.1719C25.4999 16.0794 21.9048 11.0203 18.7488 7.64909C17.5432 6.36172 16.3721 5.38006 15.5799 4.72992C13.4573 2.99047 12.355 2.8613 11.2786 3.08088C10.8653 3.167 10.452 3.51575 10.2539 3.82144C10.2109 3.89033 10.1807 3.97644 10.1463 4.05394C9.68559 5.09158 9.87073 7.05061 9.97406 8.14423C10.0042 8.437 10.03 8.69534 10.043 8.90631C10.086 9.59951 9.93531 10.5812 9.74587 11.8298C9.43156 13.8792 9.00531 16.6865 9.60378 18.2235C10.34 20.1266 11.7178 22.6023 15.8641 24.9015C17.5562 25.8099 19.0028 26.1243 20.837 26.5204L21.5216 26.6711C23.3041 27.0629 25.7798 27.037 27.1877 26.2577C27.2308 26.2362 27.2781 26.219 27.3169 26.1931C28.4665 25.487 28.7549 24.5441 28.7162 23.2955C28.6774 22.1158 27.9196 20.0276 26.783 18.1676L26.7787 18.1719ZM18.1417 13.2592C18.0255 13.3669 17.892 13.4487 17.7499 13.5133C16.9103 13.8965 15.6832 13.5348 14.7791 12.5703C13.7199 11.438 13.5089 9.91812 14.3098 9.16895C14.3313 9.15173 14.3571 9.13881 14.3787 9.12159C15.1924 8.44562 16.6434 8.75992 17.6724 9.86215C18.7316 10.9945 18.9425 12.5144 18.1417 13.2635V13.2592Z" fill="#FF5865"/>
</svg>
