<svg width="31" height="36" viewBox="0 0 31 36" fill="none" xmlns="http://www.w3.org/2000/svg">
<path d="M4.41128 11.7264C4.71341 11.5733 5.0587 11.3947 5.25601 11.0694C5.44716 10.7569 5.44715 10.3742 5.45332 10.0361C5.45332 9.79373 5.45333 9.51308 5.53965 9.40465C5.60747 9.30897 5.86027 9.23243 6.06992 9.17502C6.39671 9.07934 6.76667 8.97091 7.01331 8.68388C7.25378 8.4096 7.31544 8.03327 7.3771 7.70159C7.42026 7.45921 7.46959 7.18493 7.56208 7.09563C7.64224 7.01909 7.90738 6.9872 8.11702 6.96169C8.45615 6.92342 8.83844 6.87239 9.12824 6.63001C9.4057 6.40038 9.52902 6.03681 9.64001 5.7115C9.72016 5.48188 9.80649 5.22036 9.91748 5.13744C9.92981 5.13106 9.99763 5.08641 10.1949 5.04814C10.8115 4.92057 11.459 5.04814 12.0201 5.41172C13.2903 6.24092 15.4298 8.16084 15.5285 11.6945C15.5963 14.2906 16.0958 15.7385 17.0885 16.2615C18.0812 16.7845 19.5117 16.3508 21.5835 14.8838C24.4075 12.8873 27.1698 13.5507 28.5572 14.1247C29.1676 14.3799 29.6547 14.8455 29.9137 15.4387C29.9938 15.6237 30 15.7066 30 15.7257C30 15.866 29.852 16.0893 29.7164 16.2934C29.5252 16.5741 29.3156 16.893 29.2971 17.2566C29.2786 17.6456 29.4697 17.9901 29.6362 18.2963C29.741 18.4876 29.8705 18.73 29.8582 18.8448C29.8397 18.9787 29.6547 19.1829 29.4944 19.3615C29.2663 19.6038 29.0134 19.8845 28.9395 20.2417C28.8655 20.618 28.9949 20.9943 29.1059 21.3197C29.1799 21.5301 29.2663 21.7853 29.2354 21.9001C29.1984 22.034 28.9826 22.1999 28.7915 22.3402C28.5263 22.5443 28.2304 22.7676 28.1009 23.112C27.9652 23.4692 28.0269 23.8583 28.0824 24.2027C28.1194 24.4196 28.1625 24.6939 28.1132 24.7959C28.0516 24.9171 27.8111 25.0447 27.6014 25.1531C27.3055 25.3062 26.9787 25.472 26.7875 25.7846C26.5902 26.1163 26.5841 26.5117 26.5841 26.8626C26.5841 27.0858 26.5841 27.3601 26.5162 27.4494C26.4361 27.5642 26.1771 27.6407 25.9428 27.7109C25.6283 27.8066 25.2769 27.915 25.0426 28.1829C24.7898 28.4763 24.7219 28.8782 24.6603 29.229C24.6233 29.4331 24.5801 29.7074 24.5061 29.7839C24.3951 29.8923 24.1177 29.9242 23.8772 29.9561C23.5442 29.9944 23.2051 30.039 22.94 30.2559C22.607 30.5302 22.459 30.9512 22.3357 31.2956C22.2741 31.4678 22.1877 31.7102 22.1199 31.7612C22.0089 31.8505 21.8116 31.9079 21.5588 31.9207C21.1765 31.9398 20.7881 31.8441 20.4119 31.6273C19.2774 30.9831 16.6322 29.0568 16.5274 25.134C16.4596 22.5379 15.9601 21.09 14.9674 20.5606C13.9747 20.0376 12.5442 20.4713 10.4724 21.9384C7.34011 24.1517 4.28179 23.0674 3.11026 22.4997C2.72797 22.3147 2.41967 22.0404 2.20386 21.7087C2.06205 21.4919 1.99422 21.2878 2.00039 21.1411C2.00039 21.0518 2.1422 20.8413 2.24086 20.6882C2.43817 20.3884 2.67864 20.0121 2.69714 19.5719C2.71564 19.2211 2.54916 18.915 2.38268 18.6152C2.26552 18.3919 2.12371 18.1432 2.14837 17.9837C2.1607 17.8753 2.35185 17.6775 2.4875 17.5308C2.72797 17.2757 2.99927 16.9823 3.07943 16.5996C3.15342 16.2488 3.0301 15.8852 2.91912 15.5726C2.83896 15.343 2.74647 15.0751 2.78963 14.9412C2.82046 14.8327 3.03627 14.6669 3.20891 14.5393C3.48021 14.3288 3.79468 14.0928 3.9365 13.7356C4.07215 13.3976 4.00433 13.0212 3.955 12.6832C3.918 12.4408 3.86867 12.1665 3.93033 12.0453C3.97966 11.9433 4.22013 11.8221 4.41128 11.72V11.7264Z" fill="#FFD077"/>
</svg>
